<svg width="41" height="40" viewBox="0 0 41 40" fill="none" xmlns="http://www.w3.org/2000/svg">
<path d="M9.09937 31.2584H31.8756C34.5876 31.2584 36.019 29.8522 36.019 27.1652V13.9816C36.019 11.2947 34.5876 9.88843 31.8756 9.88843H28.4479C27.4685 9.88843 27.1546 9.7252 26.5394 9.08486L25.5475 8.01761C24.8946 7.32704 24.2291 6.98804 22.9484 6.98804H17.9638C16.6831 6.98804 16.0302 7.32704 15.3647 8.01761L14.3728 9.08486C13.7701 9.71265 13.4437 9.88843 12.4643 9.88843H9.09937C6.38731 9.88843 4.96851 11.2947 4.96851 13.9816V27.1652C4.96851 29.8522 6.38731 31.2584 9.09937 31.2584ZM9.26259 28.7598C8.12001 28.7598 7.46711 28.1571 7.46711 26.9392V14.2076C7.46711 13.0023 8.12001 12.3996 9.26259 12.3996H13.1926C14.3226 12.3996 14.9001 12.1987 15.5405 11.5081L16.4947 10.4534C17.1979 9.68754 17.5745 9.48664 18.6794 9.48664H22.2327C23.3376 9.48664 23.7143 9.68754 24.4049 10.4409L25.3717 11.5081C26.012 12.1987 26.5896 12.3996 27.7196 12.3996H31.7124C32.8675 12.3996 33.5078 13.0023 33.5078 14.2076V26.9392C33.5078 28.1571 32.8675 28.7598 31.7124 28.7598H9.26259ZM20.4875 27.1024C24.2542 27.1024 27.2676 24.089 27.2676 20.3097C27.2676 16.5304 24.2542 13.5171 20.4875 13.5171C16.7333 13.5171 13.7199 16.5304 13.7199 20.3097C13.7199 24.089 16.7333 27.1024 20.4875 27.1024ZM27.6945 15.8148C27.6945 16.7313 28.4353 17.447 29.3393 17.4345C30.2182 17.4345 30.959 16.7188 30.959 15.8148C30.959 14.9359 30.2057 14.1825 29.3393 14.1825C28.4353 14.1825 27.6945 14.9359 27.6945 15.8148ZM20.4875 24.8173C18.014 24.8173 15.9925 22.8084 15.9925 20.3097C15.9925 17.7986 18.0014 15.8022 20.4875 15.8022C22.9861 15.8022 24.995 17.7986 24.995 20.3097C24.995 22.8084 22.9861 24.8173 20.4875 24.8173Z" fill="#666666"/>
</svg>
