<svg width="25" height="24" viewBox="0 0 25 24" fill="none" xmlns="http://www.w3.org/2000/svg">
<g clip-path="url(#clip0_717_1550)">
<path d="M17.3027 19.22H5.08908V7H12.2137V5H5.08908C3.96949 5 3.05347 5.9 3.05347 7V19C3.05347 20.1 3.96949 21 5.08908 21H17.3027C18.4223 21 19.3383 20.1 19.3383 19V12H17.3027V19.22Z" fill="#666666"/>
<path d="M19.3383 2H17.3027V5H14.2493C14.2594 5.01 14.2493 7 14.2493 7H17.3027V9.99C17.3129 10 19.3383 9.99 19.3383 9.99V7H22.3917V5H19.3383V2Z" fill="#666666"/>
<path d="M15.2671 9H7.12463V11H15.2671V9Z" fill="#666666"/>
<path d="M7.12463 12V14H15.2671V12H12.2137H7.12463Z" fill="#666666"/>
<path d="M15.2671 15H7.12463V17H15.2671V15Z" fill="#333333"/>
</g>
<defs>
<clipPath id="clip0_717_1550">
<rect width="24.4273" height="24" fill="white"/>
</clipPath>
</defs>
</svg>
