<svg width="6" height="4" viewBox="0 0 6 4" fill="none" xmlns="http://www.w3.org/2000/svg">
<path d="M3.0001 3.28247C3.088 3.27996 3.16835 3.24731 3.23364 3.177L5.14212 1.22332C5.19737 1.16807 5.2275 1.09776 5.2275 1.01489C5.2275 0.849156 5.09692 0.716064 4.93119 0.716064C4.85083 0.716064 4.77298 0.74871 4.71523 0.806466L3.00262 2.56679L1.28498 0.806466C1.22723 0.751221 1.15189 0.716064 1.06902 0.716064C0.903285 0.716064 0.772705 0.849156 0.772705 1.01489C0.772705 1.09776 0.802839 1.16807 0.858085 1.22332L2.76908 3.177C2.83688 3.24731 2.91221 3.28247 3.0001 3.28247Z" fill="#666666"/>
</svg>
