<svg width="16" height="17" viewBox="0 0 16 17" fill="none" xmlns="http://www.w3.org/2000/svg">
<path d="M7.99508 13.9325C10.3656 13.9325 11.6112 12.5262 11.6112 9.85435C11.6112 8.24721 11.5459 6.80078 11.4555 5.80636C11.2596 3.61161 10.235 2.6875 7.99508 2.6875C5.76015 2.6875 4.7356 3.61161 4.5347 5.80636C4.4443 6.80078 4.38403 8.24721 4.38403 9.85435C4.38403 12.5262 5.62957 13.9325 7.99508 13.9325ZM5.49899 5.82645C5.64464 4.31473 6.18202 3.73717 7.61339 3.65681V5.82645H5.49899ZM8.38682 5.82645V3.65681C9.81316 3.73717 10.3506 4.31975 10.4962 5.82645H8.38682ZM7.99508 12.9782C6.24229 12.9782 5.33827 11.9185 5.33827 9.85435C5.33827 8.65904 5.37343 7.524 5.4337 6.59989H10.5565C10.6218 7.524 10.6519 8.65904 10.6519 9.85435C10.6519 11.9185 9.74787 12.9782 7.99508 12.9782Z" fill="#666666"/>
</svg>
