<svg width="16" height="16" viewBox="0 0 16 16" fill="none" xmlns="http://www.w3.org/2000/svg">
<path d="M3.70093 12.202H12.2941C13.384 12.202 13.9515 11.6395 13.9515 10.5647V7.75223C13.9515 7.18973 13.8711 6.94866 13.61 6.60714L11.9626 4.41239C11.375 3.63393 11.0687 3.41797 10.1647 3.41797H5.83541C4.92637 3.41797 4.62001 3.63393 4.03742 4.41239L2.38508 6.60714C2.12894 6.94866 2.04858 7.18973 2.04858 7.75223V10.5647C2.04858 11.6395 2.61611 12.202 3.70093 12.202ZM8.00004 9.11328C7.23664 9.11328 6.75952 8.50558 6.75952 7.87779V7.83761C6.75952 7.60659 6.6189 7.3856 6.33262 7.3856H3.30919C3.12336 7.3856 3.09323 7.23493 3.17861 7.1144L5.01175 4.65346C5.22269 4.36217 5.48887 4.25167 5.83039 4.25167H10.1697C10.5062 4.25167 10.7724 4.36217 10.9883 4.65346L12.8164 7.1144C12.9018 7.23493 12.8717 7.3856 12.6859 7.3856H9.66242C9.37615 7.3856 9.24055 7.60659 9.24055 7.83761V7.87779C9.24055 8.50558 8.76343 9.11328 8.00004 9.11328Z" fill="#666666"/>
</svg>
