<svg width="18" height="16" viewBox="0 0 18 16" fill="none" xmlns="http://www.w3.org/2000/svg">
<path d="M2.8125 4.80673L3.68262 3.68173L3.75293 3.72567C5.75684 5.00888 8.11231 7.95321 8.11231 10.0186V14.9405C8.11231 15.6085 8.42871 15.96 8.99121 15.96C9.5625 15.96 9.87891 15.6085 9.87891 14.9405V10.0186C9.87891 7.95321 12.2344 5.00888 14.2383 3.72567L14.2734 3.7081L15.0645 4.79794C15.46 5.35165 15.9785 5.20224 16.1895 4.56063L17.3408 1.10653C17.5166 0.579189 17.2266 0.183681 16.6816 0.19247L13.0342 0.227627C12.3662 0.236416 12.0762 0.684658 12.4629 1.22079L13.2188 2.2579C11.3115 3.55868 9.35156 6.01962 9.00879 7.3995H8.98242C8.63086 6.01083 6.67969 3.56747 4.78125 2.26669L5.51074 1.31747C5.92383 0.790127 5.64258 0.333095 4.96582 0.306728L1.32715 0.157314C0.782227 0.139736 0.483399 0.526455 0.641602 1.0538L1.6875 4.53427C1.88086 5.18466 2.39063 5.35165 2.8125 4.80673Z" fill="#CCCCCC"/>
</svg>
