<svg width="16" height="18" viewBox="0 0 16 18" fill="none" xmlns="http://www.w3.org/2000/svg">
<path d="M0.924805 12.4248H3.28027L2.5332 16.125C2.51562 16.2217 2.49805 16.3623 2.49805 16.459C2.49805 16.9775 2.84961 17.2676 3.37695 17.2676C3.92188 17.2676 4.29102 16.9863 4.40527 16.4238L5.20508 12.4248H9.01074L8.26367 16.125C8.24609 16.2217 8.22852 16.3623 8.22852 16.459C8.22852 16.9775 8.58008 17.2676 9.09863 17.2676C9.65234 17.2676 10.0215 16.9863 10.127 16.4238L10.9355 12.4248H13.7129C14.3457 12.4248 14.7588 12.0117 14.7588 11.4053C14.7588 10.9219 14.4248 10.5703 13.915 10.5703H11.3047L12.1484 6.39551H14.8818C15.5059 6.39551 15.9189 5.97363 15.9189 5.36719C15.9189 4.88379 15.5938 4.52344 15.0752 4.52344H12.5176L13.1855 1.21875C13.2031 1.14844 13.2207 1.00781 13.2207 0.884766C13.2207 0.375 12.8604 0.0673828 12.333 0.0673828C11.7266 0.0673828 11.4365 0.392578 11.3223 0.9375L10.6016 4.52344H6.7959L7.45508 1.21875C7.47266 1.14844 7.49023 1.00781 7.49023 0.884766C7.49023 0.375 7.12988 0.0673828 6.60254 0.0673828C6.00488 0.0673828 5.69727 0.383789 5.5918 0.9375L4.8623 4.52344H2.28711C1.6543 4.52344 1.25 4.9541 1.25 5.56934C1.25 6.06152 1.5752 6.39551 2.09375 6.39551H4.49316L3.64941 10.5703H1.11816C0.494141 10.5703 0.0810547 10.9922 0.0810547 11.6074C0.0810547 12.0996 0.415039 12.4248 0.924805 12.4248ZM5.57422 10.5703L6.41797 6.39551H10.2236L9.38867 10.5703H5.57422Z" fill="#CCCCCC"/>
</svg>
