<svg width="18" height="18" viewBox="0 0 18 18" fill="none" xmlns="http://www.w3.org/2000/svg">
<path d="M5.25586 12.6885C7.84863 15.29 11.0039 17.2939 13.5791 17.2939C14.7305 17.2939 15.7412 16.8896 16.5498 15.9932C17.0244 15.4658 17.3145 14.8594 17.3145 14.2529C17.3145 13.7871 17.1299 13.3301 16.6816 13.0137L13.9834 11.0977C13.5527 10.7988 13.2012 10.6582 12.8848 10.6582C12.4717 10.6582 12.1025 10.8867 11.6982 11.291L11.0654 11.9238C10.96 12.0205 10.8369 12.0645 10.7227 12.0645C10.582 12.0645 10.4502 12.0117 10.3623 11.959C9.80859 11.6602 8.85938 10.8516 7.98047 9.97266C7.10156 9.09375 6.28418 8.15332 5.99414 7.59082C5.94141 7.49414 5.89746 7.37109 5.89746 7.23047C5.89746 7.125 5.93262 7.00195 6.0293 6.89648L6.66211 6.25488C7.05762 5.8418 7.29492 5.48145 7.29492 5.06836C7.29492 4.74316 7.1543 4.3916 6.85547 3.96973L4.94824 1.29785C4.62305 0.84082 4.16602 0.647461 3.66504 0.647461C3.06738 0.647461 2.46973 0.911133 1.95117 1.41211C1.07227 2.23828 0.685547 3.2666 0.685547 4.40039C0.685547 6.97559 2.66309 10.0957 5.25586 12.6885Z" fill="#CCCCCC"/>
</svg>
