<svg width="34" height="25" viewBox="0 0 34 25" fill="none" xmlns="http://www.w3.org/2000/svg">
<path d="M17 12.7826C20.0385 12.7826 22.4995 10.0956 22.4995 6.80601C22.4995 3.56662 20.0385 0.992676 17 0.992676C13.9741 0.992676 11.5006 3.60428 11.5006 6.83112C11.5131 10.1082 13.9615 12.7826 17 12.7826ZM17 10.5853C15.2673 10.5853 13.7983 8.9405 13.7983 6.83112C13.7857 4.77197 15.2548 3.18994 17 3.18994C18.7578 3.18994 20.2017 4.74686 20.2017 6.80601C20.2017 8.91539 18.7453 10.5853 17 10.5853ZM4.02987 10.1207C4.75811 10.6732 5.63701 10.3467 5.63701 9.43018V7.87326H8.83874C9.42887 7.87326 9.89343 7.40869 9.89343 6.80601C9.89343 6.22845 9.42887 5.75133 8.83874 5.75133H5.63701V4.23207C5.63701 3.27783 4.733 2.98905 4.02987 3.52895L0.564468 6.14056C0.0873479 6.49212 0.0747921 7.15758 0.564468 7.52169L4.02987 10.1207ZM25.1613 7.87326H28.363V9.43018C28.363 10.3467 29.2419 10.6732 29.9827 10.1207L33.4481 7.52169C33.9252 7.15758 33.9127 6.49212 33.4481 6.14056L29.9827 3.52895C29.267 2.98905 28.363 3.27783 28.363 4.23207V5.75133H25.1613C24.5712 5.75133 24.1066 6.22845 24.1066 6.80601C24.1066 7.40869 24.5712 7.87326 25.1613 7.87326ZM9.17775 24.4595H24.8223C26.9944 24.4595 28.0366 23.7689 28.0366 22.2873C28.0366 18.8345 23.7299 14.239 17 14.239C10.2701 14.239 5.95091 18.8345 5.95091 22.2873C5.95091 23.7689 7.0056 24.4595 9.17775 24.4595ZM8.77596 22.2622C8.48718 22.2622 8.37418 22.1618 8.37418 21.9358C8.37418 20.0147 11.4755 16.4363 17 16.4363C22.5246 16.4363 25.6259 20.0147 25.6259 21.9358C25.6259 22.1618 25.5129 22.2622 25.2115 22.2622H8.77596Z" fill="#999999"/>
</svg>
