<svg width="48" height="48" viewBox="0 0 48 48" fill="none" xmlns="http://www.w3.org/2000/svg">
<path d="M23.962 32.8458C19.1357 32.8458 15.209 28.9191 15.209 24.0929C15.209 19.268 19.1357 15.3413 23.962 15.3413C28.7868 15.3413 32.7135 19.268 32.7135 24.0929C32.7135 28.9191 28.7868 32.8458 23.962 32.8458ZM23.962 18.818C21.052 18.818 18.6857 21.1847 18.6857 24.0929C18.6857 27.0029 21.0524 29.3691 23.962 29.3691C26.8701 29.3691 29.2368 27.0024 29.2368 24.0929C29.2368 21.1843 26.8701 18.818 23.962 18.818Z" fill="url(#paint0_linear)"/>
<path d="M42.8912 22.5732C36.1515 23.3101 30.9053 29.0167 30.9053 35.9528C30.9053 37.6211 31.2132 39.2162 31.7682 40.6909C33.1773 40.0571 34.5033 39.2528 35.7165 38.2961C35.7142 38.1911 35.6968 38.0898 35.6968 37.9839C35.6968 32.8811 38.5361 28.442 42.7206 26.1582C42.8476 25.2728 42.9362 24.3746 42.9362 23.4536C42.9357 23.1568 42.9048 22.8671 42.8912 22.5732Z" fill="url(#paint1_linear)"/>
<path d="M11.871 10.844C11.3633 10.844 10.8627 10.6232 10.5182 10.2004C9.91398 9.45321 10.0293 8.35821 10.7746 7.75399C12.4654 6.38571 14.3582 5.28884 16.4024 4.4943C17.2954 4.14274 18.3055 4.58946 18.6519 5.48384C18.9998 6.37868 18.5568 7.38509 17.6624 7.73337C15.9548 8.39712 14.3741 9.31399 12.9651 10.4563C12.6421 10.7165 12.2549 10.844 11.871 10.844ZM36.0496 10.844C35.6624 10.844 35.2738 10.7151 34.9494 10.4502C33.5643 9.31634 31.9921 8.40134 30.2755 7.73384C29.3807 7.38602 28.9377 6.37915 29.286 5.4843C29.6324 4.58946 30.6426 4.14134 31.5355 4.49477C33.5929 5.29446 35.4824 6.39274 37.153 7.76102C37.8951 8.36899 38.0052 9.46399 37.3959 10.2074C37.0527 10.6265 36.5535 10.844 36.0496 10.844ZM30.9055 43.8042C30.2094 43.8042 29.5541 43.3846 29.286 42.6974C28.9382 41.8026 29.3793 40.7943 30.2741 40.4465C31.994 39.7757 33.5676 38.8626 34.9494 37.7301C35.6915 37.1188 36.7898 37.2309 37.3959 37.9729C38.0052 38.7163 37.8951 39.8113 37.153 40.4193C35.4876 41.7843 33.598 42.8826 31.5369 43.6856C31.3357 43.7642 31.1216 43.8044 30.9055 43.8042ZM4.93116 28.8187C4.07897 28.8187 3.33554 28.1938 3.21132 27.3267C3.05007 26.196 2.96851 25.1076 2.96851 24.089C2.96851 22.9551 3.05007 21.8971 3.21647 20.8602C3.36929 19.911 4.25897 19.2627 5.20772 19.4188C6.15694 19.5716 6.80194 20.4627 6.64913 21.4101C6.51179 22.2642 6.44522 23.1417 6.44522 24.089C6.44522 24.9431 6.5146 25.8665 6.65382 26.834C6.78976 27.7846 6.12929 28.6659 5.17866 28.8018C5.09569 28.8135 5.01272 28.8187 4.93116 28.8187ZM17.0319 43.8042C16.8215 43.8042 16.6077 43.7667 16.4005 43.6851C14.353 42.8873 12.4602 41.7904 10.7746 40.4254C10.0293 39.8212 9.91398 38.7262 10.5182 37.979C11.1224 37.237 12.216 37.1198 12.9646 37.7226C14.3704 38.8617 15.951 39.7785 17.6638 40.4456C18.5587 40.7934 18.9998 41.8021 18.6519 42.6965C18.3834 43.3846 17.7266 43.8042 17.0319 43.8042ZM42.988 28.8187C42.9065 28.8187 42.8235 28.8135 42.7401 28.8018C41.7894 28.6659 41.129 27.7851 41.2649 26.834C41.4041 25.8595 41.4754 24.9342 41.4754 24.089C41.4754 23.1384 41.4074 22.2642 41.2701 21.4134C41.1173 20.466 41.7609 19.5731 42.7082 19.4188C43.6523 19.2627 44.5485 19.9096 44.7027 20.857C44.871 21.8924 44.9521 22.9504 44.9521 24.0895C44.9521 25.0996 44.8691 26.1895 44.7074 27.3271C44.5837 28.1938 43.8402 28.8187 42.988 28.8187Z" fill="white"/>
<path d="M23.9691 11.3465C20.6893 11.3465 17.5739 9.7762 15.6333 7.14652C15.0629 6.37402 15.2274 5.28605 15.9999 4.71558C16.7724 4.14511 17.8604 4.31152 18.4308 5.08214C19.7382 6.85448 21.7566 7.8698 23.9686 7.8698C26.1807 7.8698 28.1991 6.85448 29.5064 5.08214C30.0769 4.31152 31.1649 4.14511 31.9374 4.71558C32.7099 5.28605 32.8744 6.37402 32.3039 7.14652C30.3643 9.7762 27.2489 11.3465 23.9691 11.3465ZM30.9075 43.8042C30.3746 43.8042 29.8482 43.5595 29.5069 43.0978C28.1996 41.3254 26.1811 40.3087 23.9691 40.3087C21.7571 40.3087 19.7386 41.3254 18.4313 43.0978C17.8608 43.8703 16.7729 44.0348 16.0003 43.4643C15.2278 42.8939 15.0633 41.8059 15.6338 41.0334C17.5744 38.4018 20.6911 36.8315 23.9696 36.8315C27.248 36.8315 30.3647 38.4018 32.3053 41.0334C32.8758 41.8059 32.7113 42.8939 31.9388 43.4643C31.6271 43.6935 31.2657 43.8042 30.9075 43.8042ZM4.93129 22.8735C4.06363 22.8735 3.31363 22.2253 3.20629 21.3421C3.09238 20.3882 3.77348 19.5225 4.72551 19.4085C6.91738 19.147 8.80832 17.8992 9.91176 15.9895C11.0152 14.0896 11.146 11.8317 10.2718 9.7898C9.89301 8.90714 10.3022 7.8848 11.1849 7.50792C12.0591 7.12402 13.088 7.53511 13.4668 8.42105C14.7605 11.4379 14.5552 14.9179 12.9202 17.7309C11.2664 20.5964 8.42816 22.4676 5.13988 22.8614C5.06863 22.8703 4.99926 22.8735 4.93129 22.8735ZM36.053 40.8126C35.3789 40.8126 34.7391 40.4203 34.4555 39.7635C33.1566 36.7589 33.3605 33.2817 35.0007 30.4635C36.6136 27.6351 39.5283 25.7203 42.7913 25.3518C43.7625 25.2567 44.6077 25.9307 44.7146 26.8846C44.8214 27.8385 44.1357 28.6996 43.1818 28.8079C40.9852 29.054 39.1003 30.2901 38.0143 32.1984C36.9193 34.0809 36.7852 36.3881 37.6477 38.3845C38.0279 39.2657 37.6224 40.2895 36.7411 40.6696C36.524 40.764 36.2898 40.8127 36.053 40.8126Z" fill="white"/>
<path d="M42.9882 22.8735C42.9202 22.8735 42.8509 22.8702 42.7796 22.8618C39.4913 22.468 36.6545 20.5972 34.9974 17.728C33.3643 14.9183 33.159 11.4365 34.4541 8.41958C34.8329 7.53692 35.8548 7.12583 36.7374 7.50786C37.6201 7.88661 38.0274 8.90849 37.6491 9.79114C36.773 11.8316 36.9038 14.0896 38.0059 15.9843C39.1126 17.901 41.0021 19.1469 43.194 19.4085C44.1465 19.5224 44.8271 20.3882 44.7132 21.3421C44.6059 22.2247 43.8554 22.8735 42.9882 22.8735ZM11.8698 40.8125C11.6387 40.8125 11.4062 40.7666 11.1807 40.67C10.2995 40.2899 9.89399 39.2675 10.2741 38.3849C11.1348 36.3885 11.0007 34.0813 9.91602 32.2105C8.81914 30.2905 6.93477 29.0544 4.73821 28.8083C3.7843 28.6996 3.09805 27.839 3.20539 26.885C3.31227 25.9311 4.16118 25.25 5.12868 25.3522C8.38977 25.7207 11.3063 27.6355 12.9277 30.4757C14.559 33.2821 14.7629 36.7588 13.4659 39.7635C13.1818 40.4207 12.542 40.8125 11.8698 40.8125Z" fill="white"/>
<defs>
<linearGradient id="paint0_linear" x1="15.209" y1="24.0936" x2="32.7135" y2="24.0936" gradientUnits="userSpaceOnUse">
<stop stop-color="#FFCE00"/>
<stop offset="1" stop-color="#FFCE00" stop-opacity="0.5"/>
</linearGradient>
<linearGradient id="paint1_linear" x1="30.9053" y1="31.6321" x2="42.9362" y2="31.6321" gradientUnits="userSpaceOnUse">
<stop stop-color="#FFCE00"/>
<stop offset="1" stop-color="#FFCE00" stop-opacity="0.5"/>
</linearGradient>
</defs>
</svg>
