<svg width="59" height="59" viewBox="0 0 59 59" fill="none" xmlns="http://www.w3.org/2000/svg">
<circle cx="29.5" cy="35" r="24" fill="white"/>
<path opacity="0.65" d="M43.9088 54.6774H32.0193V51.8261L32.3269 51.0898C32.4101 51.0579 32.4819 51.0019 32.5331 50.9289L36.7811 44.903C40.61 46.8984 43.7003 50.473 43.9088 54.6774ZM28.306 51.8261V54.6763H16.3888C16.5378 51.7848 18.1112 48.9873 20.8566 46.7534C21.5385 46.2 22.2653 45.7042 23.0293 45.2711L27.5951 51.2184C27.6375 51.2735 27.6919 51.3182 27.7543 51.349C27.8167 51.3797 27.8853 51.3957 27.9548 51.3957C27.976 51.3955 27.9972 51.394 28.0182 51.3911C28.051 51.3863 28.0831 51.378 28.114 51.3662L28.306 51.8261Z" fill="#3A4BC1"/>
<path opacity="0.47" d="M44.0566 19.8848V20.1142C44.0356 21.4489 43.7563 22.7668 43.2342 23.9952V22.3243C43.2343 22.0916 43.1483 21.8671 42.9928 21.6939C42.8374 21.5208 42.6233 21.4112 42.392 21.3864L42.2707 21.3733L38.661 20.914C37.1534 20.7212 35.7263 20.1229 34.5319 19.1829C33.3375 18.2429 32.4206 16.9963 31.8789 15.5762C31.7362 15.204 31.6206 14.822 31.5328 14.4332C31.5243 14.3975 31.5164 14.3612 31.509 14.325C31.496 14.2638 31.4841 14.2032 31.4722 14.1415C31.458 14.0633 31.4216 13.991 31.3672 13.9331C31.3128 13.8752 31.2429 13.8343 31.1658 13.8152C31.0887 13.7962 31.0077 13.7999 30.9326 13.8258C30.8576 13.8517 30.7916 13.8988 30.7427 13.9613C30.6826 14.0369 30.6218 14.1124 30.5603 14.1879C30.1901 14.6356 29.7918 15.0594 29.368 15.4567C29.1364 15.6753 28.899 15.8849 28.6566 16.0876C27.1789 17.3213 25.5295 18.2643 24.0551 18.9588C21.6315 20.0995 19.3075 20.7305 18.0359 21.0703C17.9555 21.0937 17.8764 21.1217 17.7992 21.1541C17.5827 21.2405 17.397 21.3898 17.2663 21.5827C17.1355 21.7757 17.0656 22.0035 17.0657 22.2365V23.7987C16.6136 22.6556 16.3757 21.4391 16.3639 20.2099V20.0627C16.3639 18.0531 16.9303 16.2083 17.8739 14.7719C18.5072 13.4742 19.4508 12.3142 20.5219 11.3457C21.8478 10.1466 23.3698 9.24092 24.7405 8.73002C26.2069 8.18287 27.4904 7.9076 28.5654 7.9076C28.7637 7.90731 28.9618 7.91733 29.159 7.93762C29.7562 8.00792 30.339 8.16953 30.8871 8.4168C31.2124 8.56061 31.5192 8.74318 31.8007 8.96055C31.9921 9.11058 32.1634 9.28457 32.3105 9.47824L32.5501 9.51279L32.554 9.50996C32.7451 9.36163 32.9529 9.23617 33.1731 9.13613C33.5646 8.95884 33.9895 8.8673 34.4192 8.86766C34.5486 8.86783 34.6778 8.87616 34.8061 8.89258L34.8882 8.90277H34.8961C36.3603 9.0625 37.9321 9.75238 39.3005 10.7855C40.046 11.3464 40.7161 12.0011 41.2943 12.7334C41.5254 13.0282 41.7396 13.3359 41.936 13.6549C43.2393 15.2012 44.0566 17.4221 44.0566 19.8848Z" fill="#405BCC"/>
<path d="M44.9997 28.9388C44.3449 29.892 43.4353 30.5921 42.4384 30.9093C42.3699 30.9314 42.3008 30.9512 42.2322 30.9693C42.3078 30.6337 42.3712 30.2938 42.4226 29.9498C43.1277 29.6609 43.7695 29.128 44.2526 28.4245C44.7935 27.636 45.0637 26.7372 45.0139 25.8926C44.9663 25.0912 44.6321 24.4381 44.0725 24.0541C43.8695 23.9154 43.6428 23.8151 43.4036 23.7584C43.5248 23.4813 43.6345 23.1981 43.7327 22.9088C44.0369 22.9949 44.3251 23.1302 44.5857 23.3093C45.3786 23.8547 45.8538 24.7542 45.9184 25.8411C45.9824 26.885 45.6539 27.9849 44.9997 28.9388Z" fill="#FFBAB3"/>
<path d="M44.3178 26.1771C44.2818 26.2596 44.2146 26.3246 44.1308 26.3576C44.047 26.3906 43.9535 26.3891 43.8709 26.3532C43.693 26.2756 43.279 26.3532 42.8938 26.62C42.7713 26.7056 42.6597 26.8059 42.5613 26.9185V26.0247C43.0207 25.7262 43.6721 25.5246 44.1422 25.7296C44.1831 25.7474 44.2201 25.7732 44.251 25.8053C44.282 25.8375 44.3063 25.8754 44.3227 25.9169C44.339 25.9585 44.3469 26.0029 44.3461 26.0475C44.3452 26.0921 44.3356 26.1361 44.3178 26.1771ZM16.7808 30.9694C16.7122 30.9513 16.6431 30.9315 16.574 30.9094C15.5772 30.5922 14.6675 29.8898 14.0133 28.9388C13.3591 27.9879 13.0323 26.8851 13.0946 25.84C13.1592 24.7531 13.6321 23.8537 14.4274 23.3082C14.7104 23.1133 15.0259 22.9704 15.3591 22.8862C15.4554 23.1785 15.564 23.4642 15.6848 23.7432C15.418 23.7958 15.1646 23.902 14.94 24.0553C14.3809 24.4393 14.0467 25.0924 13.9992 25.8938C13.9488 26.7384 14.2189 27.6372 14.7604 28.4257C15.243 29.1292 15.8853 29.6621 16.5905 29.951C16.6403 30.2943 16.7038 30.6337 16.7808 30.9694Z" fill="#FFBAB3"/>
<path d="M16.4517 26.0246V26.919C16.3534 26.8061 16.2415 26.7056 16.1187 26.6199C15.7335 26.3543 15.3201 26.2756 15.1422 26.3532C15.06 26.3871 14.9677 26.3874 14.8852 26.354C14.8027 26.3206 14.7366 26.2562 14.7011 26.1746C14.6656 26.0931 14.6635 26.0008 14.6952 25.9177C14.727 25.8346 14.79 25.7672 14.8709 25.7301C15.3399 25.5245 15.9918 25.7261 16.4517 26.0246Z" fill="#FFBAB3"/>
<path d="M44.1841 54.4883C44.1841 54.6085 44.1363 54.7238 44.0514 54.8087C43.9664 54.8937 43.8511 54.9414 43.731 54.9414H15.2832C15.163 54.9414 15.0478 54.8937 14.9628 54.8087C14.8778 54.7238 14.8301 54.6085 14.8301 54.4883C14.8301 52.7721 15.2832 51.082 16.1798 49.466C17.0085 47.9701 18.1741 46.6056 19.644 45.4094C20.3935 44.8016 21.1938 44.259 22.0359 43.7878C22.0044 43.8616 21.993 43.9424 22.003 44.022C22.0129 44.1016 22.0438 44.1771 22.0925 44.2409L22.3888 44.6272C21.6247 45.0603 20.898 45.5561 20.216 46.1095C17.469 48.3462 15.8955 51.1465 15.7465 54.0352H43.2665C43.0581 49.8308 39.9678 46.2545 36.14 44.2636L36.4187 43.8671C36.4531 43.8182 36.4775 43.7631 36.4906 43.7047C36.5036 43.6464 36.5049 43.5861 36.4946 43.5272C36.4835 43.4639 36.4587 43.4038 36.4221 43.3511C37.5402 43.9161 38.5895 44.6081 39.5492 45.4134C40.9697 46.6068 42.0946 47.9724 42.891 49.4722C43.7496 51.0837 44.1841 52.771 44.1841 54.4883Z" fill="#31296B"/>
<path d="M32.2539 40.8028C32.559 40.7375 32.8611 40.662 33.1601 40.5763V41.359C33.1402 41.3695 33.1213 41.3816 33.1035 41.3953L32.3722 41.9458L32.2539 42.0347V40.8028ZM25.8529 40.5757C26.1512 40.6618 26.4533 40.7373 26.7592 40.8022V42.3406L26.3627 42.0818L25.8529 41.7487V40.5757Z" fill="#FFBAB3"/>
<path d="M29.2559 32.2852H29.1828C28.2726 32.2467 27.6977 31.4922 27.6349 31.405L27.5267 31.256V23.8304C27.5267 23.6802 27.5863 23.5362 27.6926 23.4299C27.7988 23.3237 27.9429 23.264 28.0931 23.264C28.2433 23.264 28.3874 23.3237 28.4936 23.4299C28.5998 23.5362 28.6595 23.6802 28.6595 23.8304V30.8578C28.7915 30.9859 29.0067 31.145 29.235 31.1529C29.4632 31.1609 29.7221 31.0085 29.9888 30.6998C30.0373 30.6428 30.0965 30.5959 30.1632 30.5619C30.2299 30.5278 30.3026 30.5074 30.3772 30.5016C30.4519 30.4959 30.5269 30.505 30.598 30.5285C30.669 30.5519 30.7348 30.5892 30.7914 30.6382C30.8479 30.6872 30.8943 30.7469 30.9276 30.8139C30.961 30.8809 30.9808 30.9538 30.9858 31.0285C30.9908 31.1031 30.9809 31.1781 30.9568 31.2489C30.9327 31.3198 30.8948 31.3851 30.8452 31.4412C30.3604 32.002 29.8257 32.2852 29.2559 32.2852Z" fill="#F47A8F"/>
<path d="M34.3326 24.8267C34.3326 25.8201 35.0417 26.6256 35.9157 26.6256C36.7896 26.6256 37.4982 25.8201 37.4982 24.8267C37.4982 23.8332 36.7896 23.0283 35.9157 23.0283C35.0417 23.0283 34.3326 23.8338 34.3326 24.8267ZM20.6165 24.8267C20.6165 25.8201 21.325 26.6256 22.1996 26.6256C23.0741 26.6256 23.7821 25.8201 23.7821 24.8267C23.7821 23.8332 23.0735 23.0283 22.1996 23.0283C21.3256 23.0283 20.6165 23.8338 20.6165 24.8267ZM23.9045 21.6565H23.8994L20.497 21.6072C20.4068 21.6059 20.3209 21.5688 20.2581 21.5041C20.1954 21.4394 20.1609 21.3524 20.1622 21.2623C20.1636 21.1721 20.2007 21.0862 20.2654 21.0235C20.33 20.9607 20.417 20.9262 20.5071 20.9275L23.909 20.9762C23.9536 20.9765 23.9977 20.9856 24.0389 21.003C24.08 21.0203 24.1173 21.0456 24.1486 21.0774C24.18 21.1091 24.2048 21.1468 24.2216 21.1881C24.2384 21.2295 24.2469 21.2737 24.2466 21.3183C24.2463 21.363 24.2372 21.4071 24.2198 21.4482C24.2025 21.4893 24.1772 21.5266 24.1454 21.558C24.1137 21.5893 24.076 21.6141 24.0347 21.6309C23.9933 21.6477 23.9491 21.6562 23.9045 21.6559V21.6565ZM37.6058 21.6565H37.5996L34.2012 21.6072C34.1565 21.6066 34.1125 21.5972 34.0715 21.5795C34.0305 21.5618 33.9934 21.5363 33.9623 21.5043C33.9311 21.4723 33.9066 21.4345 33.8902 21.393C33.8737 21.3515 33.8655 21.3072 33.8661 21.2626C33.8668 21.2179 33.8762 21.1739 33.8938 21.1329C33.9115 21.0919 33.9371 21.0548 33.9691 21.0237C34.0011 20.9926 34.0389 20.968 34.0804 20.9516C34.1218 20.9351 34.1662 20.9269 34.2108 20.9275L37.6132 20.9762C37.7033 20.9768 37.7895 21.0132 37.8528 21.0774C37.9161 21.1415 37.9514 21.2282 37.9508 21.3183C37.9502 21.4085 37.9138 21.4947 37.8496 21.558C37.7855 21.6213 37.6988 21.6565 37.6087 21.6559L37.6058 21.6565Z" fill="#31296B"/>
<path d="M31.4366 35.6038H31.4258L27.2344 35.5432C27.16 35.5421 27.0866 35.5264 27.0183 35.4969C26.95 35.4674 26.8881 35.4248 26.8363 35.3714C26.7845 35.3181 26.7436 35.255 26.7162 35.1859C26.6887 35.1168 26.6751 35.0429 26.6762 34.9685C26.6773 34.8941 26.693 34.8207 26.7225 34.7524C26.7519 34.6841 26.7946 34.6223 26.8479 34.5704C26.9013 34.5186 26.9643 34.4778 27.0334 34.4503C27.1026 34.4228 27.1764 34.4093 27.2508 34.4103L31.4422 34.4709C31.5925 34.472 31.7361 34.5327 31.8416 34.6396C31.9471 34.7466 32.0057 34.8911 32.0047 35.0413C32.0036 35.1915 31.9429 35.3352 31.836 35.4407C31.729 35.5461 31.5845 35.6048 31.4343 35.6038H31.4366Z" fill="#E83F63"/>
<path d="M31.6846 50.4504L31.3771 51.1867V54.3183C31.3771 54.4385 31.3293 54.5538 31.2443 54.6387C31.1594 54.7237 31.0441 54.7715 30.9239 54.7715C30.8038 54.7715 30.6885 54.7237 30.6035 54.6387C30.5185 54.5538 30.4708 54.4385 30.4708 54.3183V51.0944C30.4708 51.0343 30.4827 50.9748 30.5059 50.9193L30.959 49.833L31.0955 50.1898C31.1248 50.2666 31.1744 50.3341 31.2391 50.3848C31.3037 50.4356 31.381 50.4679 31.4626 50.4781C31.4814 50.4804 31.5003 50.4815 31.5192 50.4815C31.5758 50.4817 31.632 50.4712 31.6846 50.4504ZM28.5699 51.0944V54.3183C28.5699 54.4385 28.5222 54.5538 28.4372 54.6387C28.3522 54.7237 28.237 54.7715 28.1168 54.7715C27.9966 54.7715 27.8814 54.7237 27.7964 54.6387C27.7114 54.5538 27.6637 54.4385 27.6637 54.3183V51.185L27.4717 50.7268C27.5311 50.7045 27.5853 50.67 27.6305 50.6255C27.6758 50.581 27.7112 50.5275 27.7345 50.4685L28.0307 49.7152L28.5371 50.9199C28.5594 50.9753 28.5706 51.0346 28.5699 51.0944ZM32.2561 42.8594C32.2642 42.9457 32.2973 43.0277 32.3513 43.0956L32.571 42.9302C32.4662 42.9053 32.3609 42.8815 32.2561 42.8594Z" fill="#31296B"/>
<path d="M36.4946 43.5277C36.4835 43.4644 36.4587 43.4043 36.4221 43.3516C36.392 43.3057 36.3536 43.266 36.3088 43.2343L33.6348 41.3844C33.5658 41.3368 33.485 41.3091 33.4013 41.3046C33.3176 41.3001 33.2343 41.3189 33.1607 41.359C33.1408 41.3694 33.1219 41.3816 33.104 41.3952L32.3728 41.9457L32.2544 42.0347L31.3691 42.7025L29.4824 44.123L27.4377 42.7863L26.758 42.3428L26.3615 42.084L25.8518 41.7509L25.7051 41.6524C25.6316 41.6047 25.546 41.5793 25.4584 41.5793C25.3709 41.5793 25.2852 41.6047 25.2117 41.6524L22.2047 43.5866C22.1521 43.6206 22.107 43.6652 22.0725 43.7174C22.0379 43.7697 22.0146 43.8286 22.004 43.8903C21.9933 43.952 21.9956 44.0153 22.0106 44.0761C22.0257 44.137 22.0532 44.194 22.0914 44.2437L22.3876 44.6299L26.9512 50.58C26.9935 50.6352 27.048 50.6799 27.1103 50.7106C27.1727 50.7414 27.2413 50.7574 27.3108 50.7573C27.3321 50.7572 27.3533 50.7557 27.3743 50.7528C27.407 50.748 27.4391 50.7396 27.47 50.7279C27.5295 50.7056 27.5836 50.6712 27.6288 50.6267C27.6741 50.5822 27.7095 50.5287 27.7328 50.4696L28.029 49.7163L29.4955 45.9922L30.9608 49.8352L31.0973 50.1921C31.1265 50.2689 31.1762 50.3363 31.2408 50.3871C31.3055 50.4379 31.3827 50.4701 31.4643 50.4804C31.4831 50.4826 31.502 50.4838 31.5209 50.4838C31.5934 50.4834 31.6648 50.4659 31.7291 50.4325C31.7934 50.3991 31.8489 50.3508 31.8908 50.2917L36.1389 44.2658L36.4175 43.8693C36.4524 43.8203 36.4771 43.7649 36.4904 43.7062C36.5036 43.6476 36.505 43.5869 36.4946 43.5277ZM27.5283 48.5155L27.184 49.3906L26.6176 48.6543L23.1993 44.2006L23.1098 44.0839L25.4559 42.5733L25.8523 42.8333L26.2013 43.0599L26.472 43.2366L28.9642 44.865L27.5283 48.5155ZM35.313 43.8636L32.2454 48.2147L31.641 49.0717L31.4711 48.6186L30.0313 44.8435L32.3536 43.0944C32.2996 43.0266 32.2665 42.9445 32.2584 42.8582C32.3632 42.8803 32.4685 42.9041 32.5733 42.929L33.1624 42.4855L33.3889 42.3156L35.4167 43.7192L35.313 43.8636ZM39.7406 18.4648C39.7071 18.4646 39.6737 18.4609 39.6409 18.4535C35.3295 17.481 33.965 14.0078 33.9089 13.8605C33.8661 13.7478 33.8698 13.6228 33.9192 13.5128C33.9686 13.4029 34.0596 13.3171 34.1723 13.2743C34.285 13.2315 34.41 13.2351 34.52 13.2845C34.6299 13.3339 34.7157 13.425 34.7585 13.5376C34.7659 13.5569 35.0802 14.351 35.859 15.2369C36.9018 16.4263 38.2419 17.208 39.8426 17.5688C39.9525 17.5924 40.0497 17.6561 40.1153 17.7474C40.1809 17.8388 40.2102 17.9512 40.1974 18.063C40.1847 18.1747 40.1309 18.2777 40.0465 18.352C39.9621 18.4262 39.8531 18.4664 39.7406 18.4648ZM19.3409 17.6616C19.2289 17.6623 19.1206 17.6213 19.0369 17.5467C18.9533 17.4721 18.9002 17.3692 18.8881 17.2578C18.8759 17.1464 18.9054 17.0344 18.971 16.9435C19.0365 16.8526 19.1334 16.7892 19.243 16.7656C22.1979 16.1091 24.0104 14.8109 25.0107 13.8373C26.0936 12.7832 26.4867 11.8707 26.4907 11.8616C26.5377 11.7519 26.6261 11.6651 26.7367 11.6201C26.8473 11.5752 26.9712 11.5757 27.0814 11.6216C27.1917 11.6675 27.2793 11.7551 27.3254 11.8652C27.3714 11.9754 27.3721 12.0993 27.3273 12.21C27.3097 12.2525 26.8798 13.2692 25.6847 14.4473C24.5978 15.5172 22.6323 16.9395 19.4412 17.6503C19.4083 17.6578 19.3747 17.6616 19.3409 17.6616Z" fill="#31296B"/>
<path d="M42.1745 12.6575C42.1275 12.5975 42.0799 12.5386 42.0312 12.4802C41.8263 12.1518 41.6039 11.8345 41.3651 11.5298C39.5923 9.2687 36.8412 7.63179 34.3564 7.35821L34.2782 7.34802C33.4667 7.24315 32.6428 7.39507 31.922 7.78245C30.9863 6.94134 29.6133 6.49784 28.6108 6.39136C27.2843 6.25089 25.6592 6.53466 23.7799 7.23587C21.4894 8.09001 19.2934 9.68558 17.7556 11.6114C17.2272 12.2684 16.7733 12.9821 16.4025 13.7393C15.3727 15.3525 14.8165 17.3343 14.8165 19.4204C14.8165 21.5201 15.3829 23.515 16.4263 25.1343C16.5923 25.3935 16.7715 25.644 16.9632 25.8848C17.0997 26.0547 17.2413 26.2184 17.3863 26.3742V22.0491C17.386 21.8547 17.4504 21.6656 17.5694 21.5118C17.6883 21.358 17.8551 21.2481 18.0433 21.1995C20.0141 20.691 21.9341 20.0032 23.7793 19.1446C25.5278 18.3216 27.0605 17.3847 28.3502 16.3493C28.6089 16.142 28.8577 15.931 29.0968 15.7161C29.1642 15.6549 29.2304 15.5943 29.2961 15.5332C29.608 15.242 29.9024 14.9441 30.1792 14.6394C30.2047 14.7249 30.2318 14.8093 30.2607 14.8954C30.4033 15.3192 30.5769 15.7319 30.7801 16.1301C31.0497 16.6602 31.3689 17.1635 31.7334 17.6334C32.4768 18.6015 33.4048 19.4127 34.4638 20.0198C35.5227 20.627 36.6916 21.0181 37.9027 21.1706L41.0706 21.5739C41.2245 21.5933 41.3659 21.6683 41.4685 21.7847C41.571 21.9011 41.6275 22.0509 41.6274 22.206V26.4608C41.8162 26.2626 41.9987 26.0517 42.1751 25.8282C42.3208 25.6424 42.4592 25.4506 42.5903 25.2527C43.7112 23.5705 44.3218 21.4646 44.3218 19.2426C44.3212 16.76 43.5588 14.4213 42.1745 12.6575ZM42.5897 23.353V21.6821C42.5898 21.4493 42.5038 21.2248 42.3483 21.0517C42.1928 20.8785 41.9788 20.769 41.7474 20.7441L41.6262 20.7311L38.0165 20.2717C36.5089 20.0788 35.0819 19.4804 33.8876 18.5403C32.6933 17.6001 31.7765 16.3535 31.2349 14.9333C31.0923 14.5611 30.9766 14.1792 30.8889 13.7903C30.8804 13.7546 30.8724 13.7184 30.8651 13.6821C30.8521 13.621 30.8402 13.5604 30.8283 13.4986C30.8141 13.4205 30.7776 13.3481 30.7232 13.2902C30.6689 13.2324 30.5989 13.1914 30.5218 13.1724C30.4447 13.1534 30.3638 13.157 30.2887 13.1829C30.2136 13.2089 30.1477 13.2559 30.0987 13.3185C30.0387 13.394 29.9779 13.4696 29.9164 13.5451C29.5461 13.9928 29.1479 14.4165 28.7241 14.8138C28.4924 15.0325 28.2551 15.242 28.0127 15.4448C26.5349 16.6784 24.8855 17.6215 23.4112 18.3159C20.9892 19.4572 18.6653 20.0876 17.3937 20.4252C17.3132 20.4486 17.2342 20.4766 17.1569 20.509C16.9404 20.5954 16.7548 20.7447 16.624 20.9376C16.4933 21.1306 16.4234 21.3583 16.4234 21.5914V23.1536C15.9714 22.0105 15.7335 20.794 15.7216 19.5648V19.4176C15.7216 17.408 16.2881 15.5632 17.2317 14.1268C17.8649 12.8291 18.8086 11.6691 19.8796 10.7006C21.2056 9.5015 22.7275 8.59581 24.0982 8.08491C25.5647 7.53777 26.8481 7.26249 27.9232 7.26249C28.1214 7.26221 28.3196 7.27223 28.5168 7.29251C29.1139 7.36282 29.6968 7.52443 30.2449 7.77169C30.5702 7.9155 30.8769 8.09808 31.1585 8.31544C31.3499 8.46547 31.5212 8.63946 31.6682 8.83314L31.9078 8.86769L31.9118 8.86486C32.1029 8.71652 32.3106 8.59106 32.5309 8.49103C32.9224 8.31373 33.3472 8.22219 33.777 8.22255C33.9063 8.22273 34.0355 8.23105 34.1638 8.24747L34.246 8.25767H34.2539C35.7181 8.41739 37.2898 9.10728 38.6583 10.1404C39.4038 10.7013 40.0739 11.356 40.652 12.0883C40.8831 12.3831 41.0974 12.6908 41.2938 13.0098C42.5965 14.5578 43.4149 16.7787 43.4149 19.2403V19.4668C43.3937 20.8034 43.1134 22.1231 42.5897 23.353Z" fill="#31296B"/>
<path d="M42.1745 25.8281C41.9989 26.0517 41.8163 26.2626 41.6268 26.4608V28.0371C41.6268 34.7207 36.1893 40.1582 29.5057 40.1582C22.8221 40.1582 17.3846 34.7207 17.3846 28.0371V26.3725C17.2396 26.2167 17.098 26.0536 16.9615 25.8831C16.7688 25.642 16.5886 25.3911 16.4217 25.1315V28.0371C16.4217 31.5072 17.8002 34.8352 20.2539 37.2889C22.7076 39.7426 26.0356 41.1211 29.5057 41.1211C32.9758 41.1211 36.3037 39.7426 38.7574 37.2889C41.2112 34.8352 42.5897 31.5072 42.5897 28.0371V25.2527C42.459 25.4505 42.3206 25.6424 42.1745 25.8281Z" fill="#FFBAB3"/>
</svg>
