<?xml version="1.0" standalone="no"?><!DOCTYPE svg PUBLIC "-//W3C//DTD SVG 1.1//EN" "http://www.w3.org/Graphics/SVG/1.1/DTD/svg11.dtd"><svg t="1638804869429" class="icon" viewBox="0 0 1024 1024" version="1.1" xmlns="http://www.w3.org/2000/svg" p-id="3342" data-spm-anchor-id="a313x.7781069.0.i3" xmlns:xlink="http://www.w3.org/1999/xlink" width="32" height="32"><defs><style type="text/css"></style></defs><path d="M471.75 620.187c-11.651-9.154-17.476-21.637-17.476-35.785v-454.383c0-66.576-54.094-120.669-120.669-120.669s-120.669 54.094-120.669 120.669v454.383c0 14.147-6.657 27.462-18.308 36.618-54.925 44.939-84.885 110.683-81.556 182.253 4.994 110.683 95.703 202.225 206.386 209.715 4.994 0 9.154 0.832 14.147 0.832 56.59 0 109.852-20.805 150.629-59.919 44.107-41.61 69.905-99.863 69.905-160.615 0-69.073-29.958-131.488-82.387-173.098zM455.938 922.276c-36.618 34.121-84.052 51.597-133.985 48.268-89.877-5.825-163.111-79.891-167.273-169.769-2.496-57.423 21.637-111.515 65.744-147.3 21.637-17.476 33.287-42.443 33.287-69.073v-454.383c0-43.275 35.785-79.059 79.059-79.059s79.059 35.785 79.059 79.059v454.383c0 25.798 12.482 50.764 33.287 67.409 42.443 34.121 66.576 84.885 66.576 138.978 0.832 50.764-19.141 97.367-55.758 131.488zM889.515 313.936l-139.81-248.829-137.314 243.836-0.832 0.832c-10.819 21.637-15.811 44.107-15.811 68.24 0 84.885 69.073 153.957 153.957 153.957s153.957-69.073 153.957-153.957c0-24.133-4.994-44.107-14.147-64.080zM749.705 490.363c-61.583 0-112.348-50.764-112.348-112.348 0-17.476 4.161-33.287 11.651-49.1l100.697-178.924 100.697 178.924 1.665 3.329c7.49 14.98 9.986 28.295 9.986 46.604 0 61.583-50.764 111.515-112.348 111.515z" fill="#666666" p-id="3343" data-spm-anchor-id="a313x.7781069.0.i1" class=""></path><path d="M749.705 447.089c-36.618 0-66.576-29.958-66.576-66.576 0-4.994-3.329-8.322-8.322-8.322s-8.322 3.329-8.322 8.322c0 45.772 37.449 83.22 83.22 83.22 4.994 0 8.322-3.329 8.322-8.322s-4.161-8.322-8.322-8.322zM399.348 675.943c-20.805-11.651-32.457-34.121-32.457-58.254v-253.822c0-18.308-14.98-33.287-33.287-33.287s-33.287 14.98-33.287 33.287v255.487c0 23.301-12.482 45.772-33.287 57.423-41.61 24.133-69.073 69.073-66.576 121.502 3.329 68.24 59.086 123.999 126.495 127.328 76.562 3.329 139.81-57.423 139.81-133.153 0-50.764-27.462-94.038-67.409-116.509z" fill="#666666" p-id="3344" data-spm-anchor-id="a313x.7781069.0.i2" class=""></path></svg>