<svg width="81" height="81" viewBox="0 0 81 81" fill="none" xmlns="http://www.w3.org/2000/svg">
<path opacity="0.65" d="M60.3743 75.6671H43.975V71.7343L44.3992 70.7186C44.514 70.6747 44.613 70.5974 44.6836 70.4968L50.543 62.1851C55.8242 64.9374 60.0868 69.8679 60.3743 75.6671ZM38.8532 71.7343V75.6655H22.4156C22.6211 71.6772 24.7914 67.8186 28.5782 64.7374C29.5188 63.9741 30.5212 63.2902 31.575 62.6929L37.8727 70.896C37.9311 70.9721 38.0062 71.0337 38.0922 71.0761C38.1782 71.1185 38.2729 71.1406 38.3688 71.1405C38.3981 71.1404 38.4273 71.1383 38.4563 71.1343C38.5014 71.1276 38.5457 71.1161 38.5883 71.0999L38.8532 71.7343Z" fill="#3A4BC1"/>
<path opacity="0.47" d="M60.578 27.6773V27.9937C60.549 29.8346 60.1638 31.6524 59.4437 33.3468V31.0421C59.4438 30.7212 59.3252 30.4115 59.1107 30.1726C58.8963 29.9338 58.6011 29.7827 58.2819 29.7484L58.1148 29.7304L53.1359 29.0968C51.0563 28.831 49.0879 28.0057 47.4404 26.7091C45.793 25.4125 44.5283 23.6932 43.7812 21.7343C43.5844 21.221 43.4248 20.6941 43.3038 20.1578C43.2921 20.1086 43.2812 20.0586 43.271 20.0086C43.253 19.9242 43.2366 19.8406 43.2202 19.7554C43.2007 19.6477 43.1504 19.5478 43.0754 19.468C43.0004 19.3882 42.9039 19.3317 42.7975 19.3055C42.6912 19.2792 42.5795 19.2843 42.476 19.32C42.3724 19.3558 42.2815 19.4207 42.214 19.507C42.1312 19.6112 42.0473 19.7153 41.9624 19.8195C41.4518 20.437 40.9025 21.0215 40.3179 21.5695C39.9984 21.8711 39.671 22.1601 39.3366 22.4398C37.2984 24.1414 35.0234 25.4421 32.9898 26.4C29.6468 27.9734 26.4413 28.8437 24.6874 29.3125C24.5764 29.3447 24.4674 29.3833 24.3609 29.4281C24.0622 29.5472 23.8062 29.7531 23.6258 30.0193C23.4455 30.2854 23.3491 30.5995 23.3491 30.9211V33.0757C22.7256 31.4991 22.3975 29.8211 22.3812 28.1257V27.9226C22.3812 25.1507 23.1624 22.6062 24.464 20.625C25.3374 18.8351 26.639 17.2351 28.1163 15.8992C29.9452 14.2453 32.0444 12.9961 33.9351 12.2914C35.9577 11.5367 37.728 11.157 39.2109 11.157C39.4843 11.1566 39.7576 11.1704 40.0296 11.1984C40.8533 11.2954 41.6572 11.5183 42.4132 11.8593C42.8619 12.0577 43.285 12.3095 43.6734 12.6093C43.9373 12.8163 44.1736 13.0563 44.3765 13.3234L44.7069 13.3711L44.7124 13.3671C44.976 13.1626 45.2625 12.9895 45.5663 12.8515C46.1063 12.607 46.6923 12.4807 47.2851 12.4812C47.4635 12.4815 47.6417 12.4929 47.8187 12.5156L47.9319 12.5296H47.9429C49.9624 12.75 52.1304 13.7015 54.0179 15.1265C55.0462 15.9002 55.9705 16.8032 56.7679 17.8132C57.0867 18.2199 57.3822 18.6443 57.653 19.0843C59.4507 21.2171 60.578 24.2804 60.578 27.6773Z" fill="#405BCC"/>
<path d="M61.8789 40.1656C60.9758 41.4804 59.7211 42.446 58.3461 42.8835C58.2516 42.914 58.1562 42.9414 58.0617 42.9664C58.1659 42.5033 58.2534 42.0346 58.3242 41.5601C59.2969 41.1617 60.182 40.4265 60.8484 39.4562C61.5945 38.3687 61.9672 37.1289 61.8984 35.964C61.8328 34.8585 61.3719 33.9578 60.6 33.4281C60.32 33.2367 60.0073 33.0985 59.6773 33.0203C59.8445 32.638 59.9958 32.2473 60.1312 31.8484C60.5509 31.9672 60.9483 32.1537 61.3078 32.4007C62.4016 33.1531 63.057 34.3937 63.1461 35.8929C63.2344 37.3328 62.7812 38.8499 61.8789 40.1656Z" fill="#FFBAB3"/>
<path d="M60.9383 36.3562C60.8888 36.4701 60.796 36.5597 60.6804 36.6053C60.5648 36.6508 60.4359 36.6486 60.3219 36.5992C60.0766 36.4921 59.5055 36.5992 58.9743 36.9671C58.8053 37.0853 58.6513 37.2236 58.5157 37.3789V36.146C59.1493 35.7343 60.0477 35.4562 60.6962 35.739C60.7526 35.7636 60.8036 35.7991 60.8463 35.8435C60.889 35.8878 60.9226 35.9401 60.9451 35.9974C60.9676 36.0548 60.9786 36.1159 60.9774 36.1775C60.9762 36.239 60.963 36.2998 60.9383 36.3562ZM22.9563 42.9664C22.8618 42.9414 22.7665 42.914 22.6712 42.8835C21.2962 42.446 20.0415 41.4773 19.1391 40.1656C18.2368 38.8539 17.786 37.3328 17.8719 35.8914C17.961 34.3921 18.6133 33.1515 19.7102 32.3992C20.1006 32.1303 20.5358 31.9332 20.9954 31.8171C21.1282 32.2203 21.2779 32.6143 21.4446 32.9992C21.0766 33.0717 20.7271 33.2182 20.4172 33.4296C19.6462 33.9593 19.1852 34.8601 19.1196 35.9656C19.0501 37.1304 19.4227 38.3703 20.1696 39.4578C20.8352 40.4281 21.7212 41.1632 22.6938 41.5617C22.7626 42.0351 22.8501 42.5033 22.9563 42.9664Z" fill="#FFBAB3"/>
<path d="M22.5023 36.146V37.3796C22.3667 37.2239 22.2124 37.0853 22.043 36.9671C21.5117 36.6007 20.9414 36.4921 20.6961 36.5992C20.5826 36.6459 20.4554 36.6463 20.3416 36.6003C20.2278 36.5543 20.1367 36.4654 20.0877 36.3529C20.0387 36.2404 20.0358 36.1132 20.0796 35.9985C20.1233 35.8839 20.2104 35.791 20.3219 35.7398C20.9688 35.4562 21.868 35.7343 22.5023 36.146Z" fill="#FFBAB3"/>
<path d="M60.7539 75.4062C60.7539 75.5719 60.6881 75.7309 60.5708 75.8481C60.4536 75.9653 60.2947 76.0312 60.1289 76.0312H20.8906C20.7249 76.0312 20.5659 75.9653 20.4487 75.8481C20.3315 75.7309 20.2656 75.5719 20.2656 75.4062C20.2656 73.039 20.8906 70.7077 22.1273 68.4788C23.2703 66.4155 24.8781 64.5335 26.9055 62.8835C27.9393 62.0451 29.0431 61.2968 30.2047 60.6468C30.1612 60.7485 30.1455 60.86 30.1593 60.9698C30.173 61.0797 30.2156 61.1838 30.2828 61.2718L30.6914 61.8046C29.6375 62.4019 28.6351 63.0858 27.6945 63.8491C23.9055 66.9343 21.7352 70.7968 21.5297 74.7812H59.4883C59.2008 68.9819 54.9383 64.0491 49.6586 61.303L50.043 60.7562C50.0905 60.6888 50.1242 60.6127 50.1421 60.5322C50.1601 60.4518 50.162 60.3686 50.1477 60.2874C50.1324 60.2001 50.0982 60.1172 50.0477 60.0444C51.5899 60.8238 53.0372 61.7783 54.3609 62.889C56.3203 64.5351 57.8719 66.4187 58.9703 68.4874C60.1547 70.7101 60.7539 73.0374 60.7539 75.4062Z" fill="#31296B"/>
<path d="M44.2984 56.5296C44.7192 56.4395 45.1359 56.3353 45.5484 56.2171V57.2968C45.521 57.3112 45.4949 57.328 45.4703 57.3468L44.4617 58.1062L44.2984 58.2288V56.5296ZM35.4695 56.2163C35.8809 56.3351 36.2976 56.4392 36.7195 56.5288V58.6507L36.1726 58.2937L35.4695 57.8343V56.2163Z" fill="#FFBAB3"/>
<path d="M40.1633 44.7813H40.0625C38.807 44.7282 38.0141 43.6876 37.9274 43.5673L37.7781 43.3618V33.1196C37.7781 32.9124 37.8604 32.7137 38.007 32.5672C38.1535 32.4207 38.3522 32.3384 38.5594 32.3384C38.7666 32.3384 38.9653 32.4207 39.1118 32.5672C39.2583 32.7137 39.3406 32.9124 39.3406 33.1196V42.8126C39.5227 42.9892 39.8195 43.2087 40.1344 43.2196C40.4492 43.2306 40.8063 43.0204 41.1742 42.5946C41.241 42.5159 41.3228 42.4513 41.4147 42.4043C41.5067 42.3574 41.607 42.3292 41.71 42.3213C41.8129 42.3134 41.9164 42.3259 42.0144 42.3583C42.1125 42.3906 42.2031 42.442 42.2812 42.5096C42.3592 42.5772 42.4231 42.6595 42.4691 42.7519C42.5151 42.8443 42.5424 42.9449 42.5493 43.0479C42.5562 43.1509 42.5426 43.2543 42.5094 43.352C42.4761 43.4497 42.4238 43.5399 42.3555 43.6173C41.6867 44.3907 40.9492 44.7813 40.1633 44.7813Z" fill="#F47A8F"/>
<path d="M47.1656 34.4937C47.1656 35.864 48.1437 36.9749 49.3492 36.9749C50.5547 36.9749 51.532 35.864 51.532 34.4937C51.532 33.1233 50.5547 32.0132 49.3492 32.0132C48.1437 32.0132 47.1656 33.1241 47.1656 34.4937ZM28.2469 34.4937C28.2469 35.864 29.2242 36.9749 30.4304 36.9749C31.6367 36.9749 32.6133 35.864 32.6133 34.4937C32.6133 33.1233 31.6359 32.0132 30.4304 32.0132C29.225 32.0132 28.2469 33.1241 28.2469 34.4937ZM32.782 30.121H32.775L28.082 30.053C27.9577 30.0512 27.8392 30 27.7526 29.9108C27.666 29.8215 27.6184 29.7016 27.6203 29.5773C27.6222 29.4529 27.6733 29.3344 27.7626 29.2479C27.8518 29.1613 27.9718 29.1137 28.0961 29.1155L32.7883 29.1827C32.8498 29.1831 32.9107 29.1957 32.9674 29.2196C33.0241 29.2435 33.0756 29.2784 33.1188 29.3222C33.162 29.366 33.1962 29.4179 33.2194 29.475C33.2426 29.532 33.2543 29.593 33.2539 29.6546C33.2535 29.7162 33.2409 29.777 33.217 29.8337C33.1931 29.8905 33.1582 29.9419 33.1144 29.9851C33.0706 30.0284 33.0187 30.0626 32.9616 30.0857C32.9046 30.1089 32.8436 30.1206 32.782 30.1202V30.121ZM51.6804 30.121H51.6719L46.9844 30.053C46.9228 30.0522 46.862 30.0392 46.8055 30.0148C46.7489 29.9904 46.6978 29.9552 46.6548 29.911C46.6119 29.8669 46.5781 29.8147 46.5554 29.7575C46.5326 29.7003 46.5214 29.6392 46.5222 29.5776C46.5231 29.5161 46.5361 29.4553 46.5605 29.3988C46.5848 29.3422 46.6201 29.291 46.6642 29.2481C46.7084 29.2052 46.7605 29.1714 46.8177 29.1487C46.875 29.1259 46.9361 29.1147 46.9976 29.1155L51.6906 29.1827C51.8149 29.1835 51.9338 29.2337 52.0211 29.3222C52.1085 29.4107 52.1571 29.5303 52.1562 29.6546C52.1554 29.7789 52.1052 29.8978 52.0167 29.9851C51.9282 30.0725 51.8087 30.121 51.6844 30.1202L51.6804 30.121Z" fill="#31296B"/>
<path d="M43.1711 49.3586H43.1562L37.375 49.275C37.2724 49.2735 37.1711 49.2518 37.0769 49.2112C36.9827 49.1705 36.8974 49.1118 36.8259 49.0382C36.7544 48.9646 36.6981 48.8776 36.6602 48.7822C36.6223 48.6869 36.6036 48.585 36.6051 48.4824C36.6066 48.3798 36.6282 48.2785 36.6689 48.1843C36.7095 48.0901 36.7683 48.0048 36.8419 47.9333C36.9155 47.8618 37.0025 47.8055 37.0978 47.7676C37.1932 47.7297 37.295 47.711 37.3976 47.7125L43.1789 47.7961C43.3861 47.7975 43.5842 47.8812 43.7297 48.0288C43.8752 48.1763 43.9561 48.3756 43.9547 48.5828C43.9532 48.79 43.8695 48.9881 43.722 49.1336C43.5744 49.2791 43.3752 49.36 43.168 49.3586H43.1711Z" fill="#E83F63"/>
<path d="M43.5133 69.8368L43.0891 70.8524V75.1719C43.0891 75.3377 43.0232 75.4967 42.906 75.6139C42.7888 75.7311 42.6298 75.7969 42.4641 75.7969C42.2983 75.7969 42.1393 75.7311 42.0221 75.6139C41.9049 75.4967 41.8391 75.3377 41.8391 75.1719V70.7251C41.839 70.6422 41.8555 70.5601 41.8875 70.4836L42.5125 68.9852L42.7008 69.4774C42.7411 69.5834 42.8096 69.6764 42.8988 69.7464C42.9879 69.8165 43.0945 69.8609 43.207 69.8751C43.2329 69.8782 43.259 69.8797 43.2851 69.8797C43.3632 69.88 43.4407 69.8655 43.5133 69.8368ZM39.2172 70.7251V75.1719C39.2172 75.3377 39.1513 75.4967 39.0341 75.6139C38.9169 75.7311 38.7579 75.7969 38.5922 75.7969C38.4264 75.7969 38.2674 75.7311 38.1502 75.6139C38.033 75.4967 37.9672 75.3377 37.9672 75.1719V70.85L37.7023 70.218C37.7843 70.1873 37.859 70.1398 37.9214 70.0784C37.9839 70.017 38.0327 69.9432 38.0648 69.8618L38.4734 68.8227L39.1719 70.4844C39.2027 70.5609 39.2181 70.6426 39.2172 70.7251ZM44.3015 59.3665C44.3127 59.4855 44.3583 59.5987 44.4328 59.6922L44.7359 59.4641C44.5914 59.4297 44.4461 59.3969 44.3015 59.3665Z" fill="#31296B"/>
<path d="M50.1476 60.2884C50.1323 60.2011 50.0982 60.1182 50.0476 60.0454C50.0061 59.9822 49.9531 59.9273 49.8913 59.8837L46.2031 57.3321C46.108 57.2664 45.9965 57.2283 45.8811 57.2221C45.7656 57.2159 45.6507 57.2418 45.5492 57.297C45.5218 57.3114 45.4956 57.3282 45.471 57.347L44.4624 58.1064L44.2992 58.229L43.0781 59.1501L40.4757 61.1095L37.6554 59.2657L36.7179 58.654L36.171 58.297L35.4679 57.8376L35.2656 57.7017C35.1643 57.6359 35.0461 57.6009 34.9253 57.6009C34.8046 57.6009 34.6864 57.6359 34.5851 57.7017L30.4374 60.3696C30.3648 60.4165 30.3027 60.4779 30.2551 60.55C30.2074 60.6221 30.1752 60.7033 30.1606 60.7885C30.1459 60.8737 30.149 60.9609 30.1698 61.0448C30.1905 61.1287 30.2285 61.2074 30.2812 61.2759L30.6898 61.8087L36.9843 70.0157C37.0427 70.0918 37.1178 70.1535 37.2038 70.1959C37.2899 70.2383 37.3845 70.2603 37.4804 70.2603C37.5097 70.2601 37.5389 70.258 37.5679 70.254C37.613 70.2474 37.6573 70.2358 37.6999 70.2196C37.7819 70.189 37.8566 70.1414 37.919 70.08C37.9815 70.0187 38.0303 69.9448 38.0624 69.8634L38.471 68.8243L40.4937 63.6876L42.5148 68.9884L42.7031 69.4806C42.7434 69.5866 42.8119 69.6795 42.9011 69.7496C42.9902 69.8196 43.0968 69.8641 43.2093 69.8782C43.2352 69.8813 43.2613 69.8829 43.2874 69.8829C43.3874 69.8825 43.4858 69.8582 43.5745 69.8122C43.6633 69.7661 43.7397 69.6996 43.7976 69.6181L49.657 61.3064L50.0413 60.7595C50.0894 60.6919 50.1236 60.6155 50.1418 60.5346C50.1601 60.4537 50.162 60.37 50.1476 60.2884ZM37.7804 67.1681L37.3054 68.3751L36.5242 67.3595L31.8093 61.2165L31.6859 61.0556L34.9218 58.972L35.4687 59.3306L35.9499 59.6431L36.3234 59.8868L39.7609 62.1329L37.7804 67.1681ZM48.5179 60.7517L44.2867 66.7532L43.4531 67.9353L43.2187 67.3103L41.2328 62.1032L44.4359 59.6907C44.3614 59.5972 44.3158 59.484 44.3046 59.3649C44.4492 59.3954 44.5945 59.4282 44.739 59.4626L45.5515 58.8509L45.864 58.6165L48.6609 60.5525L48.5179 60.7517ZM54.6249 25.7189C54.5787 25.7186 54.5326 25.7134 54.4874 25.7032C48.5406 24.3618 46.6585 19.5712 46.5812 19.3681C46.5221 19.2127 46.5272 19.0402 46.5954 18.8885C46.6635 18.7369 46.7891 18.6185 46.9445 18.5595C47.0999 18.5004 47.2724 18.5055 47.424 18.5737C47.5756 18.6418 47.694 18.7674 47.7531 18.9228C47.7632 18.9493 48.1968 20.0446 49.271 21.2665C50.7093 22.9071 52.5578 23.9853 54.7656 24.4829C54.9172 24.5156 55.0513 24.6034 55.1417 24.7294C55.2322 24.8554 55.2726 25.0105 55.255 25.1646C55.2375 25.3187 55.1633 25.4608 55.0468 25.5632C54.9304 25.6656 54.78 25.7211 54.6249 25.7189ZM26.4874 24.611C26.3329 24.6119 26.1835 24.5554 26.0681 24.4525C25.9527 24.3496 25.8796 24.2077 25.8628 24.054C25.846 23.9003 25.8867 23.7459 25.9771 23.6205C26.0675 23.4951 26.2012 23.4077 26.3523 23.3751C30.4281 22.4696 32.9281 20.679 34.3077 19.336C35.8015 17.8821 36.3437 16.6235 36.3492 16.611C36.414 16.4596 36.5359 16.3399 36.6885 16.2779C36.8411 16.2159 37.012 16.2166 37.164 16.28C37.316 16.3433 37.437 16.464 37.5004 16.616C37.5639 16.768 37.5649 16.9389 37.5031 17.0915C37.4788 17.1501 36.8859 18.5525 35.2374 20.1775C33.7382 21.6532 31.0273 23.6149 26.6257 24.5954C26.5803 24.6057 26.534 24.611 26.4874 24.611Z" fill="#31296B"/>
<path d="M57.982 17.7087C57.9172 17.6259 57.8516 17.5446 57.7844 17.4642C57.5017 17.0111 57.195 16.5735 56.8656 16.1532C54.4203 13.0345 50.6258 10.7767 47.1985 10.3993L47.0906 10.3853C45.9713 10.2406 44.8348 10.4502 43.8406 10.9845C42.55 9.82433 40.6563 9.21261 39.2735 9.06573C37.4438 8.87198 35.2024 9.26339 32.6102 10.2306C29.4508 11.4087 26.4219 13.6095 24.3008 16.2657C23.5719 17.172 22.9459 18.1564 22.4344 19.2009C21.0141 21.4259 20.2469 24.1595 20.2469 27.0368C20.2469 29.9329 21.0281 32.6845 22.4672 34.9181C22.6962 35.2755 22.9434 35.621 23.2078 35.9532C23.3961 36.1876 23.5914 36.4134 23.7914 36.6282V30.6626C23.791 30.3944 23.8799 30.1337 24.044 29.9215C24.208 29.7094 24.438 29.5578 24.6977 29.4907C27.4159 28.7894 30.0642 27.8407 32.6094 26.6564C35.0211 25.5212 37.1352 24.229 38.9141 22.8009C39.2708 22.515 39.6141 22.2238 39.9438 21.9275C40.0367 21.8431 40.1281 21.7595 40.2188 21.6751C40.649 21.2735 41.055 20.8626 41.4367 20.4423C41.4719 20.5603 41.5094 20.6767 41.5492 20.7954C41.7459 21.3799 41.9853 21.9492 42.2656 22.4985C42.6375 23.2296 43.0777 23.9239 43.5805 24.572C44.6059 25.9074 45.886 27.0262 47.3466 27.8636C48.8072 28.7011 50.4194 29.2406 52.0899 29.4509L56.4594 30.0071C56.6716 30.034 56.8668 30.1374 57.0082 30.2979C57.1496 30.4584 57.2275 30.6651 57.2274 30.879V36.7478C57.4878 36.4743 57.7396 36.1834 57.9828 35.8751C58.1839 35.6189 58.3748 35.3543 58.5555 35.0814C60.1016 32.761 60.9438 29.8564 60.9438 26.7915C60.943 23.3673 59.8914 20.1415 57.982 17.7087ZM58.5547 32.461V30.1564C58.5548 29.8354 58.4362 29.5257 58.2218 29.2869C58.0073 29.048 57.7121 28.8969 57.393 28.8626L57.2258 28.8446L52.2469 28.211C50.1674 27.945 48.1991 27.1196 46.5518 25.8228C44.9045 24.5261 43.6399 22.8066 42.893 20.8478C42.6962 20.3344 42.5367 19.8075 42.4156 19.2712C42.4039 19.222 42.393 19.172 42.3828 19.122C42.3649 19.0376 42.3485 18.954 42.332 18.8689C42.3125 18.7611 42.2622 18.6613 42.1872 18.5814C42.1122 18.5016 42.0157 18.4451 41.9093 18.4189C41.803 18.3926 41.6913 18.3977 41.5878 18.4334C41.4843 18.4692 41.3933 18.5341 41.3258 18.6204C41.243 18.7246 41.1591 18.8288 41.0742 18.9329C40.5636 19.5504 40.0143 20.1349 39.4297 20.6829C39.1102 20.9845 38.7828 21.2735 38.4485 21.5532C36.4102 23.2548 34.1352 24.5556 32.1016 25.5134C28.761 27.0876 25.5555 27.9571 23.8016 28.4228C23.6906 28.455 23.5816 28.4936 23.475 28.5384C23.1764 28.6575 22.9203 28.8634 22.74 29.1296C22.5596 29.3957 22.4632 29.7099 22.4633 30.0314V32.186C21.8398 30.6094 21.5117 28.9314 21.4953 27.236V27.0329C21.4953 24.261 22.2766 21.7165 23.5781 19.7353C24.4516 17.9454 25.7531 16.3454 27.2305 15.0095C29.0594 13.3556 31.1586 12.1064 33.0492 11.4017C35.0719 10.647 36.8422 10.2673 38.325 10.2673C38.5985 10.2669 38.8717 10.2807 39.1438 10.3087C39.9675 10.4057 40.7714 10.6286 41.5274 10.9696C41.9761 11.168 42.3992 11.4198 42.7875 11.7196C43.0515 11.9266 43.2878 12.1666 43.4906 12.4337L43.8211 12.4814L43.8266 12.4775C44.0901 12.2729 44.3767 12.0998 44.6805 11.9618C45.2205 11.7173 45.8065 11.591 46.3992 11.5915C46.5776 11.5918 46.7559 11.6032 46.9328 11.6259L47.0461 11.64H47.057C49.0766 11.8603 51.2445 12.8118 53.132 14.2368C54.1603 15.0105 55.0846 15.9135 55.882 16.9235C56.2008 17.3302 56.4963 17.7546 56.7672 18.1946C58.5641 20.3298 59.693 23.3931 59.693 26.7884V27.1009C59.6636 28.9444 59.2771 30.7647 58.5547 32.461Z" fill="#31296B"/>
<path d="M57.982 35.875C57.7398 36.1833 57.488 36.4742 57.2266 36.7477V38.9219C57.2266 48.1406 49.7266 55.6406 40.5078 55.6406C31.2891 55.6406 23.7891 48.1406 23.7891 38.9219V36.6258C23.5891 36.4109 23.3937 36.1859 23.2055 35.9508C22.9397 35.6182 22.6912 35.2722 22.4609 34.9141V38.9219C22.4609 43.7082 24.3623 48.2985 27.7467 51.6829C31.1312 55.0674 35.7215 56.9688 40.5078 56.9688C45.2941 56.9688 49.8844 55.0674 53.2689 51.6829C56.6533 48.2985 58.5547 43.7082 58.5547 38.9219V35.0812C58.3745 35.3542 58.1836 35.6187 57.982 35.875Z" fill="#FFBAB3"/>
</svg>
