<svg width="48" height="48" viewBox="0 0 48 48" fill="none" xmlns="http://www.w3.org/2000/svg">
<g opacity="0.8">
<path d="M43.2868 38.3666C42.3305 38.3666 41.5566 37.5927 41.5566 36.6365V25.3884C41.5566 15.7134 33.6839 7.8407 24.0089 7.8407C14.3339 7.8407 6.46129 15.7134 6.46129 25.3884V36.6365C6.46129 37.5927 5.68738 38.3666 4.73113 38.3666C3.77488 38.3666 3.00098 37.5927 3.00098 36.6365V25.3884C3.00098 13.8041 12.4243 4.38086 24.0085 4.38086C35.5927 4.38086 45.016 13.8041 45.016 25.3884V36.6365C45.0164 37.5927 44.243 38.3666 43.2868 38.3666Z" fill="white"/>
<path d="M10.1016 43.6237C6.18566 43.6237 3.00098 40.4376 3.00098 36.5217V33.8016C3.00098 29.8856 6.18566 26.7009 10.1016 26.7009C14.0175 26.7009 17.2022 29.8856 17.2022 33.8016V36.5217C17.2022 40.4376 14.018 43.6237 10.1016 43.6237ZM10.1016 30.1612C8.09442 30.1612 6.46082 31.7948 6.46082 33.802V36.5222C6.46082 38.5308 8.09442 40.1644 10.1016 40.1644C12.1088 40.1644 13.7424 38.5308 13.7424 36.5222V33.8016C13.7424 31.7948 12.1088 30.1612 10.1016 30.1612Z" fill="white"/>
<path d="M38.1014 43.6232H37.7348C33.9159 43.6232 30.8203 40.5276 30.8203 36.7087V33.6543C30.8203 29.8354 33.9159 26.7397 37.7348 26.7397H38.1014C41.9203 26.7397 45.0159 29.8354 45.0159 33.6543V36.7087C45.0159 40.5271 41.9203 43.6232 38.1014 43.6232Z" fill="url(#paint0_linear)"/>
<path d="M36.083 23.3258C35.2754 23.3258 34.554 22.7582 34.3885 21.9369C34.1452 20.7257 33.6198 19.5754 32.8716 18.6121C31.7448 17.166 30.3629 16.4277 29.4033 16.0625C28.5094 15.7246 28.0604 14.7247 28.3998 13.8327C28.7391 12.9388 29.7446 12.4879 30.6296 12.8291C32.0049 13.3494 33.983 14.4088 35.6016 16.4868C36.6793 17.8719 37.4312 19.521 37.7808 21.2544C37.9683 22.1905 37.3618 23.1027 36.4262 23.2916C36.3113 23.3155 36.1965 23.3258 36.083 23.3258Z" fill="white"/>
</g>
<defs>
<linearGradient id="paint0_linear" x1="30.8203" y1="35.1815" x2="45.0159" y2="35.1815" gradientUnits="userSpaceOnUse">
<stop stop-color="#4CAF50"/>
<stop offset="1" stop-color="#4CAF50" stop-opacity="0.6"/>
</linearGradient>
</defs>
</svg>
