<svg width="40" height="40" viewBox="0 0 40 40" fill="none" xmlns="http://www.w3.org/2000/svg">
<path d="M8.63688 29.6135C11.0978 29.6135 12.7301 28.7472 16.0699 27.14C17.2753 26.5625 18.2044 26.0979 18.9829 25.7589C19.912 29.6135 23.4151 32.4511 27.6715 32.4511C32.631 32.4511 36.5861 28.5714 36.5861 23.7249C36.5861 21.0505 35.2552 18.4137 34.1126 16.2793L29.5548 7.75387C29.1154 6.97541 28.4751 6.58618 27.6715 6.58618C26.8428 6.58618 26.2024 6.97541 25.7881 7.75387L23.4653 12.0856C23.1765 12.048 22.8752 12.0354 22.5738 12.0354C20.0878 12.0354 18.4304 12.9143 15.0906 14.5214C11.7005 16.1537 10.5328 16.7815 8.63688 16.7815C7.40641 16.7815 6.3015 16.4802 5.05848 15.7268C4.48091 15.4004 3.90334 15.6012 3.602 16.0533C3.263 16.568 3.32578 17.3214 4.06657 17.7483C5.37237 18.5393 6.90418 19.029 8.63688 19.029C11.0978 19.029 12.7301 18.1626 16.0699 16.5555C19.2842 15.0111 20.5272 14.3582 22.285 14.2954L21.2178 16.2793C21.0043 16.681 20.7783 17.1079 20.5649 17.5474C18.9829 17.899 17.4636 18.6649 15.0906 19.8074C11.7005 21.4397 10.5328 22.0675 8.63688 22.0675C7.40641 22.0675 6.3015 21.7661 5.05848 21.0254C4.48091 20.6989 3.90334 20.8872 3.602 21.3393C3.263 21.8666 3.31322 22.5948 4.06657 23.0343C5.37237 23.8253 6.90418 24.315 8.63688 24.315C11.0978 24.315 12.7301 23.4486 16.0699 21.854C17.4887 21.1635 18.5183 20.6612 19.3721 20.2971C19.0331 21.3016 18.7945 22.3563 18.7569 23.411C17.7147 23.8253 16.5721 24.3903 15.0906 25.0934C11.7005 26.7257 10.5328 27.366 8.63688 27.366C7.40641 27.366 6.3015 27.0647 5.05848 26.3113C4.46835 25.9723 3.87823 26.1983 3.57689 26.6629C3.263 27.1777 3.33833 27.9059 4.06657 28.3328C5.37237 29.1113 6.90418 29.6135 8.63688 29.6135ZM27.6715 29.9525C24.5325 29.9525 21.946 27.8306 21.3559 24.9679C21.7577 24.8925 22.1469 24.8674 22.5738 24.8674C23.9298 24.8674 25.0599 25.2441 26.2276 25.9472C26.7926 26.2737 27.3827 26.0728 27.684 25.6208C28.023 25.106 27.9477 24.3526 27.2195 23.9257C25.8007 23.0594 24.2437 22.6199 22.5738 22.6199C22.1344 22.6199 21.72 22.6451 21.3182 22.6953C21.4815 21.6531 21.8707 20.6236 22.3604 19.5814C22.4357 19.5814 22.4985 19.5814 22.5738 19.5814C23.9298 19.5814 25.0599 19.9456 26.2276 20.6487C26.8051 20.9877 27.3953 20.7742 27.6966 20.3097C28.023 19.7949 27.9477 19.0541 27.2195 18.6272C26.0643 17.9241 24.8213 17.5097 23.4904 17.3716L24.9218 14.7223C25.3612 14.8856 25.7881 15.099 26.2276 15.3627C26.7926 15.6891 27.3701 15.4882 27.684 15.0488C28.0356 14.534 27.9728 13.7807 27.2195 13.3412C26.8177 13.1026 26.4159 12.8892 25.989 12.7134L27.5459 9.82558C27.6087 9.68747 27.7468 9.70002 27.8096 9.82558L31.8902 17.4595C33.0328 19.594 34.1001 21.6029 34.1001 23.7249C34.1001 27.2028 31.2373 29.9525 27.6715 29.9525Z" fill="#666666"/>
</svg>
