<svg width="58" height="59" viewBox="0 0 58 59" fill="none" xmlns="http://www.w3.org/2000/svg">
<circle cx="29" cy="35" r="24" fill="white"/>
<path opacity="0.59" d="M28.6218 50.0324C28.0871 51.155 27.7722 52.7511 27.6742 54.3337H19.0846C19.1979 52.5897 19.9489 50.8899 21.2585 49.3918C22.2151 50.068 23.8815 51.0185 25.69 51.0185C26.0243 51.0199 26.3578 50.9868 26.6852 50.9199C27.3853 50.7711 28.0417 50.4631 28.6036 50.0199L28.6218 50.0324ZM41.3942 54.3337H33.1394C33.0414 52.7528 32.7271 51.155 32.1913 50.0324L32.2133 50.0165C32.7791 50.4665 33.4429 50.777 34.151 50.9228C34.4631 50.9857 34.7808 51.0172 35.0992 51.0168C36.8165 51.0168 38.3979 50.136 39.3523 49.466C40.5157 50.8661 41.2832 52.5268 41.3942 54.3337ZM44.1515 21.8916C44.1515 22.5539 44.0897 23.2147 43.9668 23.8655C43.938 24.0179 43.9057 24.1703 43.87 24.3187C43.8638 24.1663 43.8553 24.0139 43.8434 23.8655C43.8145 23.4934 43.7052 22.9593 43.7052 22.9593H40.2218L37.6729 21.0596C37.6086 21.0116 37.5327 20.9816 37.4531 20.9727C37.3734 20.9637 37.2927 20.976 37.2193 21.0083C37.146 21.0407 37.0825 21.092 37.0354 21.1569C36.9883 21.2218 36.9593 21.2981 36.9513 21.3779L36.7656 23.2193C36.6715 23.2346 36.5764 23.2527 36.4789 23.2759L35.8044 20.2082C35.7823 20.1073 35.7264 20.017 35.6459 19.9522C35.5655 19.8874 35.4653 19.852 35.362 19.852H35.3569C35.2528 19.8531 35.1523 19.8901 35.0723 19.9566C34.9922 20.0231 34.9375 20.1152 34.9174 20.2173L34.3073 23.3065H24.7917C24.019 23.1086 23.2088 23.1086 22.436 23.3065H17.4517V23.1598C17.4037 23.5064 17.371 23.8574 17.3537 24.2127C17.3486 24.3119 17.3452 24.4115 17.3429 24.5112C17.318 24.4121 17.2942 24.313 17.2721 24.2127C16.8167 22.182 16.9685 20.0622 17.7088 18.1171C17.7864 17.7302 17.8821 17.3473 17.9948 16.9712C18.0175 16.8942 18.0407 16.8177 18.0651 16.7413C18.086 16.675 18.1076 16.6087 18.1297 16.543C18.1572 16.4588 18.1861 16.3749 18.2163 16.2915C18.2173 16.2878 18.2186 16.2842 18.2203 16.2808C18.2458 16.2071 18.273 16.1341 18.3007 16.061C18.3285 15.9879 18.3517 15.9268 18.3783 15.8605C18.4049 15.7942 18.4321 15.7274 18.4599 15.6611C18.4644 15.6492 18.4695 15.6373 18.4746 15.6254L18.4831 15.6051C18.512 15.5354 18.5397 15.4663 18.5726 15.3978C18.6054 15.3292 18.6292 15.2754 18.6558 15.2142L18.683 15.1548C18.7131 15.0913 18.7431 15.0279 18.7742 14.965C18.8054 14.9021 18.8348 14.8421 18.866 14.7809C18.8773 14.7577 18.8898 14.7339 18.9017 14.7107C18.9311 14.6541 18.9611 14.5974 18.9917 14.5408C19.0291 14.4705 19.0676 14.4003 19.105 14.3306C19.1367 14.274 19.1696 14.2174 19.2036 14.1607C19.2032 14.1596 19.2032 14.1584 19.2036 14.1573C19.2177 14.1324 19.2324 14.1075 19.2472 14.0826C19.2789 14.0259 19.3117 13.9732 19.3446 13.9194C19.391 13.843 19.4381 13.7671 19.4868 13.6929C19.5236 13.6362 19.5615 13.5756 19.6 13.5179C19.6618 13.425 19.7241 13.3326 19.7881 13.2409C19.8113 13.2075 19.8351 13.1735 19.8595 13.1401C19.9059 13.0744 19.9535 13.0092 20.0011 12.9441C20.0277 12.9084 20.0537 12.8733 20.0809 12.8376L20.0894 12.8263C20.1211 12.7844 20.1529 12.7424 20.1857 12.7011C20.1866 12.6994 20.1877 12.6979 20.1891 12.6966C20.2225 12.6529 20.2565 12.6099 20.2911 12.5669L20.3839 12.4536C20.4236 12.4043 20.4644 12.3556 20.5052 12.3069C20.5692 12.2298 20.6337 12.1539 20.7 12.0803C20.7663 12.0067 20.8427 11.9178 20.9158 11.8385C21.0091 11.7365 21.1035 11.6361 21.199 11.5371C21.4207 11.3106 21.6499 11.0931 21.8866 10.8846C22.0622 10.7294 22.2421 10.5795 22.4264 10.4349C22.5873 10.3075 22.7515 10.1851 22.918 10.0662H22.9209C25.1453 8.45774 27.8223 7.59574 30.5674 7.604C31.7393 7.604 34.8454 7.85605 38.3894 10.1891C38.5865 10.336 38.7786 10.487 38.9655 10.6422C39.0852 10.7415 39.2022 10.8421 39.3166 10.9441C39.3512 10.9747 39.3852 11.0053 39.4186 11.0364C39.4475 11.0619 39.4752 11.088 39.5047 11.1146L39.5075 11.1174C39.554 11.1599 39.5993 11.2029 39.6446 11.2466L39.7103 11.3094C39.7562 11.3542 39.8021 11.3989 39.8468 11.4437C40.1651 11.7671 40.4664 12.1001 40.7395 12.4321L40.744 12.4371C40.9547 12.6943 41.1544 12.9586 41.3432 13.2301C41.3925 13.3009 41.4418 13.3729 41.4894 13.4448L41.5211 13.4912C41.5534 13.5399 41.5857 13.5892 41.6168 13.6385C41.648 13.6878 41.6735 13.7246 41.6989 13.7676C41.7244 13.8107 41.7454 13.8418 41.7681 13.8809C41.8043 13.9376 41.8394 13.9987 41.8745 14.0582C41.8989 14.0979 41.9221 14.1375 41.9448 14.1777L41.9805 14.24C42.0269 14.321 42.0722 14.4031 42.1164 14.4853C42.1419 14.5317 42.1668 14.5782 42.1912 14.6252C42.2478 14.7317 42.3044 14.8393 42.3549 14.948C42.3684 14.9758 42.382 15.0047 42.3951 15.0319C42.4245 15.0885 42.4517 15.1519 42.4806 15.212V15.2165C42.5117 15.285 42.5429 15.3536 42.5729 15.4227C42.5774 15.4323 42.582 15.4419 42.5859 15.4521C42.6058 15.4963 42.6245 15.5405 42.6426 15.5852C42.6545 15.6119 42.6658 15.639 42.6771 15.6662C42.7083 15.741 42.7383 15.8163 42.7678 15.8928C42.7831 15.9313 42.7978 15.9693 42.8125 16.0061C42.842 16.0831 42.8691 16.1601 42.8986 16.2377C42.9128 16.2768 42.9264 16.3153 42.9399 16.3544C42.9966 16.5102 43.047 16.6676 43.0951 16.8262C43.1195 16.9044 43.1433 16.9831 43.1659 17.0624C43.2619 17.3883 43.344 17.7176 43.4123 18.0502C43.8945 19.2738 44.1452 20.5764 44.1515 21.8916ZM20.5799 8.32617C19.8672 8.33439 19.1775 8.58003 18.6201 9.02423C18.0627 9.46842 17.6692 10.0858 17.5021 10.7787C17.4602 10.9546 17.4329 11.1336 17.4205 11.314C17.3006 11.3616 17.1837 11.4164 17.0705 11.4782C16.6643 11.7006 16.3111 12.0082 16.0351 12.3799C15.6245 12.9332 15.4025 13.6037 15.4018 14.2927C15.4015 14.602 15.4458 14.9097 15.5332 15.2063C14.5805 15.095 13.6799 14.7122 12.9385 14.1035C11.9604 13.3043 11.5067 12.3335 11.5888 11.2148C11.6653 10.1851 12.1971 9.03871 13.1283 7.89967C14.0595 6.76063 15.0762 6.01014 16.0696 5.73033C16.3549 5.64946 16.6499 5.6081 16.9464 5.60742C17.7133 5.60742 18.4576 5.89912 19.1673 6.47912C19.7766 6.97543 20.2605 7.60818 20.5799 8.32617ZM48.374 14.1035C47.66 14.6905 46.7974 15.0685 45.8819 15.1955C45.9636 14.9075 46.0049 14.6096 46.0048 14.3103C46.0068 13.7616 45.8659 13.2218 45.5958 12.7441C45.3102 12.2335 44.8903 11.8108 44.3815 11.5218C44.2558 11.4501 44.1254 11.3871 43.9912 11.3332C43.9355 10.5212 43.5737 9.76068 42.9788 9.20523C42.3839 8.64978 41.6004 8.34086 40.7865 8.3409H40.7298C41.0493 7.61695 41.5358 6.97895 42.1492 6.47912C42.8556 5.89855 43.5992 5.60742 44.3662 5.60742C44.6627 5.60862 44.9578 5.65055 45.243 5.73203C46.237 6.01184 47.2543 6.76232 48.1849 7.90137C49.1155 9.04041 49.6479 10.1868 49.7238 11.2165C49.8065 12.3324 49.3522 13.3032 48.374 14.1035Z" fill="#2D7F90"/>
<path d="M48.4662 14.3228C47.4715 15.1409 46.2364 15.611 44.9494 15.6612C45.1504 15.3721 45.3022 15.0517 45.3986 14.713C46.3142 14.586 47.1767 14.208 47.8907 13.621C48.8689 12.8218 49.3232 11.851 49.2405 10.7323C49.164 9.70485 48.6339 8.55845 47.7033 7.41997C46.7727 6.28149 45.7554 5.53044 44.7614 5.25064C44.4762 5.16915 44.1812 5.12723 43.8846 5.12603C43.1176 5.12603 42.374 5.41773 41.6637 5.99773C41.0502 6.49755 40.5638 7.13555 40.2443 7.8595C39.8881 7.86617 39.5355 7.93201 39.2009 8.05435C39.5522 6.97218 40.2083 6.01439 41.0905 5.29595C42.2935 4.31323 43.6478 3.99605 45.0072 4.37837C46.1808 4.70915 47.3561 5.56216 48.4056 6.84677C49.4552 8.13138 50.0567 9.45224 50.1467 10.6683C50.2498 12.0758 49.6693 13.3395 48.4662 14.3228ZM21.1309 7.99997C20.8098 7.89573 20.4744 7.8426 20.1368 7.84251H20.0983C19.7788 7.12492 19.2948 6.49258 18.6857 5.99659C17.976 5.41659 17.2317 5.12489 16.4648 5.12489C16.1682 5.12613 15.8732 5.16806 15.588 5.2495C14.5946 5.52931 13.5773 6.2798 12.6467 7.41884C11.7161 8.55788 11.1837 9.70429 11.1072 10.734C11.0251 11.8504 11.4788 12.8212 12.4569 13.6227C13.1978 14.2315 14.0981 14.6147 15.0505 14.7266C15.1498 15.0627 15.304 15.38 15.507 15.6657C14.1823 15.6382 12.9054 15.1656 11.882 14.3239C10.7708 13.4176 10.1902 12.2684 10.1902 10.9889C10.1902 10.883 10.1941 10.7765 10.2021 10.6689C10.2916 9.4528 10.8937 8.13138 11.9432 6.84733C12.9928 5.56329 14.1669 4.70972 15.3416 4.37894C16.701 3.99661 18.0553 4.3138 19.2583 5.29651C20.1259 6.00223 20.7752 6.93972 21.1309 7.99997ZM41.8325 54.3054C41.8325 54.4256 41.7847 54.5408 41.6998 54.6258C41.6148 54.7108 41.4995 54.7585 41.3793 54.7585H18.1357C18.0156 54.7585 17.9003 54.7108 17.8153 54.6258C17.7303 54.5408 17.6826 54.4256 17.6826 54.3054C17.6826 52.8894 18.057 51.4943 18.795 50.1621C19.1533 49.5181 19.5774 48.913 20.0604 48.3564C20.1975 48.4737 20.4444 48.6753 20.7769 48.9104C19.4674 50.4102 18.7146 52.1094 18.603 53.8523H40.9126C40.7993 52.0454 40.0341 50.3847 38.8707 48.9863C39.1908 48.7597 39.4405 48.5609 39.6008 48.4244C40.0464 48.9658 40.4372 49.5499 40.7676 50.1684C41.4745 51.4966 41.8325 52.8882 41.8325 54.3054Z" fill="#31296B"/>
<path d="M45.8188 30.8482C45.1896 31.7652 44.3145 32.4381 43.355 32.7439C43.2598 32.774 43.1647 32.8006 43.0718 32.8227C43.1518 32.4919 43.2173 32.1558 43.2683 31.8145C43.9639 31.5449 44.5994 31.0255 45.0735 30.335C45.5895 29.5834 45.8472 28.7264 45.7996 27.9216C45.7543 27.1592 45.4371 26.539 44.9058 26.1742C44.5703 25.9474 44.1734 25.8288 43.7685 25.8344H43.7016C43.8232 25.5391 43.9325 25.2396 44.0296 24.936C44.5275 24.974 45.0067 25.1424 45.419 25.4243C46.1853 25.9505 46.6418 26.8171 46.7041 27.8649C46.7619 28.8726 46.4481 29.9312 45.8188 30.8482Z" fill="#FFBAB3"/>
<path d="M45.1628 28.1974C45.145 28.2383 45.1193 28.2753 45.0871 28.3062C45.055 28.3372 45.017 28.3615 44.9755 28.3778C44.9339 28.3942 44.8896 28.4021 44.8449 28.4013C44.8003 28.4004 44.7563 28.3908 44.7154 28.3729C44.5528 28.3021 44.1541 28.3792 43.7938 28.6278C43.6426 28.7338 43.5088 28.8628 43.3974 29.0102V28.0756L43.4076 28.0682C43.9507 27.6933 44.5709 27.5687 44.9873 27.7499C45.0282 27.7677 45.0652 27.7935 45.0961 27.8256C45.1271 27.8578 45.1514 27.8957 45.1677 27.9373C45.184 27.9788 45.192 28.0232 45.1912 28.0678C45.1903 28.1124 45.1807 28.1565 45.1628 28.1974ZM17.1903 32.8226C17.0949 32.8001 17.0004 32.7738 16.9071 32.7439C15.9482 32.438 15.0731 31.7652 14.4432 30.8481C13.8134 29.9311 13.5002 28.8725 13.5596 27.8677C13.6219 26.8199 14.0785 25.9533 14.8454 25.4271C15.2431 25.1547 15.7038 24.9882 16.1838 24.9434C16.2801 25.2454 16.3886 25.543 16.5095 25.836H16.4953C16.0904 25.8305 15.6935 25.9491 15.358 26.1759C14.8273 26.5406 14.5084 27.1608 14.4642 27.9232C14.4166 28.7281 14.6743 29.5851 15.1903 30.3367C15.6644 31.0266 16.2993 31.546 16.9949 31.8156C17.0459 32.1562 17.111 32.4919 17.1903 32.8226Z" fill="#FFBAB3"/>
<path d="M16.8637 28.0756V29.0102C16.7525 28.8626 16.6187 28.7335 16.4672 28.6278C16.1075 28.3792 15.7082 28.3022 15.5457 28.373C15.463 28.409 15.3695 28.4108 15.2856 28.3778C15.2016 28.3449 15.1342 28.28 15.0982 28.1974C15.0621 28.1147 15.0604 28.0212 15.0933 27.9373C15.1262 27.8534 15.1912 27.786 15.2738 27.7499C15.6901 27.5687 16.3103 27.6933 16.8535 28.0682L16.8637 28.0756ZM32.821 41.8081V43.9876L32.6404 44.0924L31.9148 44.5138V41.8676C32.2201 41.8574 32.522 41.8393 32.821 41.8081ZM27.5331 41.8172V44.4255L26.9825 44.1383L26.6676 43.974L26.6268 43.9554V41.6937C26.9251 41.7462 27.2272 41.7873 27.5331 41.8172Z" fill="#FFBAB3"/>
<path d="M42.4911 28.0699V30.0557C42.4911 30.4099 42.4743 30.7598 42.4407 31.1053C42.4113 31.4111 42.3694 31.7132 42.315 32.0115C42.2599 32.3181 42.1917 32.6202 42.1105 32.9178C40.9556 37.1658 37.2961 40.3887 32.8215 40.8973C32.5231 40.9313 32.2211 40.953 31.9152 40.9624C31.8042 40.9658 31.6926 40.9675 31.5805 40.9675H28.681C28.2975 40.9676 27.9143 40.9475 27.5329 40.9075C27.2271 40.875 26.925 40.8305 26.6267 40.7738C24.6214 40.3853 22.7649 39.4434 21.267 38.0548C19.769 36.6662 18.6895 34.8862 18.1504 32.9161C18.0692 32.6193 18.0009 32.3172 17.9454 32.0098C17.8887 31.7119 17.8491 31.4089 17.8202 31.1036C17.7866 30.7588 17.7698 30.4092 17.7698 30.0546V28.1458C17.4311 27.6586 17.1283 27.1475 16.8635 26.6165V30.0546C16.8636 30.6423 16.9071 31.2292 16.9938 31.8104C17.0455 32.1503 17.111 32.4865 17.1903 32.8192C18.2818 37.3505 21.9935 40.8752 26.6267 41.6903C26.925 41.7428 27.2271 41.7839 27.5329 41.8138C27.9105 41.8515 28.2932 41.8704 28.681 41.8704H31.5799C31.6932 41.8704 31.8048 41.8687 31.9146 41.8653C32.2199 41.8574 32.5218 41.837 32.8209 41.8087C37.8291 41.2836 41.9157 37.6172 43.07 32.8232C43.1501 32.4924 43.2156 32.1563 43.2666 31.815C43.3538 31.2328 43.3975 30.645 43.3974 30.0563V26.5117C43.134 27.0527 42.8311 27.5735 42.4911 28.0699Z" fill="#FFBAB3"/>
<path opacity="0.4" d="M24.6828 32.8011C24.6823 33.2934 24.5358 33.7744 24.2619 34.1834C23.988 34.5924 23.5991 34.911 23.1441 35.099C22.6892 35.287 22.1888 35.3359 21.7061 35.2395C21.2234 35.1431 20.7801 34.9058 20.4322 34.5576C20.0844 34.2093 19.8476 33.7657 19.7517 33.2829C19.6559 32.8001 19.7054 32.2997 19.8939 31.845C20.0824 31.3903 20.4014 31.0017 20.8107 30.7283C21.2201 30.4549 21.7012 30.309 22.1935 30.309C22.8539 30.3097 23.4871 30.5726 23.9539 31.0399C24.4206 31.5072 24.6828 32.1407 24.6828 32.8011ZM40.5546 32.8011C40.5546 33.2942 40.4084 33.7761 40.1344 34.186C39.8605 34.5959 39.4711 34.9154 39.0155 35.1039C38.56 35.2924 38.0587 35.3416 37.5752 35.2452C37.0917 35.1488 36.6476 34.9112 36.2992 34.5624C35.9508 34.2136 35.7137 33.7692 35.6178 33.2856C35.522 32.802 35.5717 32.3008 35.7608 31.8455C35.9499 31.3901 36.2697 31.0011 36.6799 30.7276C37.0901 30.4541 37.5723 30.3084 38.0653 30.309C38.7258 30.3097 39.3589 30.5726 39.8257 31.0399C40.2925 31.5072 40.5546 32.1407 40.5546 32.8011Z" fill="#F47A8F"/>
<path d="M30.2326 33.4179H30.1698C29.3332 33.3822 28.807 32.6907 28.7498 32.6119L28.6416 32.463V25.87C28.6416 25.7198 28.7013 25.5757 28.8075 25.4695C28.9137 25.3633 29.0578 25.3036 29.208 25.3036C29.3582 25.3036 29.5023 25.3633 29.6085 25.4695C29.7147 25.5757 29.7744 25.7198 29.7744 25.87V32.0614C29.8832 32.1628 30.0491 32.2795 30.2213 32.2879C30.4507 32.297 30.6835 32.0863 30.8364 31.9096C30.9352 31.7977 31.0742 31.7293 31.2231 31.7193C31.3721 31.7093 31.5189 31.7585 31.6318 31.8562C31.7446 31.9539 31.8143 32.0922 31.8258 32.2411C31.8372 32.3899 31.7894 32.5372 31.6928 32.651C31.1491 33.2763 30.6093 33.4179 30.2326 33.4179Z" fill="#F47A8F"/>
<path d="M35.2152 27.1722C35.2152 28.1317 35.9 28.9094 36.7445 28.9094C37.589 28.9094 38.2738 28.1317 38.2738 27.1722C38.2738 26.2127 37.5896 25.4356 36.7445 25.4356C35.8994 25.4356 35.2152 26.2133 35.2152 27.1722ZM21.9704 27.1722C21.9704 28.1317 22.6546 28.9094 23.4997 28.9094C24.3448 28.9094 25.029 28.1317 25.029 27.1722C25.029 26.2127 24.3448 25.4356 23.4997 25.4356C22.6546 25.4356 21.9704 26.2133 21.9704 27.1722ZM25.3496 23.6486C25.3314 23.6794 25.3083 23.707 25.281 23.7302C25.2191 23.7839 25.1399 23.8135 25.0579 23.8134C24.9968 23.8135 24.9368 23.7969 24.8845 23.7653C24.8777 23.7613 24.8557 23.7488 24.8194 23.7302C24.5073 23.5699 23.1434 22.9712 21.4023 23.7302C21.3197 23.766 21.2263 23.7677 21.1425 23.7348C21.0587 23.7019 20.9914 23.6371 20.9554 23.5546C20.9375 23.5137 20.9279 23.4696 20.9271 23.425C20.9262 23.3804 20.9342 23.336 20.9505 23.2945C20.9668 23.2529 20.9911 23.215 21.0221 23.1828C21.0531 23.1507 21.0901 23.125 21.131 23.1071C21.3982 22.9901 21.6746 22.8954 21.9574 22.8239C22.7301 22.626 23.5403 22.626 24.313 22.8239C24.6343 22.9021 24.9438 23.0225 25.2335 23.1819C25.2717 23.2049 25.3051 23.2352 25.3317 23.2711C25.3583 23.307 25.3775 23.3478 25.3883 23.3912C25.399 23.4345 25.4012 23.4796 25.3945 23.5237C25.3879 23.5679 25.3726 23.6103 25.3496 23.6486ZM39.2605 23.6486C39.2302 23.699 39.1874 23.7407 39.1361 23.7696C39.0849 23.7985 39.0271 23.8136 38.9682 23.8134C38.9072 23.8135 38.8472 23.7969 38.7949 23.7653C38.753 23.7409 38.1118 23.3733 37.132 23.3558C36.5494 23.3469 35.9712 23.4572 35.4327 23.6797C35.3931 23.6956 35.3523 23.7126 35.3121 23.7302C35.2298 23.7641 35.1376 23.7644 35.0551 23.731C34.9726 23.6976 34.9065 23.6332 34.871 23.5516C34.8355 23.4701 34.8334 23.3778 34.8651 23.2947C34.8968 23.2116 34.9599 23.1442 35.0408 23.1071L35.1303 23.0692C35.4108 22.9521 35.7009 22.8596 35.9974 22.7928C36.0949 22.7712 36.19 22.7531 36.284 22.7361C36.587 22.6865 36.8942 22.6664 37.201 22.6761C38.3435 22.7123 39.0957 23.1519 39.1433 23.1802C39.1819 23.2031 39.2156 23.2334 39.2424 23.2694C39.2692 23.3054 39.2886 23.3464 39.2995 23.3899C39.3104 23.4335 39.3126 23.4788 39.3059 23.5232C39.2992 23.5676 39.2838 23.6102 39.2605 23.6486Z" fill="#31296B"/>
<path d="M30.4257 37.3732C28.6964 37.3732 27.5444 36.6997 27.4741 36.6578C27.4102 36.6197 27.3543 36.5693 27.3098 36.5095C27.2653 36.4498 27.2331 36.3819 27.2148 36.3097C27.1965 36.2375 27.1927 36.1624 27.2035 36.0887C27.2142 36.015 27.2394 35.9441 27.2776 35.8801C27.3157 35.8162 27.3661 35.7603 27.4259 35.7158C27.4856 35.6714 27.5535 35.6391 27.6257 35.6208C27.6979 35.6026 27.773 35.5987 27.8467 35.6095C27.9204 35.6203 27.9913 35.6454 28.0553 35.6836C28.1431 35.7351 30.151 36.881 32.7961 35.7278C32.8643 35.6976 32.9379 35.6811 33.0125 35.6794C33.0871 35.6777 33.1613 35.6908 33.2309 35.7179C33.3004 35.7449 33.3639 35.7855 33.4177 35.8372C33.4716 35.8889 33.5146 35.9507 33.5445 36.0191C33.5744 36.0875 33.5904 36.1612 33.5917 36.2358C33.593 36.3104 33.5796 36.3845 33.5521 36.4539C33.5247 36.5234 33.4838 36.5867 33.4318 36.6402C33.3798 36.6938 33.3178 36.7365 33.2492 36.766C32.3603 37.1618 31.3988 37.3686 30.4257 37.3732Z" fill="#E83F63"/>
<path d="M37.8479 26.4721C37.7577 26.4742 37.6705 26.4403 37.6053 26.378C37.5402 26.3157 37.5024 26.2301 37.5004 26.1399C37.4984 26.0498 37.5322 25.9626 37.5945 25.8974C37.6568 25.8322 37.7425 25.7945 37.8326 25.7924C37.8439 25.7924 38.6012 25.7358 38.6754 25.345C38.6832 25.3007 38.6997 25.2584 38.724 25.2205C38.7483 25.1826 38.7799 25.1499 38.8169 25.1244C38.8539 25.0988 38.8956 25.0808 38.9396 25.0715C38.9836 25.0621 39.029 25.0616 39.0733 25.07C39.1175 25.0784 39.1596 25.0954 39.1971 25.1202C39.2347 25.1449 39.267 25.1769 39.2921 25.2142C39.3172 25.2516 39.3346 25.2935 39.3434 25.3376C39.3522 25.3818 39.3521 25.4272 39.3432 25.4713C39.2016 26.2184 38.3458 26.4517 37.862 26.4716L37.8479 26.4721ZM22.4139 26.4721H22.3992C21.9154 26.4523 21.0596 26.2189 20.918 25.4719C20.9012 25.3832 20.9204 25.2916 20.9712 25.2171C21.022 25.1425 21.1004 25.0913 21.189 25.0745C21.2777 25.0578 21.3693 25.0769 21.4438 25.1277C21.5183 25.1786 21.5696 25.2569 21.5864 25.3456C21.6606 25.7392 22.4207 25.793 22.4286 25.793C22.5187 25.795 22.6044 25.8326 22.6668 25.8978C22.7291 25.9629 22.763 26.0501 22.7611 26.1402C22.7591 26.2303 22.7215 26.316 22.6563 26.3784C22.5912 26.4407 22.504 26.4747 22.4139 26.4727V26.4721ZM38.9484 10.5431C38.9773 10.5686 39.005 10.5946 39.0345 10.6213C39.0062 10.5952 38.9773 10.5691 38.9484 10.5431ZM42.7071 14.0667C42.7541 14.1624 42.7994 14.2587 42.8442 14.3556C42.7988 14.2587 42.7535 14.1602 42.7071 14.0667ZM42.9744 14.6473C43.059 14.8432 43.1391 15.0411 43.2146 15.2409C43.1406 15.0411 43.0601 14.8432 42.9733 14.6473H42.9744ZM43.3245 15.5422C43.3596 15.6438 43.3939 15.7453 43.4275 15.8469C43.3936 15.7461 43.3596 15.643 43.3233 15.5422H43.3245ZM16.8756 15.5337C16.8603 15.5767 16.8455 15.6198 16.8308 15.6634C16.8455 15.6198 16.8608 15.5767 16.8761 15.5337C16.8914 15.4906 16.9016 15.4618 16.9146 15.4255L16.8756 15.5337ZM17.9834 15.1797C17.9563 15.2454 17.9268 15.3122 17.9025 15.3791C17.9291 15.3122 17.9563 15.246 17.984 15.1797C17.9885 15.1678 17.9936 15.1559 17.9987 15.144L17.9834 15.1797Z" fill="#31296B"/>
<path d="M43.8132 17.2697C43.7755 17.0903 43.733 16.9113 43.6858 16.7327C43.6503 16.5941 43.6125 16.4563 43.5725 16.3192C43.5272 16.1612 43.479 16.0038 43.4281 15.848C43.3948 15.746 43.3605 15.6445 43.325 15.5433C43.3193 15.528 43.3136 15.5127 43.3085 15.4968C43.2783 15.4119 43.2474 15.3271 43.2157 15.2425C43.1401 15.0428 43.0601 14.8449 42.9755 14.6489C42.9398 14.5674 42.9041 14.4864 42.8673 14.4054C42.8605 14.3895 42.8532 14.3736 42.8458 14.3578C42.801 14.2609 42.7557 14.1646 42.7087 14.0689C42.6855 14.0208 42.6617 13.9732 42.6379 13.9256C42.6141 13.878 42.5898 13.8305 42.5654 13.7834L42.4929 13.6503C42.4901 13.6452 42.4873 13.6401 42.485 13.635L42.4125 13.5014C42.3887 13.4572 42.3643 13.4136 42.3394 13.37C42.1978 13.1181 42.0483 12.8706 41.8908 12.6274C41.8653 12.5878 41.8398 12.5487 41.8138 12.5096C41.7815 12.4603 41.7487 12.4116 41.7158 12.3635C41.683 12.3153 41.6495 12.2666 41.6156 12.2185C41.5816 12.1703 41.5482 12.1222 41.5136 12.0746C41.479 12.027 41.4445 11.9789 41.4094 11.9313C41.3743 11.8837 41.3391 11.8367 41.3035 11.7897C41.2678 11.7427 41.2321 11.6957 41.1958 11.6492L41.1013 11.5286C41.0593 11.4759 41.0169 11.4232 40.9744 11.3711C40.8471 11.2171 40.715 11.0634 40.5779 10.9101C40.5354 10.8631 40.4929 10.8155 40.4493 10.7685C40.4057 10.7215 40.3785 10.6909 40.3417 10.6518C40.2958 10.6019 40.2482 10.5515 40.2007 10.5017C40.1414 10.4394 40.0812 10.3771 40.02 10.3148C39.9707 10.2655 39.9214 10.2168 39.871 10.1686C39.8552 10.1528 39.8393 10.1375 39.8234 10.1228L39.7306 10.0344L39.6286 9.93925C39.572 9.88884 39.5187 9.83899 39.4632 9.78915C39.4077 9.7393 39.3352 9.67587 39.2706 9.61923C39.2679 9.61629 39.2648 9.61363 39.2616 9.6113C39.21 9.56712 39.1585 9.52294 39.1064 9.47989C39.0877 9.46346 39.069 9.44817 39.0497 9.43345C39.0124 9.40173 38.9744 9.37057 38.9365 9.34055C38.9138 9.3213 38.8906 9.30261 38.8674 9.28391C38.7314 9.17479 38.593 9.06774 38.4522 8.96276C38.4454 8.95766 38.4386 8.95257 38.4312 8.94803C38.3202 8.87478 38.2096 8.80341 38.0993 8.73393C34.4822 6.45698 31.3149 6.2038 30.0971 6.2038C27.2915 6.19545 24.5491 7.03729 22.2314 8.61839C22.128 8.68787 22.0241 8.76037 21.9199 8.83589C21.7432 8.96163 21.5697 9.09171 21.3994 9.22614L21.392 9.2318L21.2402 9.35245L21.2091 9.37794C21.0992 9.46781 20.9904 9.55956 20.8828 9.65321C20.8296 9.69909 20.7769 9.74553 20.7248 9.79311L20.697 9.81803C20.6546 9.85598 20.6121 9.89507 20.5702 9.93132L20.5294 9.9687C20.4875 10.0078 20.4461 10.0469 20.4053 10.0865C20.3742 10.116 20.3425 10.1465 20.3113 10.1771L20.2207 10.2729C20.1329 10.3601 20.0457 10.449 19.9601 10.5391C19.9335 10.5668 19.9069 10.5957 19.8808 10.6229C19.8548 10.6501 19.8287 10.6795 19.8038 10.7056L19.7262 10.7906C19.7126 10.8053 19.699 10.82 19.6866 10.8347C19.6577 10.8659 19.6299 10.897 19.6022 10.9288C19.5127 11.0296 19.4249 11.1317 19.3388 11.2352C19.1957 11.4062 19.0569 11.5799 18.9225 11.7563C18.8925 11.7954 18.863 11.835 18.8336 11.8747C18.8041 11.9143 18.7769 11.9534 18.7458 11.993L18.7265 12.0197L18.6427 12.1369C18.58 12.2245 18.5187 12.3131 18.4586 12.4025C18.3415 12.5752 18.2286 12.7507 18.1199 12.9287C18.0836 12.9854 18.0485 13.0449 18.0145 13.1032C17.9913 13.1423 17.9681 13.1814 17.9454 13.221C17.9131 13.2776 17.882 13.3309 17.8514 13.3858C17.8303 13.4236 17.8099 13.4604 17.7902 13.4963C17.6147 13.8157 17.4521 14.1414 17.3026 14.4733L17.2839 14.5141C17.2646 14.5577 17.2454 14.6008 17.2272 14.6444L17.2216 14.658C17.2012 14.7056 17.1808 14.7526 17.161 14.8001C17.1411 14.8477 17.1224 14.893 17.1043 14.9395C17.0386 15.1 16.9763 15.2618 16.9174 15.4249C16.9044 15.4611 16.8914 15.4968 16.8789 15.5331C16.8664 15.5693 16.8483 15.6192 16.8336 15.6628L16.82 15.7024C16.7611 15.8765 16.7044 16.0519 16.6501 16.2286C16.6123 16.3521 16.5772 16.4758 16.5447 16.5996C16.4786 16.8454 16.4195 17.0931 16.3674 17.3427C15.4558 19.7838 15.3908 22.4603 16.1828 24.9428C16.2791 25.2449 16.3876 25.5424 16.5085 25.8354C16.6172 26.0998 16.7356 26.3603 16.8636 26.6171C17.1283 27.1481 17.4312 27.6592 17.7698 28.1464V24.3084C17.7698 24.1147 17.7749 23.9216 17.7851 23.7301H34.199C34.304 23.7301 34.4057 23.6937 34.4868 23.6271C34.5679 23.5605 34.6233 23.4677 34.6437 23.3648L34.9048 22.0411L35.1313 23.0691L35.1987 23.3744C35.2209 23.4752 35.2769 23.5654 35.3573 23.6301C35.4378 23.6948 35.5379 23.7301 35.6411 23.7301H36.6861C36.7927 23.7301 36.8958 23.6926 36.9774 23.6241C37.059 23.5557 37.1139 23.4606 37.1325 23.3557C37.1325 23.3449 37.1358 23.3342 37.137 23.3229L37.2021 22.6777L37.2927 21.7828L39.3193 23.294C39.3975 23.3524 39.4925 23.3839 39.5901 23.384H42.4533C42.4789 23.6888 42.4918 23.9969 42.4918 24.3084V28.0699C42.8318 27.5735 43.1347 27.0527 43.398 26.5117C43.5064 26.2897 43.6072 26.0648 43.7005 25.8371C43.8221 25.5418 43.9314 25.2424 44.0284 24.9388C44.8271 22.4318 44.7514 19.7281 43.8138 17.2697H43.8132ZM43.4853 23.3869C43.4564 23.5392 43.4241 23.6916 43.3884 23.84C43.3822 23.6876 43.3737 23.5353 43.3618 23.3869C43.3329 23.0147 43.2236 22.4806 43.2236 22.4806H39.7402L37.1914 20.5809C37.127 20.533 37.0512 20.503 36.9715 20.494C36.8918 20.485 36.8111 20.4973 36.7377 20.5297C36.6644 20.562 36.6009 20.6133 36.5538 20.6782C36.5067 20.7431 36.4777 20.8194 36.4698 20.8992L36.284 22.7406L36.2755 22.8267H36.0042L35.9974 22.7955L35.3228 19.7279C35.3007 19.627 35.2448 19.5366 35.1644 19.4718C35.0839 19.407 34.9837 19.3717 34.8804 19.3716H34.8753C34.7712 19.3728 34.6707 19.4097 34.5907 19.4762C34.5106 19.5428 34.4559 19.6348 34.4358 19.7369L33.8263 22.8261H16.9757V22.6794C16.9278 23.0246 16.8955 23.3755 16.8789 23.7324C16.8738 23.8315 16.8704 23.9312 16.8681 24.0309C16.8432 23.9317 16.8194 23.8326 16.7973 23.7324C16.3419 21.7016 16.4938 19.5818 17.234 17.6367C17.3116 17.2499 17.4073 16.867 17.5201 16.4909C17.5427 16.4138 17.5659 16.3374 17.5903 16.2609C17.6113 16.1946 17.6328 16.1284 17.6549 16.0627C17.6824 15.9784 17.7113 15.8945 17.7415 15.8112C17.7425 15.8075 17.7438 15.8039 17.7455 15.8004C17.771 15.7268 17.7982 15.6537 17.8259 15.5807C17.8537 15.5076 17.8769 15.4464 17.9035 15.3801C17.9301 15.3139 17.9573 15.2465 17.9845 15.1808L17.9998 15.1451L18.0083 15.1247C18.0372 15.055 18.0649 14.9859 18.0978 14.9174C18.1306 14.8489 18.1544 14.795 18.1811 14.7339L18.2082 14.6744C18.2383 14.611 18.2683 14.5475 18.2994 14.4847C18.3306 14.4218 18.36 14.3617 18.3912 14.3006C18.4025 14.2774 18.415 14.2536 18.4269 14.2303C18.4563 14.1737 18.4864 14.1171 18.5169 14.0604C18.5543 13.9902 18.5928 13.9199 18.6302 13.8503C18.6619 13.7936 18.6948 13.737 18.7288 13.6804C18.7284 13.6793 18.7284 13.6781 18.7288 13.677C18.7429 13.652 18.7577 13.6271 18.7724 13.6022C18.8041 13.5456 18.837 13.4929 18.8698 13.4391C18.9163 13.3626 18.9633 13.2867 19.012 13.2125C19.0488 13.1559 19.0867 13.0953 19.1253 13.0375C19.187 12.9446 19.2493 12.8523 19.3133 12.7605C19.3365 12.7271 19.3603 12.6931 19.3847 12.6597C19.4311 12.594 19.4787 12.5289 19.5263 12.4637C19.5529 12.428 19.579 12.3929 19.6061 12.3572L19.6146 12.3459C19.6464 12.304 19.6781 12.2621 19.7109 12.2207C19.7118 12.2191 19.713 12.2175 19.7143 12.2162C19.7477 12.1726 19.7817 12.1295 19.8163 12.0865L19.9092 11.9732C19.9488 11.9239 19.9896 11.8752 20.0304 11.8265C20.0944 11.7495 20.159 11.6736 20.2252 11.5999C20.2915 11.5263 20.368 11.4374 20.441 11.3581C20.5343 11.2561 20.6287 11.1557 20.7242 11.0568C20.9459 10.8302 21.1751 10.6127 21.4118 10.4043C21.5874 10.2491 21.7674 10.0992 21.9516 9.95454C22.1125 9.8271 22.2767 9.70475 22.4433 9.58581H22.4461C24.6705 7.97737 27.3476 7.11538 30.0926 7.12364C31.2645 7.12364 34.3707 7.37569 37.9147 9.70872C38.1118 9.85561 38.3038 10.0066 38.4907 10.1618C38.6104 10.2612 38.7274 10.3618 38.8419 10.4637C38.8764 10.4943 38.9104 10.5249 38.9438 10.5561C38.9772 10.5872 39.0005 10.6082 39.0299 10.6348L39.0327 10.6376C39.0792 10.6801 39.1245 10.7232 39.1698 10.7668L39.2355 10.8296C39.2814 10.8744 39.3273 10.9191 39.372 10.9639C39.6903 11.2873 39.9917 11.6203 40.2647 11.9523L40.2692 11.9574C40.4799 12.2145 40.6797 12.4788 40.8685 12.7503C40.9177 12.8211 40.967 12.8931 41.0146 12.965L41.0463 13.0114C41.0786 13.0601 41.1109 13.1094 41.142 13.1587C41.1732 13.208 41.1987 13.2448 41.2242 13.2878C41.2497 13.3309 41.2706 13.362 41.2933 13.4011C41.3295 13.4578 41.3646 13.5189 41.3998 13.5784C41.4241 13.6181 41.4473 13.6577 41.47 13.6979L41.5057 13.7602C41.5521 13.8412 41.5974 13.9233 41.6416 14.0055C41.6671 14.0519 41.692 14.0984 41.7164 14.1454C41.773 14.2519 41.8297 14.3595 41.8801 14.4682C41.8937 14.496 41.9073 14.5249 41.9203 14.5521C41.9497 14.6087 41.9769 14.6721 42.0058 14.7322V14.7367C42.037 14.8052 42.0681 14.8738 42.0981 14.9429C42.1027 14.9525 42.1072 14.9621 42.1112 14.9723C42.131 15.0165 42.1497 15.0607 42.1678 15.1054C42.1797 15.1321 42.191 15.1592 42.2024 15.1864C42.2335 15.2612 42.2635 15.3365 42.293 15.413C42.3083 15.4515 42.323 15.4895 42.3377 15.5263C42.3672 15.6033 42.3944 15.6803 42.4238 15.7579C42.438 15.797 42.4516 15.8355 42.4652 15.8746C42.5218 16.0304 42.5722 16.1878 42.6204 16.3464C42.6447 16.4246 42.6685 16.5033 42.6912 16.5826C42.7871 16.9085 42.8692 17.2378 42.9375 17.5704C43.6577 19.4233 43.844 21.4409 43.4751 23.3942L43.4853 23.3869Z" fill="#31296B"/>
<path d="M21.7975 22.1465C21.6851 22.1463 21.5768 22.1044 21.4935 22.0288C21.4103 21.9532 21.3582 21.8494 21.3472 21.7375C21.0555 18.7713 22.3826 16.5515 22.4392 16.4586C22.4696 16.4067 22.51 16.3613 22.5581 16.3252C22.6062 16.289 22.661 16.2628 22.7193 16.2481C22.7776 16.2333 22.8383 16.2303 22.8978 16.2393C22.9573 16.2482 23.0144 16.2689 23.0658 16.3002C23.1172 16.3314 23.1619 16.3726 23.1972 16.4213C23.2325 16.47 23.2578 16.5252 23.2715 16.5838C23.2853 16.6423 23.2872 16.7031 23.2773 16.7624C23.2673 16.8217 23.2456 16.8785 23.2135 16.9293C23.1909 16.9673 21.9889 19.0058 22.2506 21.6492C22.2623 21.7687 22.2261 21.8879 22.15 21.9807C22.0738 22.0735 21.964 22.1323 21.8445 22.1442C21.8289 22.1459 21.8132 22.1466 21.7975 22.1465ZM24.6142 21.7761C24.4981 21.7762 24.3863 21.7318 24.302 21.6519C24.2176 21.572 24.1672 21.4627 24.1611 21.3467C23.9731 17.7699 25.6847 15.1808 25.7578 15.0726C25.8255 14.975 25.9289 14.9079 26.0456 14.8858C26.1624 14.8637 26.2831 14.8882 26.3819 14.9543C26.4807 15.0203 26.5496 15.1225 26.5737 15.2388C26.5979 15.3551 26.5754 15.4763 26.5111 15.5762C26.4924 15.6045 24.8957 18.0366 25.0674 21.2969C25.0705 21.3563 25.0619 21.4158 25.042 21.4719C25.0222 21.528 24.9915 21.5796 24.9517 21.6239C24.9118 21.6681 24.8637 21.7041 24.81 21.7297C24.7563 21.7553 24.698 21.7701 24.6386 21.7732L24.6142 21.7761ZM27.4616 22.1465C27.3492 22.1463 27.2408 22.1044 27.1576 22.0288C27.0744 21.9532 27.0222 21.8494 27.0113 21.7375C26.7196 18.7713 28.0467 16.5515 28.1033 16.4586C28.1337 16.4067 28.1741 16.3613 28.2221 16.3252C28.2702 16.289 28.325 16.2628 28.3834 16.2481C28.4417 16.2333 28.5023 16.2303 28.5618 16.2393C28.6213 16.2482 28.6784 16.2689 28.7298 16.3002C28.7812 16.3314 28.8259 16.3726 28.8612 16.4213C28.8966 16.47 28.9218 16.5252 28.9356 16.5838C28.9493 16.6423 28.9513 16.7031 28.9413 16.7624C28.9314 16.8217 28.9097 16.8785 28.8776 16.9293C28.8549 16.9673 27.653 19.0058 27.9147 21.6492C27.9264 21.7687 27.8902 21.8879 27.814 21.9807C27.7379 22.0735 27.628 22.1323 27.5086 22.1442C27.493 22.1459 27.4773 22.1466 27.4616 22.1465ZM17.5585 9.14067C17.3028 9.48606 17.1192 9.87941 17.0187 10.2973C16.9346 10.2174 16.8844 10.1084 16.8783 9.99254C16.8448 9.35137 15.9154 8.31938 15.3354 7.81981C15.2443 7.74132 15.1882 7.62988 15.1793 7.51001C15.1705 7.39014 15.2096 7.27165 15.2881 7.18062C15.3666 7.08959 15.478 7.03346 15.5979 7.02459C15.7177 7.01572 15.8362 7.05483 15.9273 7.13332C16.0728 7.25737 17.0958 8.16079 17.5585 9.14067ZM16.5877 10.9973C16.1815 11.2197 15.8283 11.5273 15.5523 11.8991C14.198 11.6612 13.0754 10.7045 13.0142 10.653C12.9265 10.5736 12.8734 10.463 12.8661 10.3449C12.8588 10.2269 12.898 10.1106 12.9753 10.021C13.0526 9.93147 13.1619 9.87568 13.2797 9.86559C13.3976 9.85551 13.5147 9.89192 13.6061 9.96705C13.6209 9.97952 14.8805 11.0483 16.138 11.0483C16.2893 11.0486 16.4402 11.0315 16.5877 10.9973ZM42.8769 10.4219H42.8525C42.7931 10.4188 42.7348 10.404 42.6811 10.3783C42.6274 10.3527 42.5793 10.3168 42.5395 10.2725C42.4996 10.2283 42.4689 10.1766 42.4491 10.1205C42.4292 10.0644 42.4206 10.005 42.4237 9.94553C42.4889 8.7119 44.0963 7.29192 44.2799 7.13389C44.3247 7.09359 44.3772 7.06264 44.4341 7.04287C44.4911 7.0231 44.5514 7.0149 44.6116 7.01875C44.6718 7.0226 44.7306 7.03842 44.7846 7.06529C44.8386 7.09215 44.8867 7.12953 44.926 7.17522C44.9654 7.22091 44.9952 7.27399 45.0138 7.33136C45.0324 7.38873 45.0393 7.44924 45.0342 7.50932C45.0291 7.56941 45.0121 7.62787 44.9841 7.68128C44.9561 7.7347 44.9177 7.78198 44.8712 7.82038C44.2929 8.32051 43.3623 9.34967 43.3289 9.99311C43.3226 10.1088 43.2723 10.2177 43.1882 10.2975C43.1042 10.3772 42.9928 10.4218 42.8769 10.4219ZM47.1946 10.6513C47.1379 10.7017 46.1145 11.5728 44.8468 11.8605C44.5908 11.9196 44.3291 11.95 44.0663 11.9512C43.9075 11.9514 43.749 11.9387 43.5922 11.9132C43.4287 11.8035 43.2516 11.7154 43.0655 11.651C43.035 11.5997 43.0151 11.543 43.0068 11.4839C42.9985 11.4249 43.0021 11.3648 43.0173 11.3072C43.0324 11.2496 43.0587 11.1956 43.0947 11.1481C43.1307 11.1007 43.1756 11.0609 43.227 11.0308C43.2784 11.0008 43.3352 10.9812 43.3942 10.9731C43.4532 10.965 43.5131 10.9686 43.5707 10.9838C43.6785 11.0124 43.7886 11.0313 43.8998 11.0404C45.2116 11.1474 46.5891 9.97952 46.6044 9.96422C46.6958 9.88909 46.8129 9.85267 46.9308 9.86276C47.0487 9.87285 47.1579 9.92864 47.2352 10.0182C47.3125 10.1078 47.3517 10.224 47.3444 10.3421C47.3372 10.4602 47.284 10.5707 47.1963 10.6501L47.1946 10.6513ZM20.885 9.65326C20.9926 9.55962 21.1014 9.46786 21.2113 9.37799C21.1014 9.46805 20.9926 9.55924 20.885 9.65326Z" fill="#31296B"/>
<path d="M22.2315 8.61844C22.128 8.68792 22.0242 8.76042 21.92 8.83594C21.7433 8.96168 21.5697 9.09176 21.3994 9.22619L21.4691 9.16955C21.4419 9.14954 21.4142 9.13066 21.3859 9.11291C21.0905 8.92056 20.7541 8.80045 20.4037 8.7623C20.3144 8.75207 20.2246 8.74696 20.1347 8.74701C19.5335 8.74702 18.9562 8.98243 18.5265 9.40283C18.0968 9.82323 17.8488 10.3952 17.8356 10.9962L17.8464 11.037C17.8615 11.0946 17.8651 11.1545 17.857 11.2135C17.849 11.2725 17.8293 11.3293 17.7993 11.3807C17.7693 11.4321 17.7294 11.477 17.682 11.513C17.6346 11.549 17.5805 11.5753 17.523 11.5904C17.2275 11.6702 16.951 11.8084 16.7098 11.9968C16.4687 12.1852 16.2677 12.4201 16.1188 12.6875C15.8561 13.1553 15.7655 13.7004 15.8627 14.2281C15.96 14.7558 16.239 15.2327 16.6513 15.5762C16.7045 15.6209 16.76 15.6628 16.8172 15.7025C16.7583 15.8766 16.7017 16.052 16.6473 16.2287C16.6095 16.3521 16.5744 16.4758 16.5419 16.5997C15.8209 16.1922 15.2862 15.5206 15.0506 14.7266C14.9631 14.4299 14.9189 14.1222 14.9192 13.8129C14.9198 13.124 15.1418 12.4534 15.5524 11.9002C15.8285 11.5284 16.1817 11.2208 16.5878 10.9985C16.7011 10.9367 16.818 10.8818 16.9379 10.8342C16.9503 10.6539 16.9775 10.4748 17.0194 10.299C17.1865 9.60575 17.5799 8.98802 18.1374 8.54351C18.695 8.09901 19.3848 7.85311 20.0978 7.84473H20.1364C20.9053 7.84436 21.6488 8.11967 22.2321 8.6207L22.2315 8.61844ZM45.5216 13.8277C45.5217 14.127 45.4803 14.425 45.3986 14.713C45.2733 15.1521 45.0556 15.5593 44.7601 15.9075C44.4646 16.2556 44.0982 16.5366 43.6853 16.7316C43.6498 16.5931 43.612 16.4552 43.572 16.3182C43.5267 16.1601 43.4785 16.0027 43.4275 15.8469C43.5582 15.7742 43.6817 15.6892 43.7963 15.5932C44.0534 15.3765 44.26 15.1061 44.4015 14.8012C44.5431 14.4962 44.6163 14.1639 44.6159 13.8277C44.6178 13.4354 44.5173 13.0494 44.3242 12.7079C44.1462 12.3894 43.8952 12.1176 43.5918 11.9149C43.4282 11.8052 43.2512 11.7171 43.065 11.6527C43.0169 11.6363 42.9682 11.6215 42.9189 11.6079C42.8035 11.5767 42.7051 11.5012 42.6452 11.3977C42.5852 11.2943 42.5686 11.1713 42.5989 11.0557L42.6097 11.0149C42.5947 10.4134 42.3453 9.84149 41.9146 9.42128C41.484 9.00107 40.9061 8.76581 40.3044 8.7657C40.1818 8.76552 40.0594 8.77537 39.9385 8.79516C39.582 8.85238 39.2439 8.99224 38.9512 9.20354C38.9195 9.22619 38.8884 9.24998 38.8578 9.2749L38.8685 9.28397C38.7326 9.17484 38.5942 9.06779 38.4534 8.96281C38.4466 8.95772 38.4398 8.95262 38.4324 8.94809C38.3214 8.87483 38.2108 8.80346 38.1005 8.73398C38.6824 8.18674 39.4468 7.87526 40.2455 7.86002H40.3021C41.116 7.85998 41.8996 8.1689 42.4944 8.72435C43.0893 9.2798 43.4512 10.0404 43.5068 10.8523C43.6408 10.9057 43.771 10.9682 43.8965 11.0393C44.4053 11.3282 44.8253 11.7509 45.1109 12.2616C45.3815 12.7391 45.5231 13.2788 45.5216 13.8277ZM28.8449 48.8724L28.8924 48.8979C28.8754 48.8911 28.8601 48.8809 28.8449 48.8724ZM31.0153 48.8661C30.9978 48.8769 30.9802 48.8877 30.9621 48.8973C30.9802 48.8882 30.9983 48.878 31.0187 48.8673L31.0153 48.8661ZM32.6817 54.2883C32.684 54.3493 32.6739 54.41 32.6522 54.467C32.6305 54.5239 32.5974 54.5759 32.5551 54.6198C32.5128 54.6637 32.4621 54.6986 32.406 54.7224C32.3499 54.7462 32.2895 54.7585 32.2286 54.7585H27.6231C27.5622 54.7585 27.5018 54.7462 27.4457 54.7224C27.3896 54.6986 27.3389 54.6637 27.2965 54.6198C27.2542 54.5759 27.2212 54.5239 27.1995 54.467C27.1777 54.41 27.1677 54.3493 27.17 54.2883C27.1753 54.1433 27.1826 53.998 27.1921 53.8522C27.2901 52.2714 27.605 50.6735 28.1397 49.5509C28.3795 49.7208 28.6441 49.8529 28.9242 49.9423L28.9559 49.9519C28.5594 50.7823 28.2099 52.1003 28.0989 53.8522H31.7505C31.6372 52.0997 31.2917 50.7817 30.8941 49.9514L30.9253 49.9417C31.205 49.8522 31.4693 49.7204 31.7092 49.5509C32.245 50.6735 32.5588 52.2697 32.6573 53.8522C32.6675 53.9978 32.6743 54.1433 32.6817 54.2883Z" fill="#31296B"/>
<path d="M31.7755 49.5039C31.7619 49.5141 31.7483 49.5243 31.7341 49.5339L31.7121 49.5498C31.4722 49.7193 31.2079 49.8511 30.9281 49.9406L30.897 49.9502C30.2657 50.1454 29.5901 50.1454 28.9588 49.9502L28.927 49.9406C28.647 49.8511 28.3824 49.7191 28.1426 49.5492L28.1256 49.5368L28.0825 49.5056C28.129 49.4688 28.1754 49.4308 28.2213 49.3923C28.424 49.2216 28.6155 49.0379 28.7945 48.8423C28.8115 48.8525 28.8285 48.8627 28.846 48.8724L28.8936 48.8978L28.901 48.9018C29.088 48.9993 29.2887 49.068 29.4963 49.1057L29.5291 49.1119C29.66 49.1349 29.7927 49.1464 29.9256 49.1465C30.0586 49.1469 30.1913 49.1351 30.3221 49.1114L30.3544 49.1057C30.5651 49.0675 30.7687 48.9972 30.9582 48.8973C30.9763 48.8882 30.9944 48.878 31.0148 48.8673C31.0352 48.8565 31.0499 48.8474 31.0669 48.8367C31.2401 49.0281 31.4251 49.2086 31.6209 49.377C31.6696 49.4189 31.7189 49.4597 31.7687 49.4994L31.7755 49.5039Z" fill="#31296B"/>
<path d="M30.4352 46.1848V46.161C30.4325 46.139 30.4282 46.1172 30.4222 46.0959C30.4222 46.0874 30.4176 46.0795 30.4148 46.071C30.412 46.0625 30.4057 46.046 30.4001 46.0336C30.3955 46.0234 30.3904 46.0132 30.3853 46.0036C30.3797 45.9934 30.374 45.9832 30.3678 45.9735L30.3491 45.9475C30.3406 45.9362 30.3315 45.9254 30.3219 45.9146L30.2981 45.8908C30.2913 45.884 30.2839 45.8778 30.276 45.8722C30.2692 45.866 30.2621 45.8603 30.2545 45.8552C30.2461 45.8489 30.2374 45.843 30.2284 45.8376C30.2194 45.8319 30.2103 45.8263 30.2007 45.8212H30.1979L29.9266 45.6796L28.6867 45.0327L28.2494 44.8062L27.538 44.4352L26.9875 44.148L26.6726 43.9838L26.6318 43.9651C26.5754 43.9425 26.5151 43.9314 26.4544 43.9326C26.3936 43.9337 26.3338 43.9471 26.2783 43.9719C26.0897 44.0438 21.7499 45.9883 19.9476 47.5782C19.8999 47.6202 19.8616 47.6718 19.8351 47.7296C19.8086 47.7874 19.7946 47.8501 19.794 47.9137C19.7933 47.9772 19.8061 48.0402 19.8314 48.0986C19.8567 48.1569 19.894 48.2092 19.9408 48.2522C19.9533 48.2635 19.9941 48.3003 20.0603 48.357C20.1974 48.4742 20.4443 48.6759 20.7768 48.9109C21.7335 49.5872 23.3999 50.5376 25.2084 50.5376C25.5427 50.5381 25.8762 50.5041 26.2036 50.4363C26.9038 50.2884 27.5606 49.9814 28.1231 49.5391L28.0801 49.5079C28.1265 49.4711 28.173 49.4332 28.2188 49.3946C28.4216 49.2239 28.6131 49.0402 28.792 48.8447C28.809 48.8548 28.826 48.865 28.8436 48.8747C29.2666 48.4057 29.6328 47.8884 29.9345 47.3335C30.0406 47.1428 30.1433 46.9434 30.2426 46.7354C30.2947 46.626 30.3463 46.5139 30.3967 46.4C30.422 46.3426 30.4351 46.2805 30.4352 46.2177C30.4363 46.2052 30.4358 46.195 30.4352 46.1848ZM29.1698 46.8418C28.9171 47.3135 28.6132 47.7559 28.2636 48.161C28.0516 48.4044 27.8164 48.6266 27.5612 48.8243C27.1094 49.1791 26.5828 49.4264 26.0212 49.5476C24.2563 49.9191 22.4426 48.9472 21.4112 48.2414C21.2413 48.1236 21.0889 48.0149 20.9643 47.918C22.6131 46.6719 25.6434 45.2468 26.4443 44.8792L26.698 45.0118L26.8748 45.1041L28.3536 45.879L28.6986 46.0591L29.3896 46.4193C29.3182 46.5643 29.2446 46.7065 29.1698 46.8418Z" fill="#31296B"/>
<path d="M39.7912 47.5781C37.986 45.9859 33.4253 44.0409 33.2322 43.9593C33.1675 43.9318 33.0972 43.9198 33.027 43.9241C32.9569 43.9284 32.8886 43.949 32.8278 43.9843L32.821 43.9882L32.6403 44.093L31.9147 44.5144L31.448 44.7857L31.3812 44.8248L29.9221 45.6744L30.1934 45.816H30.1963C30.2059 45.8211 30.2149 45.8268 30.224 45.8324C30.233 45.8378 30.2417 45.8437 30.2501 45.85C30.2576 45.8552 30.2648 45.8608 30.2716 45.867C30.2795 45.8726 30.2868 45.8789 30.2937 45.8857L30.3175 45.9095C30.3271 45.9202 30.3362 45.931 30.3447 45.9423C30.3532 45.9537 30.3571 45.9593 30.3633 45.9684C30.3697 45.9781 30.3756 45.9881 30.3809 45.9984C30.3853 46.0063 30.3893 46.0144 30.3928 46.0228C30.393 46.0248 30.393 46.0269 30.3928 46.029C30.3985 46.0414 30.403 46.0539 30.4075 46.0664C30.4121 46.0788 30.4126 46.0828 30.4149 46.0913C30.4209 46.1126 30.4253 46.1344 30.4279 46.1564V46.2114C30.4279 46.2742 30.4147 46.3363 30.3894 46.3938C30.339 46.507 30.2874 46.6203 30.2353 46.7291C30.1364 46.9367 30.0337 47.1361 29.9272 47.3272C30.2264 47.879 30.5886 48.3941 31.0068 48.8621C31.0243 48.8525 31.0419 48.8423 31.0589 48.8316C31.2321 49.023 31.4171 49.2035 31.6128 49.3719C31.6616 49.4138 31.7108 49.4546 31.7607 49.4943L31.7658 49.4982C31.7522 49.5084 31.7386 49.5186 31.7244 49.5282C32.2902 49.9783 32.954 50.2887 33.6621 50.4345C33.9742 50.4974 34.2919 50.5289 34.6103 50.5285C36.3276 50.5285 37.909 49.6478 38.8634 48.9777C39.1834 48.7511 39.4332 48.5523 39.5935 48.4158C39.7068 48.319 39.777 48.2555 39.794 48.2397C39.8401 48.1965 39.8767 48.1442 39.9013 48.086C39.926 48.0279 39.9383 47.9652 39.9373 47.9021C39.9363 47.839 39.9222 47.7767 39.8958 47.7194C39.8693 47.662 39.8312 47.6108 39.7838 47.569L39.7912 47.5781ZM38.2557 48.3076C37.2412 49.0004 35.5329 49.8981 33.8507 49.5537C33.2806 49.4335 32.7465 49.1813 32.2914 48.8174C32.0375 48.6165 31.8034 48.3918 31.5925 48.1462C31.2521 47.747 30.9553 47.3125 30.7072 46.8503C30.6267 46.7045 30.5486 46.5535 30.4727 46.3971L31.1014 46.0318L31.7811 45.6353L32.5865 45.168L32.7502 45.0729L33.0804 44.8809C33.9198 45.2479 37.1019 46.6753 38.7739 47.9225C38.6363 48.0358 38.459 48.1666 38.2557 48.3071V48.3076Z" fill="#31296B"/>
</svg>
