<svg width="16" height="16" viewBox="0 0 16 16" fill="none" xmlns="http://www.w3.org/2000/svg">
<path d="M1.85767 7.55141C1.85767 7.81257 2.05856 8.03857 2.37999 8.03857C2.53568 8.03857 2.6763 7.95319 2.80186 7.85275L3.37441 7.3706V12.0414C3.37441 12.7847 3.82139 13.2266 4.58981 13.2266H11.385C12.1484 13.2266 12.6004 12.7847 12.6004 12.0414V7.34549L13.2031 7.85275C13.3236 7.95319 13.4643 8.03857 13.6199 8.03857C13.9163 8.03857 14.1423 7.85275 14.1423 7.56145C14.1423 7.39069 14.077 7.25509 13.9464 7.1446L12.6004 6.00956V3.87005C12.6004 3.64404 12.4548 3.50342 12.2288 3.50342H11.5357C11.3147 3.50342 11.164 3.64404 11.164 3.87005V4.8042L8.71816 2.75007C8.28121 2.38344 7.72876 2.38344 7.29182 2.75007L2.05856 7.1446C1.92296 7.25509 1.85767 7.40576 1.85767 7.55141ZM9.44639 8.93757C9.44639 8.70152 9.29572 8.55085 9.05967 8.55085H6.9503C6.71425 8.55085 6.55856 8.70152 6.55856 8.93757V12.2272H4.85599C4.54461 12.2272 4.37385 12.0514 4.37385 11.735V6.53188L7.78401 3.66915C7.92463 3.54862 8.08534 3.54862 8.22597 3.66915L11.5959 6.50174V11.735C11.5959 12.0514 11.4252 12.2272 11.1138 12.2272H9.44639V8.93757Z" fill="#666666"/>
</svg>
