<svg width="8" height="8" viewBox="0 0 8 8" fill="none" xmlns="http://www.w3.org/2000/svg">
<path d="M5.61468 3.90123C5.61217 3.81334 5.57952 3.738 5.51172 3.6702L3.55804 1.75921C3.50028 1.70396 3.43248 1.67383 3.34961 1.67383C3.18136 1.67383 3.05078 1.80441 3.05078 1.97266C3.05078 2.05301 3.08343 2.12835 3.14118 2.1861L4.899 3.90123L3.14118 5.61635C3.08343 5.67411 3.05078 5.74693 3.05078 5.8298C3.05078 5.99805 3.18136 6.12863 3.34961 6.12863C3.42997 6.12863 3.50028 6.09849 3.55804 6.04325L5.51172 4.12974C5.58203 4.06445 5.61468 3.98912 5.61468 3.90123Z" fill="#999999"/>
</svg>
