<svg width="40" height="40" viewBox="0 0 40 40" fill="none" xmlns="http://www.w3.org/2000/svg">
<path d="M19.9873 32.5015C27.1065 32.5015 32.9826 26.6254 32.9826 19.5062C32.9826 15.4507 30.9611 11.6086 27.9226 9.32346C27.2446 8.771 26.4159 8.87145 26.0016 9.46157C25.5496 10.0768 25.7505 10.8176 26.328 11.3324C28.8015 13.2283 30.371 16.1538 30.3835 19.5062C30.3961 25.2693 25.7505 29.9024 19.9873 29.9024C14.2242 29.9024 9.61625 25.2693 9.61625 19.5062C9.61625 14.6346 12.9059 10.579 17.4008 9.43646V11.257C17.4008 12.2238 18.1165 12.4875 18.895 11.9225L23.1388 8.92167C23.7666 8.4571 23.7792 7.75398 23.1388 7.30197L18.9075 4.28858C18.1165 3.72357 17.4008 3.97468 17.4008 4.95404V6.78718C11.4996 8.0051 7.00464 13.2785 7.00464 19.5062C7.00464 26.6254 12.8808 32.5015 19.9873 32.5015Z" fill="#666666"/>
</svg>
