<svg width="80" height="80" viewBox="0 0 80 80" fill="none" xmlns="http://www.w3.org/2000/svg">
<path d="M39.9749 64.9777C54.2132 64.9777 65.9654 53.2254 65.9654 39.0123C65.9654 24.7991 54.1881 13.0469 39.9498 13.0469C25.7366 13.0469 14.0095 24.7991 14.0095 39.0123C14.0095 53.2254 25.7618 64.9777 39.9749 64.9777ZM39.8996 51.0658C38.2171 51.0658 37.288 49.8856 37.288 48.1027V31.1775H31.663C30.3572 31.1775 29.4532 30.3739 29.4532 29.0932C29.4532 27.7623 30.3572 26.9838 31.663 26.9838H48.2618C49.5676 26.9838 50.4465 27.7623 50.4465 29.0932C50.4465 30.3739 49.5676 31.1775 48.2618 31.1775H42.5614V48.1027C42.5614 49.9358 41.6323 51.0658 39.8996 51.0658Z" fill="#25A1FF"/>
</svg>
