<svg width="40" height="40" viewBox="0 0 40 40" fill="none" xmlns="http://www.w3.org/2000/svg">
<path d="M12.3911 31.2583H27.5962C30.3208 31.2583 31.7271 29.8521 31.7271 27.1651V11.8847C31.7271 9.19775 30.3208 7.7915 27.5962 7.7915H12.3911C9.67906 7.7915 8.26025 9.1852 8.26025 11.8847V27.1651C8.26025 29.8521 9.67906 31.2583 12.3911 31.2583ZM12.5543 28.7597C11.3992 28.7597 10.7589 28.157 10.7589 26.9391V12.1107C10.7589 10.8928 11.3992 10.2901 12.5543 10.2901H27.433C28.5755 10.2901 29.2284 10.8928 29.2284 12.1107V26.9391C29.2284 28.157 28.5755 28.7597 27.433 28.7597H12.5543ZM16.0072 25.3822C16.5848 25.3822 16.9614 25.0934 17.1623 24.3777L17.9282 22.1428H22.0716L22.8375 24.3777C23.0384 25.0934 23.4151 25.3822 23.9927 25.3822C24.6707 25.3822 25.1101 24.9678 25.1101 24.3275C25.1101 24.114 25.0599 23.8755 24.9469 23.549L21.7577 14.8102C21.4564 13.9438 20.8663 13.5044 19.9874 13.5044C19.121 13.5044 18.5435 13.9313 18.2296 14.8102L15.0529 23.549C14.9399 23.8755 14.8897 24.114 14.8897 24.3149C14.8897 24.9678 15.3166 25.3822 16.0072 25.3822ZM18.4556 20.385L19.9372 15.8774H20.0627L21.5443 20.385H18.4556Z" fill="#666666"/>
</svg>
