<svg width="81" height="81" viewBox="0 0 81 81" fill="none" xmlns="http://www.w3.org/2000/svg">
<path d="M17.6987 62.7668H63.2511C68.6752 62.7668 71.538 59.9543 71.538 54.5804V28.2132C71.538 22.8394 68.6752 20.0269 63.2511 20.0269H56.5714C54.6127 20.0269 53.9849 19.7004 52.7545 18.4197L50.7707 16.2852C49.4649 14.9041 48.1339 14.2261 45.5726 14.2261H35.2517C32.6903 14.2261 31.3594 14.9041 30.0536 16.2852L28.0698 18.4197C26.8644 19.6753 26.2115 20.0269 24.2528 20.0269H17.6987C12.2746 20.0269 9.43695 22.8394 9.43695 28.2132V54.5804C9.43695 59.9543 12.2746 62.7668 17.6987 62.7668ZM40.4749 54.8818C32.9665 54.8818 26.9397 48.855 26.9397 41.3215C26.9397 33.7629 32.9665 27.7361 40.4749 27.7361C48.0084 27.7361 54.0352 33.7629 54.0352 41.3215C54.0352 48.855 48.0084 54.8818 40.4749 54.8818ZM55.6423 32.0804C55.6423 30.2975 57.1741 28.7406 59.0073 28.7406C60.8153 28.7406 62.3471 30.2975 62.3471 32.0804C62.3471 33.9387 60.8153 35.3952 59.0073 35.4203C57.1741 35.4203 55.6423 33.9638 55.6423 32.0804ZM40.4749 50.3366C45.4721 50.3366 49.49 46.3187 49.49 41.3215C49.49 36.2992 45.4721 32.2813 40.4749 32.2813C35.5028 32.2813 31.4849 36.2992 31.4849 41.3215C31.4849 46.3187 35.5279 50.3366 40.4749 50.3366Z" fill="#25A1FF" fill-opacity="0.8"/>
</svg>
