<svg width="24" height="24" viewBox="0 0 24 24" fill="none" xmlns="http://www.w3.org/2000/svg">
<path fill-rule="evenodd" clip-rule="evenodd" d="M15.7592 8.99927C17.1755 8.99927 18.3583 7.82404 18.3583 6.40022C18.3583 4.97639 17.1755 3.80116 15.7592 3.80116C14.3354 3.80116 13.1602 4.97639 13.1602 6.40022C13.1602 7.82404 14.3354 8.99927 15.7592 8.99927Z" fill="#F44336"/>
<path fill-rule="evenodd" clip-rule="evenodd" d="M18.0193 16.6834H5.97321C5.19727 16.6834 4.72266 16.2615 4.72266 15.6287C4.72266 14.8356 5.43604 14.154 6.11 13.51L6.12388 13.4968C6.65123 12.9769 6.7793 11.8921 6.87723 10.8902C6.99023 8.13292 7.80385 6.18928 9.74749 5.48866C10.0639 4.49425 10.885 3.72583 11.9925 3.72583C12.3767 3.72583 12.7307 3.82377 13.0246 3.98197C12.452 4.62231 12.0979 5.4736 12.0979 6.40022C12.0979 8.41166 13.7478 10.0615 15.7517 10.0615C16.2112 10.0615 16.6482 9.96355 17.0474 9.79782C17.1077 10.2423 17.1454 10.7094 17.168 11.199C17.2358 12.0428 17.3864 13.0146 17.8686 13.4968L17.8825 13.51C18.5564 14.154 19.2698 14.8356 19.2698 15.6287C19.2698 16.2615 18.7952 16.6834 18.0193 16.6834ZM14.4032 17.7381C14.3052 18.8305 13.3334 19.7872 12 19.7872C10.659 19.7872 9.68722 18.8305 9.58929 17.7381H14.4032Z" fill="white"/>
</svg>
