<svg width="41" height="40" viewBox="0 0 41 40" fill="none" xmlns="http://www.w3.org/2000/svg">
<path d="M13.3809 31.6852C14.4481 31.6852 15.5279 31.3211 16.4822 30.6682C17.4615 31.3337 18.7422 31.7982 20.5 31.7982C22.2704 31.7982 23.5385 31.3337 24.5179 30.6682C25.4721 31.3211 26.5645 31.6852 27.6192 31.6852C31.0971 31.6852 33.3948 29.4629 33.3948 26.1356C33.3948 22.9589 31.0846 20.611 27.795 20.2971C26.6273 17.3088 25.7232 14.0946 25.0327 11.1188C24.4174 8.44444 22.9107 7.02563 20.5 7.02563C18.0893 7.02563 16.5826 8.44444 15.9674 11.1188C15.2894 14.0946 14.3854 17.3088 13.2051 20.2971C9.92805 20.611 7.60522 22.9589 7.60522 26.1356C7.60522 29.4629 9.91549 31.6852 13.3809 31.6852ZM15.4777 27.1526C14.8625 26.4997 14.4356 26.1356 13.745 26.1356C12.7782 26.1356 12.1881 26.8387 12.1881 27.6423C12.1881 28.4333 12.8159 29.1364 13.8078 29.1364C14.1091 29.1364 14.3854 29.0485 14.649 28.8978C14.6993 28.9606 14.7495 29.036 14.8123 29.0987C14.3602 29.3122 13.8957 29.4126 13.406 29.4126C11.485 29.4126 10.0536 28.0943 10.0536 26.236C10.0536 23.5491 12.4015 22.1805 14.9755 22.6451C16.4947 19.2675 17.336 15.0739 18.2149 11.5332C18.5664 10.1395 19.2445 9.36101 20.5 9.36101C21.7556 9.36101 22.4462 10.1395 22.7852 11.5332C23.6767 15.0739 24.5179 19.2675 26.0246 22.6451C28.6111 22.1805 30.9465 23.5491 30.9465 26.236C30.9465 28.0943 29.5277 29.4126 27.6066 29.4126C27.1044 29.4126 26.6398 29.3122 26.2004 29.0987C26.2506 29.036 26.3134 28.9606 26.3636 28.8978C26.6147 29.0485 26.9035 29.1364 27.2048 29.1364C28.1842 29.1364 28.8245 28.4333 28.8245 27.6423C28.8245 26.8387 28.2219 26.1356 27.2676 26.1356C26.5645 26.1356 26.1376 26.4997 25.5224 27.1526C24.0659 28.7095 22.6345 29.4252 20.5 29.4252C18.3655 29.4252 16.9342 28.7095 15.4777 27.1526Z" fill="#666666"/>
</svg>
