<svg width="10" height="11" viewBox="0 0 10 11" fill="none" xmlns="http://www.w3.org/2000/svg">
<path d="M9.47485 3.69528C9.8013 3.69528 9.97709 3.51447 9.97709 3.18802V1.9676C9.97709 0.892822 9.41459 0.330322 8.32474 0.330322H7.10432C6.77787 0.330322 6.59706 0.506104 6.59706 0.832554C6.59706 1.15398 6.77787 1.32976 7.10432 1.32976H8.25945C8.71648 1.32976 8.97764 1.57084 8.97764 2.058V3.18802C8.97764 3.51447 9.15342 3.69528 9.47485 3.69528ZM0.520054 3.69528C0.846505 3.69528 1.01726 3.51447 1.01726 3.18802V2.058C1.01726 1.57084 1.2734 1.32976 1.73546 1.32976H2.89059C3.21704 1.32976 3.39784 1.15398 3.39784 0.832554C3.39784 0.506104 3.21704 0.330322 2.89059 0.330322H1.67017C0.585345 0.330322 0.0178223 0.8878 0.0178223 1.9676V3.18802C0.0178223 3.51447 0.198626 3.69528 0.520054 3.69528ZM2.82028 7.55744H7.18467C7.71704 7.55744 7.99829 7.28121 7.99829 6.75387V4.15231C7.99829 3.61994 7.71704 3.34371 7.18467 3.34371H6.58702C6.39115 3.34371 6.33088 3.31358 6.21034 3.183L6.01447 2.97709C5.88389 2.84148 5.75331 2.77117 5.5022 2.77117H4.48267C4.23657 2.77117 4.10097 2.83646 3.97541 2.97709L3.77452 3.183C3.65398 3.30856 3.59371 3.34371 3.40287 3.34371H2.82028C2.28289 3.34371 2.00164 3.61994 2.00164 4.15231V6.75387C2.00164 7.28121 2.28289 7.55744 2.82028 7.55744ZM5.00499 6.88947C4.19639 6.88947 3.54349 6.24159 3.54349 5.42798C3.54349 4.61938 4.19639 3.97151 5.00499 3.97151C5.81358 3.97151 6.46146 4.61938 6.46146 5.42798C6.46146 6.25666 5.81358 6.88947 5.00499 6.88947ZM6.97374 4.76503C6.78791 4.76503 6.63222 4.61938 6.63222 4.42351C6.63222 4.23267 6.78791 4.082 6.97374 4.082C7.16459 4.082 7.31525 4.23267 7.32028 4.42351C7.32028 4.61938 7.16459 4.76503 6.97374 4.76503ZM4.99996 6.39729C5.53233 6.39729 5.96927 5.96537 5.96927 5.42798C5.96927 4.89059 5.53233 4.46369 4.99996 4.46369C4.4676 4.46369 4.03568 4.89059 4.03568 5.42798C4.03568 5.96537 4.4676 6.39729 4.99996 6.39729ZM1.67017 10.2896H2.89059C3.21704 10.2896 3.39784 10.1088 3.39784 9.78735C3.39784 9.46592 3.21704 9.28512 2.89059 9.28512H1.73546C1.2734 9.28512 1.01726 9.04907 1.01726 8.56191V7.43188C1.01726 7.10543 0.841483 6.92463 0.520054 6.92463C0.193604 6.92463 0.0178223 7.10543 0.0178223 7.43188V8.65231C0.0178223 9.72709 0.585345 10.2896 1.67017 10.2896ZM7.10432 10.2896H8.32474C9.41459 10.2896 9.97709 9.72709 9.97709 8.65231V7.43188C9.97709 7.10543 9.79628 6.92463 9.47485 6.92463C9.1484 6.92463 8.97764 7.10543 8.97764 7.43188V8.56191C8.97764 9.04907 8.71648 9.28512 8.25945 9.28512H7.10432C6.77787 9.28512 6.59706 9.46592 6.59706 9.78735C6.59706 10.1088 6.77787 10.2896 7.10432 10.2896Z" fill="white"/>
</svg>
