<svg width="41" height="40" viewBox="0 0 41 40" fill="none" xmlns="http://www.w3.org/2000/svg">
<path d="M20.4873 32.4888C27.6065 32.4888 33.4826 26.6127 33.4826 19.5061C33.4826 12.3996 27.5939 6.52344 20.4748 6.52344C13.3682 6.52344 7.50464 12.3996 7.50464 19.5061C7.50464 26.6127 13.3808 32.4888 20.4873 32.4888ZM20.4873 29.9023C14.7242 29.9023 10.1162 25.2693 10.1162 19.5061C10.1162 13.743 14.7242 9.12249 20.4748 9.12249C26.2379 9.12249 30.871 13.743 30.8835 19.5061C30.8961 25.2693 26.2505 29.9023 20.4873 29.9023ZM29.0378 19.5061C29.0378 17.0452 27.4558 15.3753 25.1455 15.3753C23.9527 15.3753 22.9106 15.865 21.7806 16.9699L20.4999 18.2003L19.2192 16.9699C18.1017 15.8901 17.0596 15.3753 15.8542 15.3753C13.5314 15.3753 11.9494 17.0452 11.9494 19.5061C11.9494 21.9671 13.5314 23.637 15.8542 23.637C17.0596 23.637 18.1017 23.1097 19.2192 22.0424L20.4999 20.7994L21.7806 22.0424C22.9106 23.1348 23.9527 23.637 25.1455 23.637C27.4558 23.637 29.0378 21.9671 29.0378 19.5061ZM19.1313 19.5061L17.9008 20.6738C17.1224 21.3895 16.5197 21.716 15.8542 21.716C14.6363 21.716 13.8579 20.8622 13.8579 19.5061C13.8579 18.1501 14.6363 17.2963 15.8542 17.2963C16.4946 17.2963 17.0973 17.5977 17.9008 18.3384L19.1313 19.5061ZM21.8559 19.5061L23.0989 18.3384C23.89 17.5977 24.4926 17.2963 25.1455 17.2963C26.3509 17.2963 27.1294 18.1501 27.1294 19.5061C27.1294 20.8622 26.3509 21.716 25.1455 21.716C24.4801 21.716 23.8774 21.3895 23.0989 20.6738L21.8559 19.5061Z" fill="#666666"/>
</svg>
