<svg width="8" height="8" viewBox="0 0 8 8" fill="none" xmlns="http://www.w3.org/2000/svg">
<path d="M3.99998 5.28223C4.08787 5.27972 4.16823 5.24707 4.23352 5.17676L6.142 3.22307C6.19725 3.16783 6.22738 3.09752 6.22738 3.01465C6.22738 2.84891 6.0968 2.71582 5.93107 2.71582C5.85071 2.71582 5.77286 2.74847 5.71511 2.80622L4.00249 4.56655L2.28486 2.80622C2.2271 2.75098 2.15177 2.71582 2.0689 2.71582C1.90316 2.71582 1.77258 2.84891 1.77258 3.01465C1.77258 3.09752 1.80272 3.16783 1.85796 3.22307L3.76896 5.17676C3.83676 5.24707 3.91209 5.28223 3.99998 5.28223Z" fill="#666666"/>
</svg>
