<svg width="16" height="16" viewBox="0 0 16 16" fill="none" xmlns="http://www.w3.org/2000/svg">
<path d="M3.68087 8.26953C5.49393 8.27455 6.98054 9.76116 6.98054 11.5692C6.98054 12.1769 6.80978 12.7545 6.51346 13.2467H10.6719C11.7517 13.2467 12.3092 12.6791 12.3092 11.5943V7.09933H8.54248C7.91469 7.09933 7.61335 6.79799 7.61335 6.1702V2.36328H5.31815C4.24337 2.36328 3.68087 2.9308 3.68087 4.02065V8.26953ZM8.6379 6.36607H12.259C12.2289 6.13504 12.0631 5.91909 11.802 5.6529L9.05476 2.87054C8.80364 2.6144 8.57764 2.44364 8.34661 2.4135V6.07478C8.34661 6.27065 8.44706 6.36607 8.6379 6.36607ZM3.45989 14.226H3.89181C4.06257 14.226 4.19817 14.1205 4.23835 13.9498L4.35386 13.4626C4.41413 13.4475 4.48947 13.4174 4.54973 13.3873L4.97161 13.6434C5.11726 13.7338 5.27797 13.7288 5.40855 13.6032L5.70989 13.2969C5.8254 13.1763 5.84047 13.0106 5.74505 12.8549L5.48891 12.433C5.52909 12.3677 5.54415 12.3175 5.56927 12.2522L6.05643 12.1367C6.22719 12.0965 6.33768 11.966 6.33768 11.7902V11.3633C6.33768 11.1975 6.22217 11.067 6.05643 11.0268L5.57429 10.9113C5.54918 10.8359 5.51904 10.7807 5.49895 10.7305L5.76011 10.2935C5.85052 10.1479 5.83545 9.96708 5.71491 9.85659L5.40855 9.55525C5.28299 9.43973 5.12228 9.4096 4.98165 9.49498L4.54973 9.76618C4.4744 9.73103 4.41413 9.71094 4.35386 9.69085L4.23835 9.19866C4.19817 9.03292 4.06257 8.92243 3.89181 8.92243H3.45989C3.28411 8.92243 3.14851 9.03795 3.11335 9.19866L3.00286 9.68583C2.92753 9.71094 2.86223 9.73103 2.79694 9.76618L2.37005 9.49498C2.23444 9.41462 2.06369 9.43471 1.94315 9.55525L1.64181 9.85659C1.5263 9.9721 1.49616 10.1479 1.58657 10.2935L1.85275 10.7305C1.83266 10.7807 1.80253 10.846 1.77741 10.9113L1.29527 11.0268C1.12953 11.067 1.01904 11.2026 1.01904 11.3633V11.7902C1.01904 11.966 1.12953 12.0965 1.29527 12.1367L1.78244 12.2522C1.80755 12.3175 1.83266 12.3677 1.85777 12.433L1.60665 12.8599C1.51625 13.0106 1.53132 13.1814 1.64683 13.2969L1.94315 13.6032C2.06369 13.7288 2.23444 13.7338 2.38009 13.6434L2.80699 13.3873C2.8773 13.4224 2.94259 13.4475 3.00286 13.4626L3.11335 13.9498C3.14851 14.1155 3.28411 14.226 3.45989 14.226ZM3.67585 12.4079C3.2138 12.4079 2.84717 12.0363 2.84717 11.5742C2.84717 11.1222 3.2138 10.7455 3.67585 10.7405C4.12786 10.7355 4.50956 11.1222 4.50956 11.5742C4.50956 12.0363 4.12786 12.4079 3.67585 12.4079Z" fill="#666666"/>
</svg>
