<svg width="80" height="80" viewBox="0 0 80 80" fill="none" xmlns="http://www.w3.org/2000/svg">
<path d="M39.9747 64.9777C54.213 64.9777 65.9652 53.2254 65.9652 39.0123C65.9652 24.7991 54.1878 13.0469 39.9496 13.0469C25.7364 13.0469 14.0093 24.7991 14.0093 39.0123C14.0093 53.2254 25.7615 64.9777 39.9747 64.9777ZM34.1488 50.6389C32.4161 50.6389 31.5121 49.534 31.5121 47.7511V29.9219C31.5121 28.1389 32.4161 27.034 34.1488 27.034H45.9763C47.257 27.034 48.1108 27.7623 48.1108 29.043C48.1108 30.2734 47.257 31.0519 45.9763 31.0519H36.5093V36.8276H45.449C46.6293 36.8276 47.4328 37.4805 47.4328 38.6858C47.4328 39.841 46.6293 40.4939 45.449 40.4939H36.5093V46.6211H45.9763C47.257 46.6211 48.1108 47.3493 48.1108 48.63C48.1108 49.8605 47.257 50.6389 45.9763 50.6389H34.1488Z" fill="#F44336"/>
</svg>
