<svg width="48" height="48" viewBox="0 0 48 48" fill="none" xmlns="http://www.w3.org/2000/svg">
<g opacity="0.8">
<path d="M42.2026 25.006L40.4162 23.2786L38.2669 9.15332H40.4012L42.2026 25.006ZM6.47021 38.4141V36.2799L28.1157 38.4989L29.7704 40.2455L6.47021 38.4141Z" fill="url(#paint0_linear)"/>
<path d="M28.0049 42.0243H6.47664C4.56414 42.0243 3.00977 40.4212 3.00977 38.4515V9.20807C3.00977 7.23838 4.56414 5.63525 6.47664 5.63525H40.514C42.4265 5.63525 43.9809 7.23838 43.9809 9.20807V23.2678C43.9809 24.2507 43.1854 25.0462 42.2024 25.0462C41.2195 25.0462 40.424 24.2507 40.424 23.2678V9.20807L6.47711 9.1926L6.56758 38.4515L28.0054 38.467C28.9884 38.467 29.7838 39.2624 29.7838 40.2454C29.7834 41.2288 28.9879 42.0243 28.0049 42.0243Z" fill="white"/>
<path d="M19.0168 29.8368H4.79394C3.81097 29.8368 3.0155 29.0413 3.0155 28.0583V19.5997C3.0155 18.6168 3.81097 17.8213 4.79394 17.8213H19.0172C20.7853 17.8213 22.2235 19.2594 22.2235 21.0275V26.6305C22.223 28.3986 20.7849 29.8368 19.0168 29.8368ZM6.57238 26.2799H18.6661V21.3782H6.57238V26.2799Z" fill="white"/>
<path d="M28.8638 36.1711H43.238C44.2209 36.1711 45.0164 35.3757 45.0164 34.3927C45.0164 33.4097 44.2209 32.6143 43.238 32.6143H28.8638C27.8808 32.6143 27.0853 33.4097 27.0853 34.3927C27.0853 35.3757 27.8808 36.1711 28.8638 36.1711Z" fill="url(#paint1_linear)"/>
<path d="M28.8623 36.1711C29.4773 36.1711 30.0745 35.8532 30.4045 35.2818L34.0519 28.9631C34.5436 28.1118 34.2516 27.0248 33.4008 26.5331C32.5533 26.04 31.4644 26.3315 30.9708 27.1842L27.3234 33.5029C26.8317 34.3542 27.1237 35.4412 27.9745 35.9329C28.2443 36.0892 28.5506 36.1713 28.8623 36.1711Z" fill="url(#paint2_linear)"/>
<path d="M32.5129 42.4899C32.8153 42.4899 33.1209 42.4135 33.4003 42.2518C34.2515 41.7601 34.5431 40.6731 34.0514 39.8218L30.404 33.5031C29.9123 32.6518 28.8234 32.3603 27.974 32.852C27.1228 33.3437 26.8312 34.4307 27.3229 35.282L30.9703 41.6007C31.3007 42.1707 31.8979 42.4899 32.5129 42.4899Z" fill="url(#paint3_linear)"/>
</g>
<defs>
<linearGradient id="paint0_linear" x1="6.47021" y1="24.4864" x2="42.2026" y2="24.4864" gradientUnits="userSpaceOnUse">
<stop stop-color="#25A1FF"/>
<stop offset="1" stop-color="#25A1FF" stop-opacity="0.6"/>
</linearGradient>
<linearGradient id="paint1_linear" x1="27.0853" y1="34.3683" x2="45.0164" y2="34.3683" gradientUnits="userSpaceOnUse">
<stop stop-color="#25A1FF"/>
<stop offset="1" stop-color="#25A1FF" stop-opacity="0.6"/>
</linearGradient>
<linearGradient id="paint2_linear" x1="27.0846" y1="31.1645" x2="34.2907" y2="31.1645" gradientUnits="userSpaceOnUse">
<stop stop-color="#25A1FF"/>
<stop offset="1" stop-color="#25A1FF" stop-opacity="0.6"/>
</linearGradient>
<linearGradient id="paint3_linear" x1="27.084" y1="37.4838" x2="34.2903" y2="37.4838" gradientUnits="userSpaceOnUse">
<stop stop-color="#25A1FF"/>
<stop offset="1" stop-color="#25A1FF" stop-opacity="0.6"/>
</linearGradient>
</defs>
</svg>
