<?xml version="1.0" standalone="no"?><!DOCTYPE svg PUBLIC "-//W3C//DTD SVG 1.1//EN" "http://www.w3.org/Graphics/SVG/1.1/DTD/svg11.dtd"><svg t="1638840621298" class="icon" viewBox="0 0 1024 1024" version="1.1" xmlns="http://www.w3.org/2000/svg" p-id="4265" xmlns:xlink="http://www.w3.org/1999/xlink" width="32" height="32"><defs><style type="text/css"></style></defs><path d="M928.961058 958.608512V190.687541c0-85.510209-25.425006-97.793693-108.428842-97.793693H204.84516c-82.958677 0-108.383682 12.283484-108.383683 97.793693v767.920971H0.02258v65.391488h1024.09032v-65.391488h-95.151842z m-63.427034 0H159.888512V190.687541c0-29.850673 2.461213-32.402205 44.956648-32.402205h615.687056c45.001808 0 45.001808 0 45.001808 32.402205v767.920971z" fill="#666666" p-id="4266" data-spm-anchor-id="a313x.7781069.0.i8" class=""></path><path d="M637.815391 550.272988v-63.652834a125.883131 125.883131 0 0 0-125.747651-125.747651 125.905711 125.905711 0 0 0-125.747652 125.747651v63.652834a71.917089 71.917089 0 0 0-66.272106 71.57839v144.308357a72.165469 72.165469 0 0 0 72.142889 72.142889h239.708578a72.188049 72.188049 0 0 0 72.165468-72.142889V621.851378a71.917089 71.917089 0 0 0-66.249526-71.57839z m-45.159867-0.587078h-161.198148v-63.065756c0-44.43731 36.173054-80.587784 80.587784-80.587784s80.587784 36.150474 80.587784 80.587784v63.065756z" fill="#666666" p-id="4267" data-spm-anchor-id="a313x.7781069.0.i9" class=""></path></svg>