<svg width="80" height="80" viewBox="0 0 80 80" fill="none" xmlns="http://www.w3.org/2000/svg">
<path d="M39.9747 64.9777C54.213 64.9777 65.9652 53.2254 65.9652 39.0123C65.9652 24.7991 54.1878 13.0469 39.9496 13.0469C25.7364 13.0469 14.0093 24.7991 14.0093 39.0123C14.0093 53.2254 25.7615 64.9777 39.9747 64.9777ZM33.1694 50.9905C31.6376 50.9905 30.7838 49.9107 30.7838 48.2533V29.9219C30.7838 28.139 31.6627 27.0089 33.3954 27.0089H40.7029C46.2024 27.0089 49.5673 29.947 49.5673 34.6931C49.5673 37.9325 47.6588 40.6194 44.6454 41.5737L48.2866 47.1735C48.6633 47.7511 48.814 48.2282 48.814 48.8811C48.814 50.1116 47.8848 50.9905 46.579 50.9905C45.4741 50.9905 44.8714 50.5385 44.093 49.308L39.8742 42.3772H35.6555V48.2533C35.6555 49.9609 34.7766 50.9905 33.1694 50.9905ZM35.6555 38.7863H40.0249C42.8123 38.7863 44.5701 37.3549 44.5701 34.8186C44.5701 32.2321 42.7872 30.7254 40.1002 30.7254H35.6555V38.7863Z" fill="#4CAF50"/>
</svg>
