<svg width="25" height="24" viewBox="0 0 25 24" fill="none" xmlns="http://www.w3.org/2000/svg">
<g clip-path="url(#clip0_717_1567)">
<path d="M12.2137 2C6.59541 2 2.03564 6.48 2.03564 12C2.03564 17.52 6.59541 22 12.2137 22C17.832 22 22.3917 17.52 22.3917 12C22.3917 6.48 17.832 2 12.2137 2ZM12.2137 20C7.72517 20 4.07125 16.41 4.07125 12C4.07125 7.59 7.72517 4 12.2137 4C16.7022 4 20.3561 7.59 20.3561 12C20.3561 16.41 16.7022 20 12.2137 20Z" fill="#666666"/>
<path d="M8.14242 16C9.26666 16 10.178 15.1046 10.178 14C10.178 12.8954 9.26666 12 8.14242 12C7.01818 12 6.10681 12.8954 6.10681 14C6.10681 15.1046 7.01818 16 8.14242 16Z" fill="#666666"/>
<path d="M12.2137 10C13.3379 10 14.2493 9.10457 14.2493 8C14.2493 6.89543 13.3379 6 12.2137 6C11.0895 6 10.1781 6.89543 10.1781 8C10.1781 9.10457 11.0895 10 12.2137 10Z" fill="#666666"/>
<path d="M16.2849 16C17.4091 16 18.3205 15.1046 18.3205 14C18.3205 12.8954 17.4091 12 16.2849 12C15.1606 12 14.2493 12.8954 14.2493 14C14.2493 15.1046 15.1606 16 16.2849 16Z" fill="#666666"/>
</g>
<defs>
<clipPath id="clip0_717_1567">
<rect width="24.4273" height="24" fill="white"/>
</clipPath>
</defs>
</svg>
