<svg width="16" height="16" viewBox="0 0 16 16" fill="none" xmlns="http://www.w3.org/2000/svg">
<path d="M3.69591 12.4932H12.2991C13.384 12.4932 13.9465 11.9358 13.9465 10.866V4.74881C13.9465 3.67906 13.384 3.12158 12.2991 3.12158H3.69591C2.61108 3.12158 2.04858 3.67404 2.04858 4.74881V10.866C2.04858 11.9358 2.61108 12.4932 3.69591 12.4932ZM3.75617 11.5089C3.2891 11.5089 3.03296 11.2678 3.03296 10.7806V4.83419C3.03296 4.34703 3.2891 4.10093 3.75617 4.10093H12.2389C12.7009 4.10093 12.9621 4.34703 12.9621 4.83419V10.7806C12.9621 11.2678 12.7009 11.5089 12.2389 11.5089H3.75617ZM5.97604 7.77727C6.57872 7.7823 7.06086 7.27504 7.06086 6.59703C7.06086 5.96422 6.57872 5.43687 5.97604 5.43687C5.37838 5.43687 4.89122 5.96422 4.89122 6.59703C4.89122 7.27504 5.37838 7.77727 5.97604 7.77727ZM9.19535 6.19022H11.8019C11.9878 6.19022 12.1234 6.0496 12.1234 5.86879C12.1234 5.69301 11.9878 5.55741 11.8019 5.55741H9.19535C9.00952 5.55741 8.87392 5.69301 8.87392 5.86879C8.87392 6.0496 9.00952 6.19022 9.19535 6.19022ZM9.19535 8.12884H11.8019C11.9878 8.12884 12.1234 7.98821 12.1234 7.80741C12.1234 7.63163 11.9878 7.491 11.8019 7.491H9.19535C9.00952 7.491 8.87392 7.63163 8.87392 7.80741C8.87392 7.98821 9.00952 8.12884 9.19535 8.12884ZM4.08262 10.0624H7.86945C8.05026 10.0624 8.14568 9.93687 8.14568 9.77114C8.14568 9.30406 7.45762 8.11377 5.97604 8.11377C4.49445 8.11377 3.81142 9.30406 3.81142 9.77114C3.81142 9.93687 3.90182 10.0624 4.08262 10.0624ZM9.19535 10.0624H11.8019C11.9878 10.0624 12.1234 9.92683 12.1234 9.75105C12.1234 9.57024 11.9878 9.42459 11.8019 9.42459H9.19535C9.00952 9.42459 8.87392 9.57024 8.87392 9.75105C8.87392 9.92683 9.00952 10.0624 9.19535 10.0624Z" fill="#666666"/>
</svg>
