<svg width="49" height="48" viewBox="0 0 49 48" fill="none" xmlns="http://www.w3.org/2000/svg">
<path d="M15.3694 37.51H33.6155C36.885 37.51 38.5725 35.8225 38.5725 32.5982V14.2617C38.5725 11.0374 36.885 9.34985 33.6155 9.34985H15.3694C12.1149 9.34985 10.4124 11.0223 10.4124 14.2617V32.5982C10.4124 35.8225 12.1149 37.51 15.3694 37.51ZM15.5653 34.5117C14.1791 34.5117 13.4107 33.7885 13.4107 32.327V14.5329C13.4107 13.0714 14.1791 12.3482 15.5653 12.3482H33.4196C34.7907 12.3482 35.5742 13.0714 35.5742 14.5329V32.327C35.5742 33.7885 34.7907 34.5117 33.4196 34.5117H15.5653ZM18.9403 24.8236H23.0837V28.967C23.0837 29.8108 23.6713 30.3984 24.4849 30.3984C25.3286 30.3984 25.9313 29.8108 25.9313 28.967V24.8236H30.0747C30.9034 24.8236 31.491 24.236 31.491 23.4224C31.491 22.5786 30.9034 21.976 30.0747 21.976H25.9313V17.8476C25.9313 16.9888 25.3286 16.4163 24.4849 16.4163C23.6713 16.4163 23.0837 17.0039 23.0837 17.8476V21.976H18.9403C18.0965 21.976 17.5089 22.5786 17.5089 23.4224C17.5089 24.236 18.0965 24.8236 18.9403 24.8236Z" fill="white"/>
</svg>
