<svg width="40" height="40" viewBox="0 0 40 40" fill="none" xmlns="http://www.w3.org/2000/svg">
<path d="M18.3552 34.5857C22.147 34.5857 25.2232 31.522 25.2232 27.7176C25.2232 25.7715 24.4322 24.0639 22.938 22.6828C22.6744 22.4442 22.6116 22.2935 22.6116 21.942L22.6241 10.9431C22.6241 8.13058 20.904 6.25977 18.3552 6.25977C15.7812 6.25977 14.036 8.13058 14.036 10.9431L14.0611 21.942C14.0611 22.2935 13.9983 22.4442 13.7346 22.6828C12.2279 24.0513 11.4495 25.7715 11.4495 27.7176C11.4495 31.522 14.5256 34.5857 18.3552 34.5857ZM18.3552 32.4009C15.7435 32.4009 13.6467 30.2916 13.6467 27.6925C13.6467 26.0979 14.4001 24.7168 15.7184 23.8253C16.1077 23.5742 16.2583 23.3357 16.2583 22.8334V11.031C16.2583 9.4615 17.0996 8.45703 18.3552 8.45703C19.5731 8.45703 20.4143 9.4615 20.4143 11.031V22.8334C20.4143 23.3357 20.565 23.5742 20.9542 23.8253C22.2726 24.7168 23.0259 26.0979 23.0259 27.6925C23.0259 30.2916 20.9291 32.4009 18.3552 32.4009ZM25.0223 11.1691H27.772C28.2491 11.1691 28.5505 10.8175 28.5505 10.4032C28.5505 9.98884 28.2491 9.63728 27.772 9.63728H25.0223C24.5452 9.63728 24.2313 9.98884 24.2313 10.4032C24.2313 10.8175 24.5452 11.1691 25.0223 11.1691ZM25.0223 14.647H27.772C28.2491 14.647 28.5505 14.2955 28.5505 13.8811C28.5505 13.4668 28.2491 13.1152 27.772 13.1152H25.0223C24.5452 13.1152 24.2313 13.4668 24.2313 13.8811C24.2313 14.2955 24.5452 14.647 25.0223 14.647ZM25.0223 18.1501H27.772C28.2491 18.1501 28.5505 17.7985 28.5505 17.3842C28.5505 16.9699 28.2491 16.6183 27.772 16.6183H25.0223C24.5452 16.6183 24.2313 16.9699 24.2313 17.3842C24.2313 17.7985 24.5452 18.1501 25.0223 18.1501ZM18.33 30.7059C20 30.7059 21.3434 29.3624 21.3434 27.68C21.3434 26.5248 20.6905 25.558 19.7237 25.0432C19.322 24.8298 19.1964 24.6791 19.1964 24.0765V17.6604C19.1964 17.0201 18.8197 16.6183 18.33 16.6183C17.8529 16.6183 17.4762 17.0201 17.4762 17.6604V24.0765C17.4762 24.6791 17.3507 24.8298 16.9489 25.0432C15.9821 25.558 15.3292 26.5248 15.3292 27.68C15.3292 29.3624 16.6727 30.7059 18.33 30.7059ZM25.0223 21.6406H27.772C28.2491 21.6406 28.5505 21.2891 28.5505 20.8747C28.5505 20.4604 28.2491 20.1088 27.772 20.1088H25.0223C24.5452 20.1088 24.2313 20.4604 24.2313 20.8747C24.2313 21.2891 24.5452 21.6406 25.0223 21.6406Z" fill="#666666"/>
</svg>
