<svg width="25" height="24" viewBox="0 0 25 24" fill="none" xmlns="http://www.w3.org/2000/svg">
<path d="M6.47321 16.6834H18.5193C19.2952 16.6834 19.7698 16.2615 19.7698 15.6287C19.7698 14.8302 19.0466 14.1446 18.3686 13.4968C17.8337 12.9769 17.7132 11.8921 17.6152 10.8902C17.4947 8.13292 16.6886 6.18928 14.7374 5.48866C14.4286 4.49425 13.6074 3.72583 12.4925 3.72583C11.385 3.72583 10.5639 4.49425 10.2475 5.48866C8.30385 6.18928 7.49023 8.13292 7.37723 10.8902C7.2793 11.8921 7.15123 12.9769 6.62388 13.4968C5.94587 14.1446 5.22266 14.8302 5.22266 15.6287C5.22266 16.2615 5.69727 16.6834 6.47321 16.6834ZM12.4925 19.7872C13.8334 19.7872 14.8052 18.8305 14.9032 17.7381H10.0893C10.1872 18.8305 11.159 19.7872 12.4925 19.7872Z" fill="white"/>
</svg>
