<?xml version="1.0" standalone="no"?><!DOCTYPE svg PUBLIC "-//W3C//DTD SVG 1.1//EN" "http://www.w3.org/Graphics/SVG/1.1/DTD/svg11.dtd"><svg t="1639364322300" class="icon" viewBox="0 0 1024 1024" version="1.1" xmlns="http://www.w3.org/2000/svg" p-id="2357" xmlns:xlink="http://www.w3.org/1999/xlink" width="32" height="32"><defs><style type="text/css"></style></defs><path d="M716.8 456C697.6 360 611.2 288 512 288s-185.6 72-204.8 168C257.6 473.6 224 521.6 224 576c0 70.4 57.6 128 128 128h320c70.4 0 128-57.6 128-128 0-54.4-33.6-102.4-83.2-120zM672 640H352c-35.2 0-64-28.8-64-64 0-32 22.4-57.6 54.4-62.4 14.4-1.6 25.6-14.4 27.2-28.8 6.4-73.6 68.8-131.2 144-131.2s137.6 57.6 144 131.2c1.6 14.4 12.8 27.2 27.2 28.8 30.4 4.8 54.4 32 54.4 62.4-3.2 35.2-32 64-67.2 64zM96 480h4.8c16 0 28.8-11.2 32-27.2C160 267.2 323.2 128 512 128c179.2 0 332.8 121.6 374.4 296 3.2 16 19.2 25.6 35.2 24s28.8-16 28.8-32V192c0-17.6-14.4-32-32-32s-32 14.4-32 32v70.4C803.2 140.8 665.6 64 512 64 292.8 64 102.4 227.2 68.8 443.2c-1.6 17.6 9.6 35.2 27.2 36.8z m832 64c-17.6-3.2-33.6 9.6-36.8 27.2C864 756.8 700.8 896 512 896c-179.2 0-332.8-121.6-374.4-296-3.2-16-19.2-27.2-35.2-24-16 1.6-28.8 16-28.8 32v224c0 17.6 14.4 32 32 32s32-14.4 32-32v-70.4C220.8 883.2 358.4 960 512 960c219.2 0 409.6-163.2 443.2-379.2 1.6-17.6-9.6-35.2-27.2-36.8z" p-id="2358" fill="#666666"></path></svg>