<svg width="58" height="59" viewBox="0 0 58 59" fill="none" xmlns="http://www.w3.org/2000/svg">
<circle cx="29" cy="35" r="24" fill="white"/>
<path opacity="0.59" d="M26.0927 52.852H18.9067C19.0404 50.839 20.0588 48.8531 21.7331 47.223L21.8334 47.1279C21.8617 47.1012 21.89 47.0741 21.9189 47.048C21.9478 47.0219 21.9755 46.9942 22.0055 46.9681C22.5669 46.4577 23.1735 45.9994 23.818 45.5991C23.8458 48.4504 24.6252 50.9262 26.0927 52.852ZM41.2146 52.852H33.9845C35.4719 50.9007 36.2501 48.3858 36.2609 45.4887V45.4592C38.296 46.7053 39.8088 48.4136 40.6018 50.2975C40.6177 50.3332 40.6324 50.3694 40.6465 50.4057C40.6468 50.4079 40.6468 50.4102 40.6465 50.4124C40.6613 50.4476 40.6754 50.4832 40.689 50.5189C40.7026 50.5546 40.7145 50.5852 40.727 50.6186C40.7434 50.6611 40.7593 50.7041 40.774 50.7472C40.7887 50.7902 40.8046 50.8327 40.8187 50.8758C40.8329 50.9188 40.8482 50.9619 40.8612 51.0055C40.8742 51.0491 40.8884 51.0921 40.9009 51.1352C40.9133 51.1782 40.9263 51.2218 40.9388 51.2655C40.9513 51.3091 40.9637 51.3527 40.9745 51.3963C41.0202 51.5707 41.06 51.7461 41.094 51.9225C41.1031 51.9661 41.111 52.0103 41.1178 52.0545C41.1246 52.0986 41.1331 52.1428 41.1393 52.187C41.1529 52.2754 41.1648 52.3643 41.1756 52.4526C41.1933 52.5852 41.2063 52.7183 41.2146 52.852Z" fill="#72349B"/>
<path opacity="0.56" d="M48.9091 28.6601C48.8321 29.3483 48.5438 30.2942 47.6064 30.8889C47.5837 30.9031 47.5625 30.9194 47.5429 30.9376C47.5209 30.9473 47.4959 30.9586 47.4687 30.9722C47.4416 30.9858 47.3855 31.0022 47.3368 31.0181C47.0966 31.0962 46.7976 31.1931 46.6452 31.4519C46.486 31.7193 46.554 32.0676 46.6322 32.4715C46.6642 32.6097 46.6852 32.7502 46.695 32.8917C46.6384 33.3704 46.4753 33.7685 46.2306 34.0138C44.9845 35.2599 43.5033 35.1551 42.9233 35.0514C42.6707 35.0092 42.4245 34.9346 42.191 34.8294C42.7214 33.8869 43.1189 32.8755 43.3719 31.8241C43.4665 31.802 43.5617 31.7754 43.6551 31.7453C44.6146 31.4395 45.4897 30.7666 46.119 29.8496C47.4427 27.921 47.2626 25.4882 45.7174 24.4285C45.1363 24.032 44.4368 23.8678 43.6976 23.951V23.5823C43.6975 23.5719 43.6952 23.5616 43.6907 23.5521C43.6862 23.5427 43.6797 23.5344 43.6717 23.5278C43.6636 23.5211 43.6542 23.5163 43.6441 23.5137C43.634 23.5111 43.6235 23.5107 43.6132 23.5126C43.3419 23.5603 43.0654 23.5702 42.7914 23.5421C42.6199 23.526 42.4512 23.4879 42.2895 23.4288C42.0652 23.3435 41.8481 23.2403 41.6404 23.1201C41.2251 22.8755 40.862 22.5516 40.5716 22.1668C40.2305 21.7269 40.0192 21.2003 39.9616 20.6466L39.9559 20.5707C39.9344 20.2626 39.9044 19.8406 39.5781 19.5449C39.4917 19.4666 39.393 19.4031 39.2859 19.3569C39.168 19.3081 39.0459 19.2702 38.9211 19.2436L38.8707 19.2317C37.2281 18.8352 35.9333 17.2063 35.9209 15.5229V15.5116C35.925 15.3244 35.9075 15.1374 35.8687 14.9542C35.8665 14.9459 35.8628 14.9381 35.858 14.931C35.7509 14.7747 35.6528 14.6124 35.564 14.445L35.5453 14.4224C35.5255 14.4065 35.504 14.3906 35.4813 14.3754C35.3862 14.3109 35.2789 14.2664 35.1661 14.2446C35.0533 14.2228 34.9372 14.2241 34.8249 14.2485C34.3525 14.347 34.0024 14.7956 33.8353 15.055C32.6459 16.9208 31.1313 18.3555 29.461 19.2051C27.5698 20.168 25.452 20.3804 23.6531 19.7817L23.6389 19.7766C23.3557 19.6814 22.9722 19.55 22.5797 19.6956C22.5622 19.7018 22.5452 19.7092 22.5287 19.716C21.9102 19.9811 21.8287 20.6947 21.7749 21.1711C21.7707 21.2058 21.7667 21.2398 21.763 21.273C21.7296 21.5454 21.6555 21.8111 21.5432 22.0615C21.5058 22.0762 21.4684 22.0921 21.4299 22.1085C21.389 22.1263 21.352 22.1521 21.321 22.1842C21.2901 22.2164 21.2657 22.2543 21.2494 22.2959C21.2331 22.3374 21.2252 22.3818 21.226 22.4264C21.2268 22.471 21.2365 22.5151 21.2543 22.556C21.2553 22.5588 21.2566 22.5614 21.2583 22.5639C21.0836 22.8136 20.8709 23.0343 20.6279 23.2181C20.6057 23.235 20.5852 23.2539 20.5667 23.2747C20.1442 23.7335 18.8675 23.9737 18.0689 23.7431C17.907 23.7011 17.7558 23.6252 17.6254 23.5205C17.6098 23.507 17.5931 23.4947 17.5755 23.4837C17.4705 23.4176 17.3732 23.3399 17.2855 23.2521C17.2756 23.242 17.2629 23.235 17.249 23.2321C17.2352 23.2293 17.2207 23.2306 17.2076 23.2359C17.1945 23.2413 17.1833 23.2504 17.1753 23.2622C17.1674 23.2739 17.1632 23.2877 17.1632 23.3019V23.9533C16.424 23.87 15.7245 24.032 15.1439 24.4308C14.377 24.957 13.9205 25.8236 13.8582 26.8714C13.7987 27.8762 14.1125 28.9348 14.7418 29.8518C15.3711 30.7688 16.2462 31.4417 17.2057 31.7476C17.3008 31.7776 17.396 31.8042 17.4889 31.8263C17.8372 33.2715 18.4565 34.6374 19.3138 35.8518C18.5871 36.0531 17.8217 36.0705 17.0865 35.9024C16.3514 35.7343 15.6696 35.386 15.1026 34.8889C14.1238 34.0319 13.7194 32.9263 14.0967 32.1379C14.138 32.0548 14.1619 31.9642 14.1668 31.8715C14.1718 31.7789 14.1577 31.6862 14.1255 31.5992C13.9862 31.2186 13.5625 31.0266 13.1519 30.8414C13.0257 30.7896 12.9037 30.728 12.7871 30.6573C12.2926 30.2194 11.9641 29.6083 11.8373 28.8912C11.592 27.4752 12.0978 25.8485 13.0935 24.8454C13.2036 24.741 13.283 24.6085 13.323 24.4622C13.3631 24.3159 13.3623 24.1614 13.3207 24.0156C13.2801 23.8786 13.2081 23.753 13.1104 23.6489C13.0126 23.5447 12.8918 23.4649 12.7577 23.4158C12.7041 23.3817 12.6471 23.3532 12.5877 23.3308L12.5708 23.3246C11.6588 23.0136 11.0511 21.6554 11.6526 19.6594C12.2128 17.8032 13.0318 17.2595 14.2756 16.7588C14.4076 16.7056 14.5447 16.6529 14.6868 16.5991C14.816 16.5512 14.932 16.4732 15.0252 16.3717C15.1183 16.2702 15.186 16.1479 15.2227 16.0151C15.2856 15.7837 15.258 15.537 15.1456 15.3252C15.1332 15.1923 15.1249 15.0616 15.1207 14.9333C15.0816 13.792 15.3728 12.8376 15.9868 12.095C17.2142 10.6082 19.3569 10.4094 19.3773 10.4071C19.4679 10.3996 19.5542 10.3651 19.6249 10.3079C19.6956 10.2507 19.7475 10.1736 19.7737 10.0865C19.7828 10.0565 20.7015 7.11346 23.8632 6.1466C27.0696 5.16616 28.8142 5.87983 29.3874 6.11432L29.423 6.12905C29.943 6.34258 30.3916 6.52553 31.0656 6.2242L31.1483 6.18625C32.8084 5.41198 34.7518 5.43123 36.9257 6.24289C39.5357 7.21881 40.4702 9.067 40.92 9.95512C41.1301 10.3709 41.2462 10.5997 41.5237 10.6654C41.6994 10.6999 41.8807 10.6943 42.0539 10.649L42.1015 10.6399C42.997 10.47 44.1689 11.3145 44.8202 12.1941C45.4648 13.0596 45.761 14.0831 45.6432 14.9967C45.6299 15.0998 45.611 15.2021 45.5866 15.3031C45.464 15.5181 45.4312 15.7727 45.4954 16.0117C45.5319 16.1455 45.6 16.2686 45.6939 16.3707C45.7879 16.4728 45.9049 16.5509 46.0352 16.5985L46.1649 16.6478C46.2612 16.684 46.3541 16.7191 46.4435 16.7543C47.6154 17.2046 48.1926 17.5353 48.7477 19.3405C49.3271 21.2238 48.1954 23.1677 47.9241 23.4413C47.6262 23.6015 47.4229 23.8593 47.377 24.1374C47.3575 24.2651 47.3694 24.3956 47.4115 24.5178C47.4536 24.6399 47.5248 24.75 47.6188 24.8386C48.5409 25.7714 49.0609 27.3041 48.9091 28.6601Z" fill="#C584CE"/>
<path d="M49.1673 28.1175C49.0297 29.3466 48.4389 30.3599 47.5015 30.9773C47.468 31.0095 47.4312 31.0379 47.3917 31.0623C47.3798 31.0696 47.3673 31.0764 47.3548 31.0827C47.3282 31.0963 47.3016 31.1081 47.2755 31.1195C47.2619 31.1257 47.2484 31.1314 47.2353 31.1382L47.211 31.1501C47.1341 31.1831 47.0554 31.2119 46.9753 31.2362C46.9334 31.2497 46.8706 31.2701 46.8179 31.2928C46.8303 31.3993 46.8598 31.5528 46.8802 31.6564C46.93 31.913 46.977 32.1554 46.9533 32.3554C46.8966 32.8346 46.7267 33.5131 46.2305 34.0121C45.6946 34.5489 45.0354 34.9463 44.3105 35.1696C43.5856 35.3928 42.817 35.4351 42.072 35.2928C41.7255 35.2289 41.3894 35.1181 41.0728 34.9637C41.2416 34.7114 41.4004 34.4528 41.5492 34.1877C41.7827 34.2929 42.0289 34.3675 42.2815 34.4097C42.8615 34.5134 44.345 34.6193 45.5888 33.3721C45.8335 33.1268 45.9983 32.7286 46.0532 32.25C46.0434 32.1085 46.0224 31.968 45.9904 31.8298C45.9122 31.4265 45.8442 31.0781 46.0034 30.8102C46.1558 30.5514 46.4565 30.4545 46.695 30.3764C46.7437 30.3605 46.7981 30.3424 46.8269 30.3305C46.8558 30.3186 46.8791 30.3056 46.9011 30.2959C46.9207 30.2777 46.9419 30.2613 46.9646 30.2472C47.9014 29.6525 48.1897 28.7066 48.2673 28.0184C48.4191 26.6636 47.9009 25.1297 46.9776 24.1986C46.8835 24.11 46.8124 23.9999 46.7703 23.8778C46.7281 23.7556 46.7163 23.6251 46.7358 23.4973C46.7816 23.2192 46.985 22.9615 47.2829 22.8012C47.5542 22.5277 48.6859 20.5838 48.1065 18.7005C47.5514 16.8953 46.9736 16.5645 45.8023 16.1142C45.7128 16.0791 45.6199 16.044 45.5236 16.0078L45.3939 15.9585C45.2636 15.9109 45.1466 15.8328 45.0527 15.7307C44.9588 15.6286 44.8907 15.5055 44.8541 15.3717C44.79 15.1327 44.8228 14.8781 44.9453 14.6631C44.9697 14.5621 44.9886 14.4598 45.002 14.3567C45.1198 13.4431 44.8236 12.4196 44.179 11.5541C43.5288 10.6745 42.3569 9.83223 41.4602 9.99989L41.4127 10.009C41.2394 10.0543 41.0582 10.0599 40.8825 10.0254C40.605 9.95967 40.4889 9.73084 40.2787 9.3151C39.829 8.42698 38.8944 6.57879 36.2844 5.60288C34.1117 4.79065 32.1684 4.77139 30.5071 5.54624L30.4244 5.58418C29.7498 5.88665 29.3012 5.70256 28.7818 5.48903L28.7461 5.4743C28.1729 5.23981 26.4284 4.52614 23.222 5.50659C20.0603 6.47344 19.1438 9.41479 19.1325 9.44651C19.1062 9.53356 19.0543 9.61068 18.9836 9.66786C18.9129 9.72503 18.8267 9.75961 18.736 9.76709C18.7156 9.76709 16.5729 9.96817 15.3455 11.455C14.7315 12.1981 14.4393 13.1542 14.4795 14.2932C14.4833 14.4213 14.4916 14.5519 14.5044 14.6852C14.6168 14.897 14.6443 15.1437 14.5814 15.3751C14.5446 15.5074 14.4769 15.6291 14.384 15.7302C14.291 15.8313 14.1755 15.9089 14.0467 15.9568C13.9046 16.0106 13.7675 16.0633 13.6355 16.1165C12.3894 16.6172 11.5727 17.161 11.0125 19.0171C10.411 21.0131 11.0187 22.3713 11.9307 22.6823L11.9476 22.6885C12.007 22.711 12.064 22.7394 12.1176 22.7735C12.2517 22.8226 12.3725 22.9024 12.4703 23.0066C12.568 23.1107 12.64 23.2363 12.6806 23.3733C12.722 23.5182 12.7231 23.6716 12.6839 23.8171C12.6447 23.9626 12.5666 24.0947 12.458 24.1991C11.4622 25.2022 10.9564 26.829 11.2017 28.245C11.3286 28.962 11.6548 29.5732 12.1516 30.011C12.2682 30.0818 12.3901 30.1433 12.5163 30.1951C12.927 30.3803 13.3506 30.5723 13.49 30.953C13.5222 31.04 13.5362 31.1326 13.5313 31.2253C13.5263 31.3179 13.5024 31.4085 13.4611 31.4916C13.0839 32.28 13.4883 33.3857 14.467 34.2426C15.034 34.7398 15.7158 35.0881 16.451 35.2562C17.1861 35.4243 17.9515 35.4069 18.6783 35.2055C18.8633 35.4699 19.0591 35.7251 19.2656 35.9713C18.6881 36.165 18.0832 36.2645 17.4741 36.2658C16.1509 36.2644 14.8722 35.7885 13.87 34.9246C12.6336 33.8416 12.1295 32.382 12.582 31.243C12.4402 31.161 12.2936 31.0877 12.1431 31.0232C11.9165 30.9201 11.7007 30.8232 11.5529 30.6935C10.9015 30.1169 10.4722 29.3257 10.3068 28.403C10.0134 26.7089 10.5837 24.8392 11.7619 23.6146C11.7126 23.5975 11.6668 23.5718 11.6265 23.5387C10.9049 23.2878 10.3521 22.6891 10.0689 21.8548C9.77265 20.9785 9.7987 19.908 10.1453 18.7582C10.8652 16.3635 12.0757 15.7348 13.7069 15.1157C13.6693 15.0667 13.6422 15.0106 13.627 14.9508C13.6211 14.9274 13.6167 14.9035 13.614 14.8795C13.614 14.8704 13.614 14.8614 13.6101 14.8523C13.4401 13.2482 13.7919 11.907 14.6517 10.8716C15.8411 9.43405 17.6565 9.01491 18.3662 8.90219C18.6986 8.05258 19.9108 5.57116 22.9575 4.63999C26.4731 3.56381 28.4425 4.37094 29.0899 4.63602L29.1239 4.64961C29.619 4.85239 29.747 4.89487 30.0545 4.75723L30.1253 4.72495C32.0137 3.84418 34.1927 3.85381 36.6022 4.75497C39.543 5.85436 40.6237 7.99311 41.087 8.90672C41.1238 8.97922 41.1657 9.06135 41.2003 9.12762L41.2342 9.11913L41.2909 9.10723C42.6236 8.85858 44.0974 9.92002 44.9046 11.0121C45.7859 12.1953 46.128 13.6464 45.8199 14.8965C45.8096 14.9761 45.7783 15.0515 45.7292 15.1151L45.8425 15.1581C47.288 15.7042 48.243 16.0644 48.9714 18.432C49.1083 18.8821 49.177 19.3503 49.1753 19.8208C49.1688 20.4982 49.0478 21.1696 48.8173 21.8066C48.559 22.5362 48.0878 23.409 47.7241 23.5902C47.7081 23.5981 47.6928 23.6072 47.6783 23.6174C48.7476 24.7366 49.3446 26.5327 49.1673 28.1175Z" fill="#31296B"/>
<path d="M51.2259 5.97842V6.06961L51.1981 6.09284C51.1934 6.09224 51.1887 6.09224 51.184 6.09284C50.9279 6.0985 50.6742 5.92291 50.6742 5.64708C50.6726 5.58076 50.6868 5.51501 50.7156 5.45527C50.7444 5.39552 50.787 5.34349 50.8399 5.30348C50.8928 5.26347 50.9545 5.23662 51.0199 5.22516C51.0852 5.2137 51.1523 5.21795 51.2157 5.23756H51.2253V5.35877C51.0271 5.31969 50.8152 5.44147 50.8226 5.66237C50.83 5.87307 51.0333 5.99825 51.2259 5.97842Z" fill="#F5E0CD"/>
<path d="M51.2258 5.44424V5.89057C51.0939 5.90416 50.954 5.84809 50.9166 5.70875C50.8667 5.52467 51.0486 5.40346 51.2145 5.44141C51.2181 5.44293 51.2219 5.44389 51.2258 5.44424Z" fill="#C9AF9B"/>
<path d="M50.9296 5.98914C50.8901 5.98972 50.8524 6.00566 50.8245 6.03358C50.7966 6.0615 50.7807 6.09919 50.7801 6.13867V6.14943C50.7788 6.1698 50.7817 6.19022 50.7887 6.20941C50.7956 6.22861 50.8064 6.24619 50.8204 6.26106C50.8344 6.27593 50.8512 6.28778 50.87 6.29588C50.8887 6.30398 50.9089 6.30816 50.9293 6.30816C50.9497 6.30816 50.9699 6.30398 50.9887 6.29588C51.0074 6.28778 51.0243 6.27593 51.0383 6.26106C51.0522 6.24619 51.063 6.22861 51.07 6.20941C51.0769 6.19022 51.0798 6.1698 51.0786 6.14943V6.13867C51.0783 6.0992 51.0625 6.06142 51.0346 6.03346C51.0068 6.00549 50.9691 5.98958 50.9296 5.98914Z" fill="#662D91"/>
<path d="M41.491 52.4957C41.491 52.4579 41.4899 52.4202 41.4876 52.3824C41.4876 52.3575 41.4876 52.3331 41.4848 52.3088C41.4808 52.2119 41.4752 52.1151 41.4673 52.0188C41.4673 52.0029 41.4673 51.9865 41.4633 51.9701C41.4633 51.9514 41.4599 51.9327 41.4582 51.9134L41.4531 51.8568L41.4497 51.8222C41.2962 50.3314 40.7389 48.8769 39.8451 47.56C39.8122 47.5113 39.7782 47.4626 39.7442 47.4139C39.7103 47.3652 39.6757 47.3176 39.6406 47.2695C39.6196 47.2406 39.5987 47.2128 39.5766 47.1828C39.5545 47.1528 39.5239 47.1109 39.4962 47.0757C39.46 47.0282 39.4234 46.981 39.3863 46.9341C39.3574 46.8973 39.3296 46.8605 39.2979 46.8243C39.2662 46.788 39.2413 46.7518 39.2084 46.7155C39.145 46.64 39.0804 46.5645 39.0147 46.489C38.966 46.4323 38.9167 46.3757 38.8663 46.323C38.8607 46.3162 38.855 46.31 38.8488 46.3037C38.8221 46.2743 38.7921 46.2471 38.7678 46.2159C38.7434 46.1848 38.7264 46.1712 38.7055 46.1497L38.642 46.0834L38.5854 46.0268C38.5616 46.0018 38.5372 45.9775 38.5129 45.9531L38.5095 45.9497C38.4721 45.9118 38.4347 45.8744 38.3962 45.8364L38.3837 45.824L38.3752 45.8161L38.3611 45.8025C38.3396 45.7815 38.3186 45.7606 38.2965 45.7402L38.2144 45.662C38.1878 45.6365 38.1606 45.6116 38.1334 45.5867L38.1289 45.5821L38.0886 45.5453L38.049 45.5096L38.0416 45.5028L37.9555 45.4258L37.8989 45.3754L37.8423 45.3255C37.7856 45.2785 37.7324 45.231 37.6763 45.1839C37.5521 45.0801 37.4263 44.9785 37.2991 44.8792C37.2936 44.8742 37.2877 44.8697 37.2815 44.8656C37.2385 44.8316 37.1949 44.7982 37.1507 44.7659L37.1212 44.7433L37.0476 44.6866C36.9972 44.6481 36.9462 44.6107 36.8947 44.5734C36.8567 44.545 36.8182 44.5167 36.7814 44.4912L36.6653 44.4108C36.6543 44.4025 36.643 44.3947 36.6313 44.3876L36.5616 44.34L36.5146 44.3089C35.2813 43.4826 33.9184 42.8684 32.4824 42.4918V42.5371C33.4832 43.0242 34.0892 43.6014 34.4331 44.1956C34.5248 44.2398 34.6162 44.2851 34.7072 44.3315C34.7129 44.5082 34.7146 44.6838 34.7134 44.8577C34.7117 45.6054 34.6496 46.3517 34.5276 47.0893C34.1878 49.1006 33.3948 50.8356 32.1686 52.2029H26.6257C25.4499 50.8905 24.6688 49.2383 24.3091 47.3284C24.1574 46.509 24.0807 45.6774 24.0797 44.8441C24.0797 44.7082 24.081 44.5713 24.0837 44.4335C24.1583 44.3939 24.2338 44.3561 24.3102 44.3202C24.6501 43.7107 25.2618 43.1171 26.2893 42.6181V42.5938C25.3098 42.8754 24.3633 43.2615 23.4663 43.7453C23.1854 43.8963 22.9099 44.0572 22.6399 44.2279C22.5952 44.2556 22.5504 44.2845 22.5062 44.3128L22.3731 44.3983L22.2225 44.4997L22.0752 44.6011C21.9778 44.6695 21.8815 44.7389 21.7863 44.8096C21.738 44.8447 21.6904 44.8804 21.6436 44.9166L21.5303 45.0033C21.4548 45.0618 21.3806 45.1209 21.3077 45.1805L21.2822 45.2021C21.255 45.2236 21.2284 45.2457 21.2018 45.2678L21.1888 45.2785C21.1548 45.3069 21.1208 45.3352 21.0874 45.3641C21.054 45.393 21.0115 45.4281 20.9741 45.4609C20.8433 45.5742 20.7147 45.6915 20.5895 45.8093C20.5108 45.8835 20.4338 45.9577 20.3584 46.0358C20.3058 46.0879 20.2542 46.1406 20.2027 46.1933L20.1755 46.2222C20.1279 46.2709 20.0809 46.3202 20.035 46.37C20.0282 46.3774 20.0209 46.3847 20.0141 46.3927C19.9721 46.4372 19.9308 46.4825 19.89 46.5286C19.8747 46.545 19.86 46.5614 19.8453 46.5784L19.8288 46.5971C19.7858 46.6453 19.7439 46.6934 19.702 46.7421C19.6759 46.7722 19.6504 46.8027 19.6249 46.8333C19.574 46.8941 19.5235 46.9553 19.4737 47.0168C19.3982 47.109 19.3255 47.2022 19.2556 47.2966L19.1854 47.3907L19.1163 47.4858C19.0619 47.5613 19.0089 47.6369 18.9571 47.7124C18.905 47.7889 18.8541 47.8647 18.8048 47.9389C18.6998 48.1013 18.6007 48.2654 18.5074 48.4312C18.504 48.438 18.4995 48.4447 18.4961 48.4515L18.4893 48.4634C17.9102 49.478 17.5388 50.5976 17.3967 51.7571C17.3916 51.8013 17.3871 51.8455 17.3825 51.8896C17.378 51.9338 17.374 51.9803 17.3701 52.025C17.3661 52.0697 17.3633 52.1156 17.3604 52.1609C17.357 52.2176 17.3542 52.2742 17.3519 52.3309C17.3519 52.3739 17.3485 52.417 17.3474 52.46V52.6633C17.3474 52.7835 17.3952 52.8988 17.4801 52.9837C17.5651 53.0687 17.6804 53.1165 17.8005 53.1165H41.0396C41.1598 53.1165 41.2751 53.0687 41.36 52.9837C41.445 52.8988 41.4927 52.7835 41.4927 52.6633C41.4927 52.6073 41.4922 52.5512 41.491 52.4957ZM18.2633 52.2097C18.3924 50.1932 19.3785 48.2357 21.0908 46.5807L21.191 46.4856C21.2194 46.4589 21.2477 46.4289 21.2766 46.4057C21.3055 46.3825 21.3332 46.3519 21.3632 46.3258C21.9245 45.8154 22.5312 45.3571 23.1757 44.9568C23.2058 47.807 23.984 50.281 25.4516 52.2068L18.2633 52.2097ZM33.3422 52.2097C34.8295 50.2584 35.6078 47.7435 35.6185 44.8464V44.8169C37.6536 46.063 39.1665 47.7713 39.9595 49.6552C39.9753 49.6908 39.9901 49.7271 40.0042 49.7633C40.0054 49.7655 40.0064 49.7678 40.0071 49.7701C40.0218 49.8053 40.0359 49.8409 40.0495 49.8766C40.0631 49.9123 40.075 49.9429 40.0875 49.9763C40.1039 50.0188 40.1198 50.0618 40.1345 50.1049C40.1492 50.1479 40.1651 50.1904 40.1792 50.2335C40.1934 50.2765 40.2087 50.3196 40.2217 50.3632C40.2348 50.4068 40.2489 50.4498 40.2614 50.4929C40.2738 50.5359 40.2869 50.5795 40.2993 50.6231C40.3118 50.6668 40.3242 50.7104 40.335 50.754C40.3822 50.9273 40.422 51.1027 40.4545 51.2802C40.4636 51.3238 40.4715 51.368 40.4783 51.4122C40.4851 51.4563 40.4936 51.5005 40.4998 51.5447C40.5134 51.6331 40.5253 51.722 40.5361 51.8103C40.5519 51.9429 40.564 52.0764 40.5723 52.2108L33.3422 52.2097ZM38.0411 45.5028L38.0337 45.496L38.0411 45.5028ZM38.1255 45.5799L38.1209 45.5753L38.1255 45.5799ZM38.7055 46.1519L38.642 46.0857L38.7055 46.1519Z" fill="#31296B"/>
<path d="M45.479 29.2056C44.8497 30.1226 43.9746 30.7955 43.0151 31.1013C42.92 31.1313 42.8248 31.158 42.7319 31.1801C42.812 30.8493 42.8775 30.5132 42.9285 30.1719C43.624 29.9022 44.2595 29.3829 44.7336 28.6924C45.7747 27.1761 45.6965 25.3098 44.5637 24.5316C44.2282 24.3048 43.8313 24.1862 43.4263 24.1917C43.3027 24.192 43.1792 24.2016 43.0571 24.2206V23.307C43.7934 23.2237 44.4957 23.3857 45.0769 23.7845C46.6226 24.8454 46.8027 27.277 45.479 29.2056Z" fill="#FFBAB3"/>
<path d="M44.8232 26.5549C44.8053 26.5958 44.7796 26.6328 44.7474 26.6637C44.7153 26.6947 44.6774 26.719 44.6358 26.7353C44.5943 26.7517 44.5499 26.7596 44.5053 26.7588C44.4606 26.7579 44.4166 26.7483 44.3757 26.7304C44.2131 26.6596 43.8144 26.7367 43.4542 26.9853C43.3029 27.0913 43.1691 27.2203 43.0577 27.3677V26.4331L43.0679 26.4257C43.6111 26.0508 44.2313 25.9262 44.6476 26.1074C44.6885 26.1252 44.7255 26.151 44.7565 26.1831C44.7874 26.2153 44.8118 26.2532 44.8281 26.2948C44.8444 26.3363 44.8523 26.3807 44.8515 26.4253C44.8506 26.4699 44.841 26.514 44.8232 26.5549ZM16.8512 31.1801C16.7558 31.1577 16.6613 31.1315 16.568 31.1014C15.6085 30.7955 14.734 30.1227 14.1041 29.2056C13.4743 28.2886 13.1611 27.23 13.2205 26.2252C13.2828 25.1774 13.7394 24.3108 14.5063 23.7846C15.0868 23.3881 15.7863 23.2238 16.5255 23.3071V24.2218C16.4033 24.2028 16.2799 24.1932 16.1562 24.193C15.7513 24.1874 15.3544 24.306 15.0189 24.5328C14.4881 24.8976 14.1693 25.5178 14.1256 26.2802C14.0775 27.085 14.3352 27.942 14.8512 28.6936C15.3253 29.3841 15.9602 29.9029 16.6563 30.1725C16.7062 30.5135 16.7711 30.8494 16.8512 31.1801Z" fill="#FFBAB3"/>
<path d="M16.5238 26.433V27.3676C16.4126 27.22 16.2788 27.091 16.1273 26.9853C15.7676 26.7366 15.3683 26.6596 15.2058 26.7304C15.1647 26.7492 15.1203 26.7597 15.0751 26.7612C15.0299 26.7627 14.9849 26.7551 14.9427 26.739C14.9005 26.7229 14.8619 26.6985 14.8292 26.6673C14.7965 26.6361 14.7704 26.5986 14.7524 26.5572C14.7343 26.5158 14.7247 26.4712 14.7242 26.426C14.7236 26.3808 14.732 26.3359 14.7489 26.294C14.7659 26.2521 14.791 26.2141 14.8229 26.182C14.8547 26.1499 14.8927 26.1246 14.9345 26.1073C15.3502 25.9261 15.9704 26.0507 16.5136 26.4256L16.5238 26.433ZM32.4811 40.165V42.5371C32.4158 42.5054 32.349 42.4742 32.2806 42.4436L32.2285 42.4238C32.1622 42.3942 32.0897 42.3813 32.0173 42.3864C31.9083 42.393 31.8053 42.4388 31.7273 42.5153C31.6494 42.5918 31.6017 42.6939 31.593 42.8027C31.5882 42.8636 31.5821 42.9244 31.5749 42.9851V40.225C31.8804 40.2182 32.1825 40.1982 32.4811 40.165ZM27.1932 40.1746V43.1069C27.1836 43.0349 27.1756 42.9613 27.17 42.8871C27.1613 42.7773 27.1129 42.6744 27.0339 42.5977C26.9549 42.521 26.8506 42.4757 26.7406 42.4702C26.6455 42.4946 26.5497 42.519 26.454 42.545C26.3974 42.5711 26.3407 42.5971 26.2869 42.6237V40.0511C26.5852 40.1036 26.8873 40.1448 27.1932 40.1746Z" fill="#FFBAB3"/>
<path d="M43.0575 23.7766V28.4132C43.0577 29.0019 43.014 29.5897 42.9267 30.1719C42.8757 30.5117 42.8102 30.8478 42.7302 31.1801C42.4771 32.2316 42.0797 33.243 41.5492 34.1854C41.4004 34.4498 41.2417 34.7084 41.0729 34.9614C40.1105 36.4062 38.8418 37.6214 37.3569 38.5207C35.872 39.4201 34.2073 39.9814 32.481 40.165C32.182 40.1967 31.8799 40.2167 31.5748 40.225C31.4638 40.2284 31.3522 40.2301 31.24 40.2301H28.3412C27.9538 40.2301 27.5711 40.2113 27.1931 40.1735C26.8872 40.144 26.5851 40.1029 26.2868 40.05C23.5376 39.5626 21.0495 38.118 19.2634 35.9719C19.0572 35.7249 18.8614 35.4697 18.676 35.2061C17.8187 33.9917 17.1994 32.6258 16.8511 31.1807C16.7714 30.8499 16.7059 30.5136 16.6545 30.1719C16.5674 29.5907 16.5236 29.0038 16.5237 28.416V23.6616L16.552 23.6809L16.5724 23.6945L16.6058 23.7166L16.6506 23.7438C16.6692 23.7551 16.6879 23.7658 16.7072 23.776L16.744 23.7964L16.7582 23.8032C16.7725 23.8112 16.7872 23.8185 16.8024 23.8253C16.8307 23.8389 16.859 23.8525 16.8884 23.865L16.9366 23.8854C17.0363 23.9257 17.1385 23.9597 17.2425 23.9873C17.281 23.9981 17.32 24.0077 17.3591 24.0162C17.3824 24.0219 17.4061 24.027 17.4299 24.0315V28.4132C17.4299 28.7674 17.4467 29.1171 17.4803 29.4622C17.509 29.7688 17.5508 30.0709 17.6055 30.3684C17.661 30.6751 17.7294 30.9771 17.8106 31.2747C18.1648 32.5759 18.7581 33.7997 19.5602 34.8838C19.7445 35.133 19.9387 35.374 20.143 35.6066C21.7421 37.4316 23.904 38.6713 26.2868 39.1296C26.5848 39.1866 26.8868 39.2314 27.1931 39.2638C27.5745 39.3039 27.9577 39.3239 28.3412 39.3239H31.24C31.3533 39.3239 31.4649 39.3222 31.5748 39.3188C31.8803 39.3097 32.1824 39.288 32.481 39.2537C34.4119 39.0293 36.2481 38.2947 37.8011 37.1256C39.354 35.9564 40.5675 34.3948 41.317 32.6012C41.4966 32.1691 41.648 31.7258 41.7701 31.2741C41.8509 30.9773 41.9193 30.6752 41.9751 30.3679C42.0295 30.0699 42.0712 29.7679 42.1003 29.4616C42.1335 29.1161 42.1504 28.7663 42.1507 28.4121V23.8072C42.2306 23.814 42.3116 23.8179 42.3937 23.8196C42.5421 23.8226 42.6906 23.8171 42.8384 23.8032L42.9114 23.7959L42.9845 23.7868H43.0003L43.0575 23.7766Z" fill="#FFBAB3"/>
<path opacity="0.4" d="M24.343 31.1585C24.343 31.6509 24.197 32.1322 23.9234 32.5416C23.6499 32.9509 23.2611 33.27 22.8062 33.4584C22.3514 33.6468 21.8509 33.6961 21.368 33.6001C20.8851 33.504 20.4415 33.2669 20.0934 32.9188C19.7452 32.5706 19.5081 32.1271 19.4121 31.6442C19.316 31.1613 19.3653 30.6608 19.5537 30.2059C19.7422 29.751 20.0612 29.3623 20.4706 29.0887C20.88 28.8152 21.3613 28.6692 21.8536 28.6692C22.5136 28.6699 23.1463 28.9325 23.613 29.3991C24.0797 29.8658 24.3422 30.4986 24.343 31.1585ZM40.2148 31.1585C40.2154 31.6517 40.0696 32.1339 39.796 32.5442C39.5223 32.9545 39.1331 33.2743 38.6776 33.4633C38.2221 33.6523 37.7208 33.7019 37.2371 33.6058C36.7534 33.5097 36.3091 33.2723 35.9604 32.9236C35.6117 32.5749 35.3742 32.1306 35.2782 31.6469C35.1821 31.1632 35.2317 30.6619 35.4207 30.2064C35.6097 29.7508 35.9295 29.3617 36.3398 29.088C36.7501 28.8144 37.2323 28.6686 37.7254 28.6692C38.3854 28.6699 39.0182 28.9325 39.4849 29.3991C39.9515 29.8658 40.2141 30.4986 40.2148 31.1585Z" fill="#F47A8F"/>
<path d="M29.8928 31.7753H29.8294C28.9933 31.7397 28.4671 31.0481 28.4099 30.9694L28.3018 30.8204V24.2274C28.3018 24.0772 28.3614 23.9331 28.4677 23.8269C28.5739 23.7207 28.7179 23.661 28.8682 23.661C29.0184 23.661 29.1625 23.7207 29.2687 23.8269C29.3749 23.9331 29.4346 24.0772 29.4346 24.2274V30.4188C29.5433 30.5202 29.7093 30.6369 29.8815 30.6454C30.112 30.655 30.3437 30.4437 30.4966 30.267C30.5954 30.1551 30.7343 30.0867 30.8833 30.0767C31.0322 30.0667 31.1791 30.1159 31.2919 30.2136C31.4048 30.3113 31.4745 30.4496 31.4859 30.5985C31.4974 30.7473 31.4496 30.8946 31.353 31.0084C30.8092 31.6337 30.2695 31.7753 29.8928 31.7753Z" fill="#F47A8F"/>
<path d="M34.8754 25.5297C34.8754 26.4892 35.5602 27.2668 36.4047 27.2668C37.2492 27.2668 37.934 26.4892 37.934 25.5297C37.934 24.5702 37.2498 23.7931 36.4047 23.7931C35.5596 23.7931 34.8754 24.5707 34.8754 25.5297ZM21.6305 25.5297C21.6305 26.4892 22.3148 27.2668 23.1598 27.2668C24.0049 27.2668 24.6891 26.4892 24.6891 25.5297C24.6891 24.5702 24.0049 23.7931 23.1598 23.7931C22.3148 23.7931 21.6305 24.5707 21.6305 25.5297ZM25.0097 22.0061C24.9795 22.0564 24.9367 22.098 24.8856 22.1269C24.8345 22.1558 24.7767 22.1709 24.718 22.1709C24.6569 22.171 24.597 22.1543 24.5447 22.1227C24.4881 22.0893 23.3201 21.4204 21.6991 21.8628C21.4816 21.9226 21.2688 21.9983 21.0624 22.0893C20.981 22.1243 20.8892 22.1262 20.8064 22.0944C20.7237 22.0627 20.6566 21.9999 20.6195 21.9194C20.6178 21.9169 20.6165 21.9143 20.6155 21.9115C20.5977 21.8706 20.5881 21.8265 20.5872 21.7819C20.5864 21.7373 20.5943 21.6929 20.6106 21.6514C20.6269 21.6098 20.6513 21.5719 20.6822 21.5397C20.7132 21.5076 20.7502 21.4819 20.7911 21.464C20.8285 21.4476 20.8659 21.4317 20.9044 21.417C21.2444 21.2767 21.5983 21.1731 21.9602 21.1077C23.6435 20.8075 24.8341 21.5042 24.8947 21.5393C24.9329 21.5624 24.9662 21.5928 24.9927 21.6288C25.0191 21.6647 25.0382 21.7055 25.0489 21.7489C25.0596 21.7922 25.0616 21.8372 25.0549 21.8814C25.0482 21.9255 25.0328 21.9679 25.0097 22.0061ZM38.629 22.1709C38.5679 22.171 38.5079 22.1543 38.4556 22.1227C38.3916 22.0854 36.9173 21.2403 34.9734 22.0876C34.8911 22.1215 34.7988 22.1218 34.7164 22.0884C34.6339 22.0551 34.5678 21.9907 34.5323 21.9091C34.4967 21.8275 34.4946 21.7353 34.5264 21.6522C34.5581 21.569 34.6212 21.5017 34.7021 21.4646C36.979 20.4717 38.7309 21.4957 38.8045 21.5393C38.8685 21.5775 38.9181 21.6357 38.9457 21.7048C38.9734 21.774 38.9775 21.8503 38.9576 21.9221C38.9377 21.9938 38.8947 22.057 38.8353 22.102C38.7759 22.1469 38.7034 22.1711 38.629 22.1709Z" fill="#31296B"/>
<path d="M30.0859 35.7306C28.3567 35.7306 27.2046 35.0571 27.1349 35.0152C27.0057 34.9382 26.9124 34.8131 26.8755 34.6673C26.8386 34.5215 26.8611 34.367 26.9381 34.2378C27.0151 34.1086 27.1402 34.0153 27.286 33.9784C27.4318 33.9415 27.5863 33.964 27.7155 34.041C27.8033 34.0931 29.8112 35.2384 32.4563 34.0852C32.5245 34.055 32.5981 34.0385 32.6727 34.0368C32.7473 34.0351 32.8215 34.0482 32.8911 34.0753C32.9606 34.1023 33.0241 34.1429 33.078 34.1946C33.1318 34.2463 33.1749 34.3081 33.2047 34.3765C33.2346 34.4449 33.2506 34.5186 33.2519 34.5932C33.2532 34.6678 33.2398 34.7419 33.2123 34.8113C33.1849 34.8808 33.144 34.944 33.092 34.9976C33.04 35.0512 32.978 35.0939 32.9094 35.1234C32.0205 35.5192 31.059 35.726 30.0859 35.7306Z" fill="#E83F63"/>
<path d="M37.508 24.8296C37.4633 24.8306 37.4189 24.8228 37.3773 24.8066C37.3357 24.7905 37.2977 24.7663 37.2654 24.7354C37.2002 24.6731 37.1625 24.5875 37.1605 24.4974C37.1584 24.4072 37.1923 24.32 37.2546 24.2548C37.3169 24.1897 37.4025 24.1519 37.4927 24.1499C37.504 24.1499 38.2613 24.0932 38.3355 23.7024C38.3433 23.6581 38.3598 23.6158 38.3841 23.5779C38.4084 23.54 38.4399 23.5074 38.4769 23.4818C38.5139 23.4562 38.5557 23.4382 38.5997 23.4289C38.6437 23.4196 38.6891 23.4191 38.7333 23.4274C38.7775 23.4358 38.8196 23.4528 38.8572 23.4776C38.8948 23.5024 38.927 23.5343 38.9522 23.5717C38.9773 23.609 38.9947 23.6509 39.0035 23.6951C39.0123 23.7392 39.0122 23.7846 39.0033 23.8287C38.8617 24.5758 38.0058 24.8092 37.5221 24.829L37.508 24.8296ZM22.0739 24.8296H22.0592C21.5755 24.8097 20.7197 24.5764 20.5786 23.8293C20.5631 23.7413 20.5829 23.6507 20.6338 23.5771C20.6846 23.5036 20.7623 23.453 20.8502 23.4364C20.938 23.4198 21.0288 23.4385 21.103 23.4884C21.1772 23.5383 21.2287 23.6154 21.2464 23.703C21.3212 24.0995 22.0802 24.1504 22.0875 24.1504C22.1777 24.1522 22.2634 24.1898 22.3259 24.2548C22.3883 24.3198 22.4224 24.407 22.4206 24.4971C22.4188 24.5872 22.3813 24.6729 22.3162 24.7354C22.2512 24.7979 22.1641 24.8319 22.0739 24.8301V24.8296Z" fill="#31296B"/>
<path d="M36.5016 37.3998H36.4988C36.4241 37.3991 36.3528 37.3689 36.3003 37.3159C36.2478 37.2629 36.2184 37.1913 36.2184 37.1166C36.2478 34.1481 34.0202 32.8357 33.9975 32.8227C33.9653 32.8041 33.937 32.7793 33.9143 32.7498C33.8916 32.7203 33.875 32.6866 33.8654 32.6507C33.8459 32.5781 33.856 32.5007 33.8936 32.4356C33.9311 32.3704 33.993 32.3229 34.0656 32.3034C34.1382 32.2839 34.2156 32.2941 34.2807 32.3316C34.3844 32.3911 36.8182 33.8258 36.7859 37.1223C36.7844 37.1966 36.7538 37.2674 36.7006 37.3193C36.6474 37.3712 36.5759 37.4001 36.5016 37.3998ZM23.3819 37.3998C23.3073 37.3998 23.2357 37.3704 23.1827 37.3179C23.1296 37.2654 23.0995 37.1941 23.0987 37.1195C23.0659 33.823 25.4997 32.3883 25.6034 32.3288C25.6685 32.2912 25.7459 32.2811 25.8185 32.3006C25.8911 32.3201 25.9529 32.3676 25.9905 32.4327C26.0281 32.4979 26.0382 32.5752 26.0187 32.6478C25.9992 32.7204 25.9517 32.7823 25.8866 32.8199C25.8764 32.8255 25.3105 33.1597 24.7577 33.853C24.0214 34.7785 23.6532 35.8756 23.6657 37.1138C23.6657 37.1884 23.6362 37.26 23.5837 37.3131C23.5312 37.3661 23.4599 37.3963 23.3853 37.397L23.3819 37.3998Z" fill="#FFBAB3"/>
<path d="M43.0577 22.9394V23.7154C43.0578 23.7319 43.0522 23.7478 43.0419 23.7606C43.0316 23.7734 43.0172 23.7823 43.0011 23.7856H42.9852L42.9121 23.7947L42.8391 23.8021C42.6913 23.816 42.5429 23.8215 42.3945 23.8185C42.3123 23.8185 42.2313 23.8128 42.1515 23.806C41.9929 23.7932 41.8354 23.7691 41.6802 23.7341C41.5582 23.7073 41.4384 23.6715 41.3217 23.6271C41.0517 23.5235 40.7903 23.3987 40.54 23.2538C39.9488 22.9037 39.4436 22.4254 39.0617 21.8542C38.7021 21.324 38.4809 20.7122 38.4183 20.0746C38.4183 20.0428 38.4137 20.0151 38.412 19.9873C38.4013 19.8327 38.386 19.6209 38.3282 19.5688C38.288 19.5314 38.1725 19.5042 38.0705 19.4793L38.0167 19.4668C35.9561 18.9684 34.3917 16.9984 34.3747 14.8851V14.8744C34.3747 14.8081 34.3747 14.6988 34.3634 14.6093C34.3619 14.5969 34.3571 14.5852 34.3496 14.5752C34.342 14.5653 34.332 14.5575 34.3205 14.5527C34.309 14.5479 34.2965 14.5461 34.2841 14.5477C34.2717 14.5493 34.26 14.5541 34.2501 14.5617C34.1367 14.6584 34.0391 14.7721 33.9607 14.8987C32.6817 16.8998 31.0465 18.4456 29.2329 19.3711C27.1264 20.4472 24.7543 20.6738 22.7249 19.9992L22.7079 19.993C22.5459 19.9364 22.3448 19.8701 22.2547 19.9035C22.1126 19.9562 22.0667 20.3629 22.0355 20.6325L22.0237 20.7389C21.9765 21.1287 21.867 21.5084 21.6991 21.8633L21.6702 21.9239C21.4314 22.4111 21.0918 22.842 20.6739 23.1881C20.6399 23.217 20.6048 23.2447 20.5691 23.2719L20.5606 23.2793C20.1188 23.7324 19.3026 24.0298 18.4734 24.0915C18.3675 24.1 18.2621 24.104 18.1568 24.104C17.9121 24.1048 17.6679 24.0815 17.4278 24.0343C17.404 24.0298 17.3803 24.0247 17.357 24.019C17.318 24.0105 17.2789 24.0009 17.2404 23.9901C17.1364 23.9625 17.0342 23.9285 16.9345 23.8882L16.8863 23.8678C16.8569 23.8553 16.8297 23.8417 16.8003 23.8281L16.7561 23.806L16.7419 23.7992L16.7051 23.7789C16.6858 23.7687 16.6671 23.7579 16.6485 23.7466L16.6037 23.7194L16.5703 23.6973C16.5642 23.6938 16.5584 23.6901 16.5527 23.686C16.5439 23.6794 16.5367 23.6709 16.5318 23.661C16.5269 23.6512 16.5244 23.6403 16.5244 23.6293V22.6562C16.5244 22.642 16.5287 22.6281 16.5367 22.6163C16.5447 22.6045 16.556 22.5954 16.5692 22.5901C16.5824 22.5848 16.5969 22.5836 16.6109 22.5866C16.6248 22.5896 16.6375 22.5967 16.6473 22.607C16.735 22.6948 16.8323 22.7725 16.9373 22.8386C16.9549 22.8495 16.9716 22.8619 16.9872 22.8754C17.1176 22.9801 17.2688 23.056 17.4307 23.098C18.2293 23.3286 19.506 23.0884 19.9285 22.6296C19.947 22.6088 19.9675 22.5898 19.9897 22.573C20.2316 22.3893 20.4434 22.169 20.6173 21.9199C20.6784 21.8332 20.7351 21.7434 20.7872 21.6509C20.8299 21.5753 20.8676 21.4976 20.9005 21.4175C21.0128 21.1672 21.0868 20.9014 21.1202 20.6291C21.124 20.5958 21.128 20.5619 21.1321 20.5271C21.1859 20.0508 21.2675 19.3377 21.886 19.072C21.9024 19.0652 21.9194 19.0579 21.937 19.0516C22.3295 18.9066 22.7147 19.0375 22.9962 19.1326L23.0103 19.1377C24.8092 19.7364 26.927 19.5263 28.8183 18.5611C30.4886 17.7115 32.0009 16.2768 33.1926 14.4111C33.3597 14.1516 33.7097 13.7031 34.1821 13.6045C34.2944 13.5801 34.4105 13.5788 34.5234 13.6006C34.6362 13.6224 34.7434 13.6669 34.8386 13.7314C34.8612 13.7467 34.8828 13.7625 34.9026 13.7784L34.9213 13.801C35.0101 13.9684 35.1082 14.1307 35.2153 14.287C35.2201 14.2941 35.2237 14.302 35.226 14.3102C35.2647 14.4934 35.2822 14.6804 35.2781 14.8676V14.8789C35.2906 16.5623 36.586 18.1907 38.228 18.5877L38.2784 18.5996C38.4032 18.6262 38.5252 18.6641 38.6431 18.7129C38.7502 18.7591 38.849 18.8226 38.9354 18.901C39.2617 19.1966 39.2917 19.6186 39.3132 19.9267L39.3189 20.0026C39.3772 20.5568 39.5895 21.0836 39.9317 21.5234C40.2221 21.9082 40.5852 22.2321 41.0005 22.4767C41.2083 22.5968 41.4253 22.7001 41.6496 22.7854C41.8113 22.8445 41.98 22.8826 42.1515 22.8987C42.4255 22.9268 42.702 22.9169 42.9733 22.8692C42.9836 22.8673 42.9942 22.8677 43.0044 22.8703C43.0145 22.873 43.0239 22.8778 43.032 22.8845C43.0401 22.8912 43.0465 22.8996 43.051 22.9091C43.0554 22.9186 43.0577 22.929 43.0577 22.9394ZM34.7123 44.8594C34.7105 45.607 34.6484 46.3533 34.5265 47.091C34.0807 48.1105 33.1598 48.8469 32.0094 49.0666C31.7831 49.1114 31.553 49.1349 31.3223 49.1369C30.6554 49.1402 30.0022 48.9468 29.4447 48.5806C29.6984 48.3954 29.9246 48.1752 30.1165 47.9264C30.6441 48.2091 31.2537 48.2992 31.8406 48.1813C32.8601 47.9888 33.6055 47.287 33.8389 46.3048C34.1164 45.1346 33.6463 44.2193 32.403 43.5198C32.1046 44.9041 31.2249 45.9463 30.0117 47.0678C29.7693 46.8542 29.5438 46.6515 29.3354 46.4566C30.6427 45.2502 31.332 44.3609 31.5398 43.2202C31.554 43.142 31.5659 43.0633 31.5755 42.9829C31.5829 42.9228 31.5886 42.8622 31.5937 42.8005C31.6023 42.6916 31.65 42.5895 31.728 42.513C31.8059 42.4365 31.9089 42.3908 32.0179 42.3842C32.0903 42.3799 32.1627 42.3935 32.2286 42.4238L32.2807 42.4476C32.3494 42.4782 32.4163 42.5093 32.4812 42.5411C33.4821 43.0282 34.0881 43.6053 34.4319 44.1995C34.5524 44.4069 34.6466 44.6286 34.7123 44.8594Z" fill="#31296B"/>
<path d="M30.1458 47.1862L30.011 47.0684C29.7686 46.8549 29.5432 46.6521 29.3347 46.4573C28.0807 45.2876 27.4191 44.4103 27.2209 43.2854C27.2101 43.2287 27.2011 43.1664 27.1931 43.1058C27.1835 43.0339 27.1756 42.9603 27.1699 42.8861C27.1612 42.7763 27.1129 42.6734 27.0339 42.5967C26.9548 42.5199 26.8506 42.4746 26.7406 42.4692C26.6454 42.4935 26.5497 42.5179 26.454 42.544C26.3973 42.57 26.3407 42.5961 26.2869 42.6227C25.2594 43.1217 24.6477 43.7153 24.3079 44.3247C24.2151 44.4918 24.1392 44.6677 24.0813 44.8498C24.0822 45.6831 24.159 46.5146 24.3107 47.3341C24.778 48.2766 25.6633 48.9506 26.7559 49.1573C26.9823 49.2006 27.2124 49.2224 27.4429 49.2225C28.1619 49.2265 28.8634 49.0013 29.4457 48.5796C29.6995 48.3944 29.9256 48.1741 30.1175 47.9254C30.1532 47.8801 30.1877 47.8331 30.2212 47.7849C30.2843 47.6933 30.3115 47.5816 30.2976 47.4712C30.2837 47.3608 30.2297 47.2593 30.1458 47.1862ZM28.7428 47.9582C28.1957 48.2839 27.547 48.3944 26.923 48.2681C25.9034 48.0755 25.158 47.3737 24.9247 46.3916C24.6471 45.2214 25.1173 44.306 26.3605 43.6065C26.6505 44.954 27.4933 45.9775 28.6562 47.0656C28.837 47.2351 29.0258 47.4062 29.2226 47.5787C29.0794 47.7251 28.9182 47.8526 28.7428 47.9582ZM40.5365 51.8092C40.552 51.9421 40.5639 52.0756 40.5722 52.2097C40.5639 52.0752 40.552 51.9418 40.5365 51.8092ZM40.3355 50.7529C40.3815 50.9273 40.4214 51.1027 40.455 51.2791C40.4221 51.102 40.3823 50.9266 40.3355 50.7529ZM38.6425 46.0857L38.7059 46.152L38.6425 46.0857ZM37.2995 44.8804C37.4272 44.9797 37.5529 45.0813 37.6768 45.1851C37.554 45.0813 37.4283 44.9797 37.2995 44.8804ZM38.1254 45.5799L38.1208 45.5759L38.1254 45.5805C38.1525 45.6054 38.182 45.6303 38.2063 45.6558C38.1797 45.6297 38.1525 45.6048 38.1254 45.5799ZM38.041 45.5029L38.0336 45.4966L38.041 45.5034L38.0806 45.5391L38.041 45.5029ZM18.2632 52.2097C18.3969 50.1967 19.4153 48.2108 21.0896 46.5807C19.3784 48.2358 18.3923 50.1933 18.2632 52.2097ZM23.4214 43.764C23.1533 43.9101 22.892 44.0642 22.6375 44.2262C22.9071 44.0555 23.1826 43.8946 23.4639 43.7436C23.4492 43.7496 23.435 43.7564 23.4214 43.764ZM31.3664 14.0254C31.3568 14.0684 31.1178 15.0851 30.2246 16.1302C29.4095 17.0851 27.8689 18.2542 25.1592 18.4032H25.1343C25.0141 18.4065 24.8975 18.3619 24.8102 18.2792C24.7229 18.1966 24.672 18.0827 24.6687 17.9625C24.6654 17.8423 24.7099 17.7257 24.7926 17.6384C24.8752 17.5511 24.9892 17.5002 25.1093 17.4969C29.6513 17.2471 30.4749 13.8572 30.4828 13.8232C30.5107 13.7073 30.5831 13.607 30.6844 13.5441C30.7857 13.4812 30.9077 13.4608 31.024 13.4872C31.1402 13.5137 31.2414 13.5849 31.3055 13.6854C31.3696 13.786 31.3915 13.9077 31.3664 14.0243V14.0254ZM43.1069 21.7444C43.0771 21.835 43.0194 21.9139 42.9421 21.9699C42.8648 22.0258 42.7718 22.0559 42.6764 22.0559C42.6291 22.056 42.582 22.0483 42.5371 22.0333C40.0987 21.2329 39.781 18.5952 39.7685 18.483C39.7571 18.3646 39.7928 18.2464 39.8678 18.154C39.9428 18.0616 40.0511 18.0024 40.1694 17.9893C40.2877 17.9761 40.4064 18.01 40.4999 18.0836C40.5934 18.1572 40.6542 18.2647 40.6691 18.3828C40.7299 18.799 40.8565 19.203 41.044 19.5796C41.3459 20.189 41.8806 20.8642 42.8197 21.1723C42.9336 21.2102 43.0278 21.2917 43.0816 21.399C43.1354 21.5062 43.1445 21.6304 43.1069 21.7444Z" fill="#31296B"/>
</svg>
