<svg width="64" height="64" viewBox="0 0 64 64" fill="none" xmlns="http://www.w3.org/2000/svg">
<path d="M63.75 32C63.75 49.535 49.535 63.75 32 63.75C14.465 63.75 0.25 49.535 0.25 32C0.25 14.465 14.465 0.25 32 0.25C49.535 0.25 63.75 14.465 63.75 32Z" fill="white" stroke="#25A1FF" stroke-width="0.5"/>
<path d="M49.75 32C49.75 41.8031 41.8031 49.75 32 49.75C22.1969 49.75 14.25 41.8031 14.25 32C14.25 22.1969 22.1969 14.25 32 14.25C41.8031 14.25 49.75 22.1969 49.75 32Z" stroke="#25A1FF" stroke-width="0.5"/>
<path d="M28.2071 32.8906C28.2071 32.8906 29.5358 31.7809 32.123 32.6094C35.3919 33.6563 37.3573 34.1211 36.7536 32.1592C36.1634 30.2422 40.0114 38.3556 40.0114 38.3556L38.9886 40.4047L24.8323 40.6213L25.9121 37.9963L28.2071 32.8906Z" fill="#25A1FF"/>
<path d="M28.2071 32.8906C28.2071 32.8906 29.5358 31.7809 32.123 32.6094C35.3919 33.6563 37.3573 34.1211 36.7536 32.1592C36.1634 30.2422 40.0114 38.3556 40.0114 38.3556L38.9886 40.4047L24.8323 40.6213L25.9121 37.9963L28.2071 32.8906Z" fill="white" fill-opacity="0.5"/>
<path d="M37.9531 41.4219H26.0469C24.9934 41.4219 24.0591 40.872 23.5477 39.9512C23.0443 39.0446 23.0626 37.9805 23.5946 37.0944L27.2188 29.2798V23.5758C27.2188 23.3769 27.2978 23.1862 27.4384 23.0455C27.5791 22.9049 27.7698 22.8258 27.9688 22.8258H36.0313C36.2302 22.8258 36.4209 22.9049 36.5616 23.0455C36.7022 23.1862 36.7813 23.3769 36.7813 23.5758V29.2798L40.4056 37.0944C40.9374 37.9805 40.9557 39.0446 40.4525 39.9512C39.9409 40.872 39.0078 41.4219 37.9531 41.4219ZM28.7188 24.3258V29.4453C28.7186 29.5543 28.6946 29.662 28.6484 29.7608L24.9371 37.7656C24.9242 37.7934 24.9096 37.8204 24.8935 37.8465C24.766 38.0522 24.6958 38.2882 24.69 38.5302C24.6843 38.7722 24.7432 39.0113 24.8608 39.2228C24.9784 39.4344 25.1503 39.6107 25.3588 39.7336C25.5673 39.8565 25.8048 39.9215 26.0469 39.9219H37.9531C38.1953 39.9216 38.4331 39.8566 38.6418 39.7337C38.8504 39.6107 39.0225 39.4343 39.1401 39.2225C39.2577 39.0108 39.3166 38.7715 39.3107 38.5293C39.3048 38.2872 39.2343 38.0511 39.1065 37.8453C39.0904 37.8192 39.0758 37.7922 39.0629 37.7644L35.3516 29.7608C35.3054 29.662 35.2814 29.5543 35.2813 29.4453V24.3258H28.7188Z" fill="#25A1FF"/>
<path d="M35.5088 27.3289H33.5026C33.3037 27.3289 33.1129 27.2499 32.9722 27.1092C32.8316 26.9686 32.7526 26.7778 32.7526 26.5789C32.7526 26.38 32.8316 26.1892 32.9722 26.0486C33.1129 25.9079 33.3037 25.8289 33.5026 25.8289H35.5088C35.7077 25.8289 35.8985 25.9079 36.0392 26.0486C36.1798 26.1892 36.2588 26.38 36.2588 26.5789C36.2588 26.7778 36.1798 26.9686 36.0392 27.1092C35.8985 27.2499 35.7077 27.3289 35.5088 27.3289ZM35.5088 29.9954H33.5026C33.3037 29.9954 33.1129 29.9164 32.9722 29.7757C32.8316 29.6351 32.7526 29.4443 32.7526 29.2454C32.7526 29.0465 32.8316 28.8557 32.9722 28.7151C33.1129 28.5744 33.3037 28.4954 33.5026 28.4954H35.5088C35.7077 28.4954 35.8985 28.5744 36.0392 28.7151C36.1798 28.8557 36.2588 29.0465 36.2588 29.2454C36.2588 29.4443 36.1798 29.6351 36.0392 29.7757C35.8985 29.9164 35.7077 29.9954 35.5088 29.9954Z" fill="#25A1FF"/>
<path d="M4.21786 23.1264C4.00933 23.6417 3.94985 24.1111 4.04222 24.5277C4.13174 24.9917 4.40274 25.3096 4.83833 25.4828C5.25987 25.6504 5.65914 25.5908 6.03895 25.2972C6.18808 25.1706 6.48358 24.8435 6.9086 24.3173C7.29563 23.8245 7.55878 23.5168 7.69945 23.4111C8.00754 23.1537 8.32107 23.0843 8.63723 23.21C8.90421 23.3161 9.06426 23.5252 9.11737 23.8373C9.17049 24.1494 9.11251 24.5144 8.94907 24.9182C8.76871 25.3639 8.53509 25.659 8.25943 25.8162C7.95423 25.9858 7.56906 26.0106 7.11373 25.8861L6.88548 26.4501C7.52065 26.6541 8.06468 26.6198 8.52459 26.35C8.91278 26.1163 9.22523 25.707 9.46194 25.1221C9.70147 24.5303 9.76382 24.0135 9.65882 23.5676C9.54679 23.1189 9.26595 22.8052 8.83036 22.632C8.37369 22.4505 7.93786 22.5197 7.51868 22.83C7.30767 22.9886 6.97137 23.3561 6.50975 23.9324C6.1748 24.357 5.94542 24.6215 5.82444 24.7189C5.55433 24.9429 5.29423 25.0012 5.0413 24.9007C4.75325 24.7861 4.59038 24.584 4.54568 24.2914C4.50376 24.0322 4.56309 23.7244 4.71244 23.3554C4.87589 22.9515 5.08701 22.6717 5.35985 22.5215C5.62285 22.3755 5.94619 22.3423 6.33689 22.4249L6.56515 21.8609C6.01849 21.7002 5.54194 21.729 5.1397 21.9571C4.75012 22.174 4.4433 22.5694 4.21786 23.1264Z" fill="#25A1FF"/>
<path d="M5.90794 19.6803L10.414 22.6382L11.4507 21.0871C11.9188 20.3865 12.07 19.7119 11.9106 19.0674C11.7576 18.454 11.3298 17.9122 10.6356 17.4565C9.92871 16.9925 9.26679 16.801 8.66659 16.8839C8.00762 16.9733 7.45036 17.3724 6.97802 18.0791L5.90794 19.6803ZM6.69879 19.4616L7.37177 18.4546C7.76469 17.8666 8.20039 17.5407 8.69356 17.4685C9.15524 17.4026 9.69111 17.5654 10.297 17.9631C10.8839 18.3484 11.2358 18.7864 11.3549 19.2604C11.4676 19.7574 11.3328 20.2988 10.9441 20.8805L10.3087 21.8312L6.69879 19.4616Z" fill="#25A1FF"/>
<path d="M9.64629 14.4958L11.9583 16.872C12.447 17.3742 12.9508 17.6326 13.4751 17.6527C13.9941 17.6673 14.5124 17.4326 15.0246 16.9431C15.5368 16.4536 15.7923 15.9488 15.7966 15.4236C15.7952 14.9142 15.5529 14.4058 15.0642 13.9036L12.7522 11.5274L12.3054 11.9545L14.6227 14.336C14.9905 14.7141 15.1818 15.0836 15.202 15.4394C15.2112 15.8163 15.0277 16.1897 14.6462 16.5543C14.2594 16.924 13.8762 17.0922 13.5019 17.0642C13.1384 17.0365 12.7782 16.8284 12.4104 16.4503L10.0931 14.0688L9.64629 14.4958Z" fill="#25A1FF"/>
<path d="M15.071 10.0723L15.7415 9.69285C15.856 9.9218 15.9564 10.1414 16.0333 10.3657L14.5937 11.1804L14.8414 11.6104L16.1627 10.8627L16.1871 11.0562C16.2254 11.622 15.9924 12.2463 15.4814 12.9329L16.0184 13.1387C16.4965 12.4707 16.7389 11.8324 16.7391 11.2276C17.3363 11.2352 17.8339 11.2819 18.2526 11.3732L18.3964 10.8512C17.9044 10.7841 17.3373 10.7681 16.6951 10.8033C16.6745 10.7372 16.6604 10.6674 16.6426 10.5911L17.977 9.83588L17.7293 9.4059L16.4934 10.1053C16.4071 9.89497 16.303 9.66882 16.1885 9.43988L17.1811 8.87812L16.9409 8.46117L15.0608 9.52516C15.0449 9.36138 15.0215 9.18457 14.9906 8.99473L14.5107 9.14533C14.5941 9.78929 14.5639 10.342 14.4135 10.8072L14.8989 10.9991C14.9948 10.7116 15.0521 10.4026 15.071 10.0723ZM17.3822 8.16818L18.7561 10.5526L20.9188 9.32867L19.5449 6.94423L17.3822 8.16818ZM20.2184 9.17213L18.976 9.87525L18.0826 8.32472L19.325 7.6216L20.2184 9.17213ZM20.7223 10.0619L16.5153 12.4428L18.0656 15.1335L18.5389 14.8656L18.37 14.5724L21.6238 12.7309L21.7928 13.0241L22.2726 12.7525L20.7223 10.0619ZM18.1297 14.1555L17.8069 13.5952L21.0608 11.7537L21.3836 12.314L18.1297 14.1555ZM17.5704 13.1848L17.2288 12.5919L20.4827 10.7504L20.8243 11.3433L17.5704 13.1848Z" fill="#25A1FF"/>
<path d="M28.2231 9.10181L27.7488 7.13152L27.0345 7.30043L26.9238 6.8407L28.2124 6.53597L28.121 6.15651L26.8325 6.46124L26.7323 6.04529L27.7632 5.8015L27.6718 5.42204L26.641 5.66582L26.5426 5.25717L27.728 4.97682L27.6367 4.59736L26.4512 4.87771L26.3528 4.46906L25.8374 4.59095L25.9358 4.9996L24.8092 5.26602L24.9006 5.64549L26.0272 5.37907L26.1256 5.78772L25.1168 6.02628L25.2082 6.40574L26.2169 6.16718L26.3171 6.58313L25.1537 6.85825L25.2451 7.23772L26.4084 6.96259L26.5191 7.42232L24.0304 8.01089L23.9197 7.55115L24.9874 7.29866L24.896 6.9192L23.8283 7.17169L23.7282 6.75574L24.6928 6.52763L24.6014 6.14817L23.6368 6.37628L23.5384 5.96763L24.6135 5.7134L24.5221 5.33394L23.4471 5.58817L23.3487 5.17952L22.8333 5.30141L22.9317 5.71006L21.7388 5.99215L21.8302 6.37161L23.023 6.08952L23.1214 6.49817L22.0611 6.74892L22.1525 7.12838L23.2128 6.87763L23.3129 7.29358L21.9802 7.60876L22.0716 7.98822L23.4043 7.67304L23.515 8.13278L22.6535 8.33651L22.7466 8.72327L27.3338 7.63843L27.4322 8.04708L23.1248 9.06575L23.2144 9.43792L27.5218 8.41925L27.6202 8.8279L22.9447 9.93363L23.0395 10.3277L28.2231 9.10181ZM23.2255 10.6154C23.1984 11.0845 23.0798 11.5291 22.8787 11.9546L23.3708 12.1236C23.5648 11.6689 23.6768 11.1642 23.714 10.6078L23.2255 10.6154ZM27.1943 11.1962C27.452 11.1353 27.6311 11.0389 27.7426 10.92C27.847 10.7719 27.8672 10.4355 27.794 9.90517L27.2785 9.86511C27.3404 10.2515 27.3377 10.499 27.2778 10.6057C27.233 10.678 27.1295 10.7333 26.9823 10.7682L25.2299 11.1826C25.0605 11.2226 24.9602 11.1615 24.9251 11.0156L24.7441 10.2639L24.2287 10.3858L24.436 11.2469C24.5274 11.6264 24.7792 11.7674 25.1989 11.6681L27.1943 11.1962ZM25.7011 9.71367L25.3874 10.027C25.7929 10.2242 26.1286 10.4224 26.3927 10.6145L26.6994 10.272C26.4552 10.0984 26.1231 9.91468 25.7011 9.71367ZM28.1931 9.33258L27.8664 9.65665C28.4007 10.0008 28.8304 10.3311 29.1612 10.6385L29.4921 10.2672C29.1756 9.9872 28.7438 9.68054 28.1931 9.33258Z" fill="#25A1FF"/>
<path d="M31.6386 7.01348C31.3745 7.15156 31.1032 7.28179 30.8402 7.39739L30.9102 5.89855L31.6513 5.93259L31.6755 5.41549L30.9344 5.38145L30.9978 4.025L30.4534 4L30.39 5.35645L29.475 5.31443L29.4508 5.83152L30.3658 5.87355L30.2845 7.6122C29.9534 7.72466 29.6154 7.8218 29.2785 7.89645L29.3818 8.44193C29.6737 8.3577 29.966 8.26598 30.2589 8.15927L30.1734 9.98785C30.1636 10.1977 30.0676 10.3059 29.8861 10.2976C29.7198 10.29 29.5466 10.267 29.3661 10.2362L29.4554 10.7585L30.0527 10.7859C30.4686 10.805 30.6909 10.5899 30.7115 10.1478L30.8149 7.93697C31.0855 7.82172 31.3489 7.69864 31.613 7.56056L31.6386 7.01348ZM32.15 5.963L32.0445 8.21875L33.5266 8.28682C33.5017 8.49596 33.4699 8.68977 33.4158 8.87504L31.3438 8.77988L31.3207 9.2745L33.2111 9.36132C33.1867 9.39775 33.1619 9.44167 33.1371 9.4856C32.8291 9.91456 32.2221 10.2547 31.3162 10.506L31.6516 10.9495C32.6666 10.6356 33.3235 10.2001 33.6295 9.65091L33.6709 9.5777C34.0897 10.1827 34.7698 10.7097 35.704 11.1506L36.0869 10.7401C35.1867 10.3833 34.5257 9.9324 34.1034 9.4023L36.1148 9.49468L36.138 9.00006L33.9224 8.89831C33.961 8.71984 33.9856 8.51819 34.0106 8.30905L35.5456 8.37955L35.6511 6.1238L32.15 5.963ZM35.0661 7.93695L32.5557 7.82165L32.5791 7.31954L35.0896 7.43484L35.0661 7.93695ZM32.5981 6.91485L32.6215 6.41274L35.132 6.52804L35.1085 7.03015L32.5981 6.91485ZM31.7253 4.67426L31.7028 5.15388L32.7993 5.20424L32.7751 5.72134L33.2817 5.74461L33.3059 5.22751L34.546 5.28447L34.5219 5.80156L35.0361 5.82518L35.0602 5.30808L36.2323 5.36191L36.2547 4.88228L35.0827 4.82845L35.1114 4.21393L34.5972 4.19031L34.5685 4.80484L33.3283 4.74788L33.3571 4.13336L32.8505 4.11009L32.8217 4.72461L31.7253 4.67426Z" fill="#25A1FF"/>
<path d="M38.3852 6.91377L37.3925 9.79641L41.999 11.3545L43.0504 8.30147L41.5531 7.79503C41.8749 7.65021 42.221 7.45812 42.5746 7.221L42.7091 6.8305L40.2232 5.98965C40.4108 5.86287 40.5937 5.72656 40.7719 5.58072L40.288 5.29023C39.4166 5.96259 38.4391 6.40881 37.3578 6.64552L37.5504 7.1546C37.831 7.08304 38.1141 7.00438 38.3852 6.91377ZM40.894 7.57209L38.6516 6.81364C39.0021 6.67852 39.3456 6.51725 39.6749 6.32741L41.8886 7.07617C41.5472 7.27779 41.2109 7.44148 40.894 7.57209ZM41.6591 10.6926L40.1116 10.1692L40.3953 9.34555L41.9427 9.86895L41.6591 10.6926ZM39.5887 9.99227L38.0771 9.48098L38.3607 8.65736L39.8723 9.16865L39.5887 9.99227ZM38.522 8.18876L38.791 7.40774L40.3026 7.91903L40.0337 8.70005L38.522 8.18876ZM40.8256 8.09593L42.373 8.61933L42.1041 9.40035L40.5566 8.87694L40.8256 8.09593ZM36.3521 10.3323L36.181 10.8294L42.2275 12.8745L42.3986 12.3775L36.3521 10.3323Z" fill="#25A1FF"/>
<path d="M50.8991 11.7995L48.6354 10.2295C48.7476 9.91354 48.8381 9.62835 48.8945 9.36529L48.3711 9.11213C48.3358 9.3715 48.2751 9.6407 48.1951 9.92404L45.8384 8.28944L44.9486 9.54948L45.4013 9.86349L46.0003 9.01527L50.1556 11.8973L49.5783 12.7148L50.031 13.0288L50.8991 11.7995ZM45.4771 10.4105L45.0237 10.5814C45.345 11.0423 45.6062 11.5622 45.8115 12.135L46.2884 11.9438C46.0861 11.419 45.8101 10.9071 45.4771 10.4105ZM46.5089 9.73431L46.0705 9.89722C46.3794 10.3495 46.6281 10.8609 46.8316 11.4232L47.3022 11.2277C47.1037 10.7238 46.8463 10.2247 46.5089 9.73431ZM48.3403 11.1053L47.8585 11.7876C47.4623 12.3094 47.0289 12.7139 46.5564 12.9905L43.6663 10.9859L43.3755 11.3978L46.0361 13.2431C45.9493 13.2745 45.8519 13.3077 45.7546 13.3409C44.9608 13.5229 43.8786 13.3675 42.5248 12.8772L42.5019 13.4199C43.7559 13.8684 44.8127 14.0337 45.6684 13.8947C46.2744 14.7637 46.7923 15.7181 47.2265 16.7518L47.7437 16.5428C47.3263 15.6031 46.7972 14.6776 46.1521 13.7723C46.2855 13.7274 46.4231 13.6764 46.5633 13.6088L48.7773 15.1444L49.0681 14.7326L47.0463 13.3303C47.4984 13.0303 47.9194 12.6173 48.3113 12.1016L48.7931 11.4193L48.3403 11.1053Z" fill="#25A1FF"/>
<path d="M53.465 16.7109L53.1 17.0033L54.4375 18.6426L54.8024 18.3502C54.7465 18.723 54.7213 19.1098 54.7317 19.5163L55.2705 19.4608C55.2454 18.2846 55.48 17.2476 55.9954 16.3522L55.6813 15.9671C54.5775 16.2728 53.4983 16.2983 52.4531 16.0553L52.2926 16.5505C52.6654 16.6377 53.0582 16.6895 53.465 16.7109ZM54.8117 18.3138L53.5028 16.7095C54.1035 16.7298 54.7415 16.6527 55.4263 16.4898C55.129 17.0561 54.9241 17.6641 54.8117 18.3138ZM49.8246 18.4415L49.4184 18.7669L52.0171 21.9522L52.4233 21.6267L51.7046 20.7458C52.5425 20.4603 53.4412 20.0584 54.4103 19.552L54.182 19.0692C53.1151 19.6348 52.1762 20.0591 51.3714 20.3374L49.8246 18.4415ZM52.4168 17.2517L51.9981 16.9891C51.635 17.6178 51.2256 18.2257 50.7534 18.8163L51.1368 19.1072C51.6488 18.4461 52.0806 17.8299 52.4168 17.2517ZM53.3205 18.0133L52.9136 17.7413C52.5501 18.3219 52.1346 18.8865 51.6729 19.4302L52.061 19.7269C52.5626 19.1128 52.984 18.5435 53.3205 18.0133ZM53.4178 14.4814L51.1717 15.8568L50.6101 15.1685L52.4192 14.1046L52.1286 13.7007L49.8859 15.0445L51.0996 16.5321C50.2049 17.2491 49.6407 17.6433 49.4047 17.7359C49.1805 17.8191 48.9483 17.7254 48.7199 17.4454C48.6532 17.3637 48.546 17.2084 48.403 16.9854L48.1167 17.3981C48.2192 17.5476 48.3275 17.6923 48.437 17.8265C48.7368 18.194 49.0379 18.3483 49.3332 18.3046C49.6297 18.2503 50.4484 17.6907 51.7905 16.6152L51.4954 16.2535L54.149 14.5901L52.6545 12.7583L52.266 13.0697L53.4178 14.4814ZM50.3044 16.6194C49.849 16.3476 49.366 15.9822 48.8588 15.5395L48.5014 15.9128C48.9906 16.3215 49.4605 16.6589 49.9218 16.926L50.3044 16.6194Z" fill="#25A1FF"/>
<path d="M56.6796 20.8607L56.2188 21.0518L56.6981 22.1868C55.9495 21.9687 55.4524 21.7439 55.2069 21.5123C55.1813 21.4904 55.1457 21.4645 55.1142 21.4287L54.728 21.7191C55.0424 22.3857 55.3509 23.0385 55.6606 23.6745L54.9064 23.9873L53.9799 21.7935L53.5121 21.9876L54.4386 24.1814L53.5657 24.5435L52.4054 21.7961L51.9306 21.993L54.4675 28L54.9423 27.803L53.782 25.0556L54.6549 24.6935L55.5872 26.9011L56.0551 26.7071L55.1227 24.4994L55.9048 24.175C56.149 24.6755 56.3973 25.1663 56.6397 25.6431C56.5364 25.8649 56.4232 26.0826 56.3013 26.2796L56.8233 26.486C57.1275 25.9043 57.4007 25.2299 57.6358 24.4654L57.1941 24.2745C57.0933 24.5603 56.9895 24.8392 56.8758 25.1141C56.3939 24.1673 55.9329 23.2118 55.4789 22.2534C55.8163 22.4306 56.297 22.5972 56.9378 22.7543L58.1536 25.6332L58.6145 25.442L56.6796 20.8607ZM59.4858 22.356L59.1542 21.843C59.0183 22.0457 58.8585 22.2503 58.6789 22.4468L57.5566 19.7893L56.2019 20.3513L56.4153 20.8565L57.2951 20.4915L59.3118 25.2666L58.432 25.6316L58.6453 26.1368L60 25.5748L58.9069 22.9866C59.1255 22.7658 59.3231 22.5537 59.4858 22.356Z" fill="#25A1FF"/>
<g clip-path="url(#clip0_195_3120)">
<path d="M14.9504 34.1111C12.7636 34.1111 10.8539 35.4423 9.79104 36.5813L7.66843 34.9759C7.37361 34.7528 6.93343 34.9905 7.00878 35.3322L7.59649 38L7.00854 40.668C6.93319 41.0098 7.37336 41.2472 7.66819 41.0243L9.79079 39.419C10.8537 40.5577 12.7636 41.8889 14.9504 41.8889C18.2914 41.8889 21 38.7778 21 38C21 37.2222 18.2914 34.1111 14.9504 34.1111ZM17.0754 38.5833C16.7534 38.5833 16.4921 38.3221 16.4921 38C16.4921 37.6777 16.7534 37.4167 17.0754 37.4167C17.3977 37.4167 17.6587 37.6777 17.6587 38C17.6587 38.3221 17.3975 38.5833 17.0754 38.5833Z" fill="white"/>
</g>
<g clip-path="url(#clip1_195_3120)">
<path d="M14.9504 34.1111C12.7636 34.1111 10.8539 35.4423 9.79104 36.5813L7.66843 34.9759C7.37361 34.7528 6.93343 34.9905 7.00878 35.3322L7.59649 38L7.00854 40.668C6.93319 41.0098 7.37336 41.2472 7.66819 41.0243L9.79079 39.419C10.8537 40.5577 12.7636 41.8889 14.9504 41.8889C18.2914 41.8889 21 38.7778 21 38C21 37.2222 18.2914 34.1111 14.9504 34.1111ZM17.0754 38.5833C16.7534 38.5833 16.4921 38.3221 16.4921 38C16.4921 37.6777 16.7534 37.4167 17.0754 37.4167C17.3977 37.4167 17.6587 37.6777 17.6587 38C17.6587 38.3221 17.3975 38.5833 17.0754 38.5833Z" fill="url(#paint0_linear_195_3120)"/>
</g>
<g clip-path="url(#clip2_195_3120)">
<path d="M16.6566 49.2538C15.7966 49.6263 15.2722 50.475 15.0482 51.104L13.94 50.8341C13.7861 50.7966 13.6534 50.965 13.7413 51.0866L14.4267 52.0357L14.6499 53.1851C14.6785 53.3323 14.892 53.3507 14.97 53.2129L15.5314 52.22C16.1433 52.4868 17.1212 52.6851 17.9812 52.3127C19.2951 51.7437 19.8305 50.0588 19.6981 49.7529C19.5656 49.4471 17.9705 48.6848 16.6566 49.2538ZM18.254 50.6508C18.1273 50.7056 17.98 50.6473 17.9252 50.5207C17.8703 50.3939 17.9286 50.2468 18.0553 50.1919C18.182 50.137 18.3291 50.1952 18.384 50.322C18.4389 50.4487 18.3806 50.5959 18.254 50.6508Z" fill="url(#paint1_linear_195_3120)"/>
</g>
<g clip-path="url(#clip3_195_3120)">
<path d="M30.5071 53.4033C32.3609 53.6802 33.8113 55.0505 34.5681 56.1506L36.5708 55.0583C36.849 54.9065 37.192 55.1638 37.0849 55.4439L36.2489 57.6311L36.4096 59.9673C36.4302 60.2666 36.027 60.4122 35.8053 60.1859L34.2091 58.5562C33.1639 59.387 31.3762 60.2737 29.5224 59.9969C26.69 59.5739 24.7877 56.5935 24.8862 55.9342C24.9847 55.2748 27.6747 52.9803 30.5071 53.4033ZM28.1394 56.9256C28.4124 56.9663 28.667 56.7779 28.7078 56.5049C28.7486 56.2317 28.5601 55.9773 28.2871 55.9365C28.0139 55.8957 27.7595 56.084 27.7187 56.3572C27.678 56.6302 27.8664 56.8848 28.1394 56.9256Z" fill="url(#paint2_linear_195_3120)"/>
</g>
<g clip-path="url(#clip4_195_3120)">
<path d="M46.4093 46.8225C45.2287 46.0594 44.6756 44.6536 44.5106 43.6501L42.7883 43.801C42.549 43.8221 42.3967 43.5364 42.5601 43.3729L43.8351 42.0962L44.4756 40.4091C44.5576 40.193 44.8805 40.2147 44.9596 40.4414L45.5293 42.0738C46.5119 41.8122 48.021 41.7393 49.2016 42.5025C51.0055 43.6684 51.3509 46.3416 51.0716 46.7736C50.7924 47.2056 48.2131 47.9885 46.4093 46.8225ZM49.1622 45.0801C48.9883 44.9677 48.7534 45.0216 48.6378 45.2005C48.5221 45.3795 48.5695 45.6157 48.7433 45.7281C48.9173 45.8405 49.152 45.7866 49.2677 45.6076C49.3833 45.4288 49.3361 45.1925 49.1622 45.0801Z" fill="white"/>
</g>
<g clip-path="url(#clip5_195_3120)">
<path d="M46.4093 46.8225C45.2287 46.0594 44.6756 44.6536 44.5106 43.6501L42.7883 43.801C42.549 43.8221 42.3967 43.5364 42.5601 43.3729L43.8351 42.0962L44.4756 40.4091C44.5576 40.193 44.8805 40.2147 44.9596 40.4414L45.5293 42.0738C46.5119 41.8122 48.021 41.7393 49.2016 42.5025C51.0055 43.6684 51.3509 46.3416 51.0716 46.7736C50.7924 47.2056 48.2131 47.9885 46.4093 46.8225ZM49.1622 45.0801C48.9883 44.9677 48.7534 45.0216 48.6378 45.2005C48.5221 45.3795 48.5695 45.6157 48.7433 45.7281C48.9173 45.8405 49.152 45.7866 49.2677 45.6076C49.3833 45.4288 49.3361 45.1925 49.1622 45.0801Z" fill="url(#paint3_linear_195_3120)"/>
</g>
<g clip-path="url(#clip6_195_3120)">
<path d="M54.7739 35.8657C55.6988 35.7144 56.5985 36.1454 57.1269 36.5536L57.9136 35.7279C58.0229 35.6131 58.2255 35.6832 58.2173 35.8329L58.1532 37.0019L58.5864 38.0897C58.6419 38.2291 58.4721 38.3599 58.332 38.2861L57.3232 37.7538C56.9524 38.309 56.2366 39.0041 55.3117 39.1553C53.8986 39.3864 52.5379 38.2578 52.4841 37.9289C52.4303 37.5999 53.3608 36.0967 54.7739 35.8657ZM54.1843 37.9042C54.3206 37.8819 54.413 37.7533 54.3907 37.6171C54.3684 37.4808 54.2399 37.3885 54.1037 37.4107C53.9674 37.433 53.875 37.5615 53.8973 37.6978C53.9196 37.834 54.0481 37.9264 54.1843 37.9042Z" fill="url(#paint4_linear_195_3120)"/>
</g>
<g clip-path="url(#clip7_195_3120)">
<path d="M46.0033 53.6058C46.5524 53.9039 46.8505 54.4984 46.9621 54.9293L47.714 54.8155C47.8184 54.7997 47.8965 54.9194 47.831 54.9949L47.3198 55.5847L47.1038 56.3348C47.0761 56.4309 46.9332 56.4305 46.8896 56.3343L46.5754 55.6419C46.1533 55.783 45.4923 55.8569 44.9431 55.5588C44.1042 55.1034 43.8481 53.953 43.9541 53.7577C44.0601 53.5624 45.1643 53.1504 46.0033 53.6058ZM44.8601 54.4392C44.941 54.483 45.0422 54.4531 45.0861 54.3722C45.13 54.2913 45.1 54.1901 45.0191 54.1462C44.9382 54.1023 44.8371 54.1322 44.7931 54.2132C44.7492 54.294 44.7792 54.3953 44.8601 54.4392Z" fill="url(#paint5_linear_195_3120)"/>
</g>
<path d="M23.1293 23.6642L21.6743 24.0903L20.4663 23.0837C20.4333 23.0561 20.3927 23.0402 20.3509 23.0386C20.246 23.0342 20.1602 23.1185 20.1591 23.2268L20.1523 24.7991L18.8898 25.6387C18.855 25.6618 18.8293 25.6962 18.8162 25.7364C18.7835 25.8383 18.8373 25.951 18.9376 25.9888L20.3881 26.5346L20.8159 28.06C20.8275 28.1017 20.8522 28.1393 20.886 28.1658C20.9706 28.2328 21.0904 28.2186 21.1522 28.1332L22.0559 26.8981L23.5829 27.0012C23.6247 27.0042 23.6661 26.9924 23.6999 26.9685C23.7852 26.9083 23.8047 26.7867 23.7432 26.6967L22.8509 25.3876L23.3666 23.9261C23.3805 23.8862 23.3815 23.8421 23.3686 23.8004C23.3374 23.6956 23.2298 23.6352 23.1293 23.6642Z" fill="#25A1FF" fill-opacity="0.5"/>
<path d="M23.1293 23.6642L21.6743 24.0903L20.4663 23.0837C20.4333 23.0561 20.3927 23.0402 20.3509 23.0386C20.246 23.0342 20.1602 23.1185 20.1591 23.2268L20.1523 24.7991L18.8898 25.6387C18.855 25.6618 18.8293 25.6962 18.8162 25.7364C18.7835 25.8383 18.8373 25.951 18.9376 25.9888L20.3881 26.5346L20.8159 28.06C20.8275 28.1017 20.8522 28.1393 20.886 28.1658C20.9706 28.2328 21.0904 28.2186 21.1522 28.1332L22.0559 26.8981L23.5829 27.0012C23.6247 27.0042 23.6661 26.9924 23.6999 26.9685C23.7852 26.9083 23.8047 26.7867 23.7432 26.6967L22.8509 25.3876L23.3666 23.9261C23.3805 23.8862 23.3815 23.8421 23.3686 23.8004C23.3374 23.6956 23.2298 23.6352 23.1293 23.6642Z" fill="white" fill-opacity="0.5"/>
<path d="M44.5109 32.1402L43.7136 31.6574L43.6684 30.6917C43.6672 30.6653 43.6575 30.6403 43.6409 30.6207C43.5993 30.5713 43.5255 30.5674 43.476 30.6119L42.7602 31.2616L41.8554 31.0378C41.8304 31.0316 41.8042 31.0342 41.7805 31.045C41.7207 31.0724 41.692 31.1436 41.7165 31.2048L42.0713 32.0891L41.5573 32.9164C41.5432 32.939 41.5364 32.9658 41.5384 32.9921C41.5432 33.0583 41.5993 33.1067 41.6637 33.0993L42.5989 32.9962L43.1862 33.7314C43.2022 33.7516 43.2247 33.7655 43.2496 33.7708C43.3123 33.7845 43.3756 33.7429 43.3908 33.6776L43.6139 32.7295L44.4907 32.3565C44.5146 32.3463 44.535 32.3284 44.5485 32.3052C44.5831 32.2475 44.5658 32.1737 44.5109 32.1402Z" fill="#25A1FF" fill-opacity="0.5"/>
<path d="M44.5109 32.1402L43.7136 31.6574L43.6684 30.6917C43.6672 30.6653 43.6575 30.6403 43.6409 30.6207C43.5993 30.5713 43.5255 30.5674 43.476 30.6119L42.7602 31.2616L41.8554 31.0378C41.8304 31.0316 41.8042 31.0342 41.7805 31.045C41.7207 31.0724 41.692 31.1436 41.7165 31.2048L42.0713 32.0891L41.5573 32.9164C41.5432 32.939 41.5364 32.9658 41.5384 32.9921C41.5432 33.0583 41.5993 33.1067 41.6637 33.0993L42.5989 32.9962L43.1862 33.7314C43.2022 33.7516 43.2247 33.7655 43.2496 33.7708C43.3123 33.7845 43.3756 33.7429 43.3908 33.6776L43.6139 32.7295L44.4907 32.3565C44.5146 32.3463 44.535 32.3284 44.5485 32.3052C44.5831 32.2475 44.5658 32.1737 44.5109 32.1402Z" fill="white" fill-opacity="0.5"/>
<path d="M36.4396 18.9362L35.6044 18.5222L35.4781 17.5638C35.4747 17.5376 35.463 17.5135 35.4448 17.4953C35.3992 17.4496 35.3253 17.452 35.2797 17.5004L34.6212 18.2081L33.7007 18.0613C33.6753 18.0572 33.6494 18.0621 33.6266 18.0748C33.5694 18.1072 33.5468 18.1805 33.5763 18.2394L34.0043 19.0907L33.5618 19.9584C33.5497 19.9821 33.5451 20.0093 33.5494 20.0354C33.5597 20.101 33.6197 20.1445 33.6832 20.1316L34.6065 19.9502L35.2536 20.6333C35.2712 20.6521 35.2948 20.664 35.3201 20.6673C35.3837 20.6756 35.4432 20.6288 35.453 20.5625L35.5954 19.599L36.4376 19.1535C36.4606 19.1412 36.4794 19.1217 36.491 19.0975C36.5205 19.0371 36.4971 18.965 36.4396 18.9362Z" fill="#25A1FF" fill-opacity="0.5"/>
<path d="M36.4396 18.9362L35.6044 18.5222L35.4781 17.5638C35.4747 17.5376 35.463 17.5135 35.4448 17.4953C35.3992 17.4496 35.3253 17.452 35.2797 17.5004L34.6212 18.2081L33.7007 18.0613C33.6753 18.0572 33.6494 18.0621 33.6266 18.0748C33.5694 18.1072 33.5468 18.1805 33.5763 18.2394L34.0043 19.0907L33.5618 19.9584C33.5497 19.9821 33.5451 20.0093 33.5494 20.0354C33.5597 20.101 33.6197 20.1445 33.6832 20.1316L34.6065 19.9502L35.2536 20.6333C35.2712 20.6521 35.2948 20.664 35.3201 20.6673C35.3837 20.6756 35.4432 20.6288 35.453 20.5625L35.5954 19.599L36.4376 19.1535C36.4606 19.1412 36.4794 19.1217 36.491 19.0975C36.5205 19.0371 36.4971 18.965 36.4396 18.9362Z" fill="white" fill-opacity="0.5"/>
<defs>
<linearGradient id="paint0_linear_195_3120" x1="7" y1="37.9467" x2="21" y2="37.9467" gradientUnits="userSpaceOnUse">
<stop stop-color="#25A1FF"/>
<stop offset="1" stop-color="#25A1FF" stop-opacity="0.6"/>
</linearGradient>
<linearGradient id="paint1_linear_195_3120" x1="14.1831" y1="52.1163" x2="19.689" y2="49.732" gradientUnits="userSpaceOnUse">
<stop stop-color="#25A1FF"/>
<stop offset="1" stop-color="#25A1FF" stop-opacity="0.6"/>
</linearGradient>
<linearGradient id="paint2_linear_195_3120" x1="36.7613" y1="57.6615" x2="24.8929" y2="55.889" gradientUnits="userSpaceOnUse">
<stop stop-color="#25A1FF"/>
<stop offset="1" stop-color="#25A1FF" stop-opacity="0.6"/>
</linearGradient>
<linearGradient id="paint3_linear_195_3120" x1="43.494" y1="41.9177" x2="51.0525" y2="46.8032" gradientUnits="userSpaceOnUse">
<stop stop-color="#25A1FF"/>
<stop offset="1" stop-color="#25A1FF" stop-opacity="0.6"/>
</linearGradient>
<linearGradient id="paint4_linear_195_3120" x1="58.4018" y1="36.9382" x2="52.4804" y2="37.9063" gradientUnits="userSpaceOnUse">
<stop stop-color="#25A1FF"/>
<stop offset="1" stop-color="#25A1FF" stop-opacity="0.6"/>
</linearGradient>
<linearGradient id="paint5_linear_195_3120" x1="47.4769" y1="55.6526" x2="43.9614" y2="53.7444" gradientUnits="userSpaceOnUse">
<stop stop-color="#25A1FF"/>
<stop offset="1" stop-color="#25A1FF" stop-opacity="0.6"/>
</linearGradient>
<clipPath id="clip0_195_3120">
<rect width="14" height="14" fill="white" transform="translate(7 31)"/>
</clipPath>
<clipPath id="clip1_195_3120">
<rect width="14" height="14" fill="white" transform="translate(7 31)"/>
</clipPath>
<clipPath id="clip2_195_3120">
<rect width="6" height="6" fill="white" transform="translate(13 49.3843) rotate(-23.4149)"/>
</clipPath>
<clipPath id="clip3_195_3120">
<rect width="12" height="12" fill="white" transform="matrix(-0.989032 -0.147702 -0.147702 0.989032 37.6408 51.7724)"/>
</clipPath>
<clipPath id="clip4_195_3120">
<rect width="9" height="9.2591" fill="white" transform="matrix(0.839836 0.542841 0.542841 -0.839836 41 45.7761)"/>
</clipPath>
<clipPath id="clip5_195_3120">
<rect width="9" height="9.2591" fill="white" transform="matrix(0.839836 0.542841 0.542841 -0.839836 41 45.7761)"/>
</clipPath>
<clipPath id="clip6_195_3120">
<rect width="6" height="6" fill="white" transform="matrix(-0.986895 0.161361 0.161361 0.986895 57.9214 34)"/>
</clipPath>
<clipPath id="clip7_195_3120">
<rect width="4" height="4" fill="white" transform="matrix(-0.878868 -0.477065 -0.477065 0.878868 48.4237 53.9083)"/>
</clipPath>
</defs>
</svg>
