<svg width="176" height="183" viewBox="0 0 176 183" fill="none" xmlns="http://www.w3.org/2000/svg">
<path fill-rule="evenodd" clip-rule="evenodd" d="M176 0H0V125C2.20914 125 4 126.791 4 129C4 131.209 2.20914 133 0 133V183H176V133C173.791 133 172 131.209 172 129C172 126.791 173.791 125 176 125V0ZM6.03161 128.5C5.75547 128.5 5.53161 128.724 5.53161 129C5.53161 129.276 5.75547 129.5 6.03161 129.5H7.03736C7.3135 129.5 7.53736 129.276 7.53736 129C7.53736 128.724 7.3135 128.5 7.03736 128.5H6.03161ZM12.0661 128.5C11.7899 128.5 11.5661 128.724 11.5661 129C11.5661 129.276 11.7899 129.5 12.0661 129.5H13.0718C13.348 129.5 13.5718 129.276 13.5718 129C13.5718 128.724 13.348 128.5 13.0718 128.5H12.0661ZM18.1006 128.5C17.8244 128.5 17.6006 128.724 17.6006 129C17.6006 129.276 17.8244 129.5 18.1006 129.5H19.1063C19.3825 129.5 19.6063 129.276 19.6063 129C19.6063 128.724 19.3825 128.5 19.1063 128.5H18.1006ZM24.1351 128.5C23.8589 128.5 23.6351 128.724 23.6351 129C23.6351 129.276 23.8589 129.5 24.1351 129.5H25.1408C25.4169 129.5 25.6408 129.276 25.6408 129C25.6408 128.724 25.4169 128.5 25.1408 128.5H24.1351ZM30.1695 128.5C29.8934 128.5 29.6695 128.724 29.6695 129C29.6695 129.276 29.8934 129.5 30.1695 129.5H31.1753C31.4514 129.5 31.6753 129.276 31.6753 129C31.6753 128.724 31.4514 128.5 31.1753 128.5H30.1695ZM36.204 128.5C35.9279 128.5 35.704 128.724 35.704 129C35.704 129.276 35.9279 129.5 36.204 129.5H37.2098C37.4859 129.5 37.7098 129.276 37.7098 129C37.7098 128.724 37.4859 128.5 37.2098 128.5H36.204ZM42.2385 128.5C41.9624 128.5 41.7385 128.724 41.7385 129C41.7385 129.276 41.9624 129.5 42.2385 129.5H43.2443C43.5204 129.5 43.7443 129.276 43.7443 129C43.7443 128.724 43.5204 128.5 43.2443 128.5H42.2385ZM48.273 128.5C47.9968 128.5 47.773 128.724 47.773 129C47.773 129.276 47.9968 129.5 48.273 129.5H49.2787C49.5549 129.5 49.7787 129.276 49.7787 129C49.7787 128.724 49.5549 128.5 49.2787 128.5H48.273ZM54.3075 128.5C54.0313 128.5 53.8075 128.724 53.8075 129C53.8075 129.276 54.0313 129.5 54.3075 129.5H55.3132C55.5894 129.5 55.8132 129.276 55.8132 129C55.8132 128.724 55.5894 128.5 55.3132 128.5H54.3075ZM60.342 128.5C60.0658 128.5 59.842 128.724 59.842 129C59.842 129.276 60.0658 129.5 60.342 129.5H61.3477C61.6239 129.5 61.8477 129.276 61.8477 129C61.8477 128.724 61.6239 128.5 61.3477 128.5H60.342ZM66.3764 128.5C66.1003 128.5 65.8764 128.724 65.8764 129C65.8764 129.276 66.1003 129.5 66.3764 129.5H67.3822C67.6583 129.5 67.8822 129.276 67.8822 129C67.8822 128.724 67.6583 128.5 67.3822 128.5H66.3764ZM72.4109 128.5C72.1348 128.5 71.9109 128.724 71.9109 129C71.9109 129.276 72.1348 129.5 72.4109 129.5H73.4167C73.6928 129.5 73.9167 129.276 73.9167 129C73.9167 128.724 73.6928 128.5 73.4167 128.5H72.4109ZM78.4454 128.5C78.1693 128.5 77.9454 128.724 77.9454 129C77.9454 129.276 78.1693 129.5 78.4454 129.5H79.4511C79.7273 129.5 79.9511 129.276 79.9511 129C79.9511 128.724 79.7273 128.5 79.4511 128.5H78.4454ZM84.4799 128.5C84.2037 128.5 83.9799 128.724 83.9799 129C83.9799 129.276 84.2037 129.5 84.4799 129.5H85.4856C85.7618 129.5 85.9856 129.276 85.9856 129C85.9856 128.724 85.7618 128.5 85.4856 128.5H84.4799ZM90.5144 128.5C90.2382 128.5 90.0144 128.724 90.0144 129C90.0144 129.276 90.2382 129.5 90.5144 129.5H91.5201C91.7962 129.5 92.0201 129.276 92.0201 129C92.0201 128.724 91.7962 128.5 91.5201 128.5H90.5144ZM96.5488 128.5C96.2727 128.5 96.0488 128.724 96.0488 129C96.0488 129.276 96.2727 129.5 96.5488 129.5H97.5546C97.8307 129.5 98.0546 129.276 98.0546 129C98.0546 128.724 97.8307 128.5 97.5546 128.5H96.5488ZM102.583 128.5C102.307 128.5 102.083 128.724 102.083 129C102.083 129.276 102.307 129.5 102.583 129.5H103.589C103.865 129.5 104.089 129.276 104.089 129C104.089 128.724 103.865 128.5 103.589 128.5H102.583ZM108.618 128.5C108.342 128.5 108.118 128.724 108.118 129C108.118 129.276 108.342 129.5 108.618 129.5H109.624C109.9 129.5 110.124 129.276 110.124 129C110.124 128.724 109.9 128.5 109.624 128.5H108.618ZM114.652 128.5C114.376 128.5 114.152 128.724 114.152 129C114.152 129.276 114.376 129.5 114.652 129.5H115.658C115.934 129.5 116.158 129.276 116.158 129C116.158 128.724 115.934 128.5 115.658 128.5H114.652ZM120.687 128.5C120.411 128.5 120.187 128.724 120.187 129C120.187 129.276 120.411 129.5 120.687 129.5H121.692C121.969 129.5 122.192 129.276 122.192 129C122.192 128.724 121.969 128.5 121.692 128.5H120.687ZM126.721 128.5C126.445 128.5 126.221 128.724 126.221 129C126.221 129.276 126.445 129.5 126.721 129.5H127.727C128.003 129.5 128.227 129.276 128.227 129C128.227 128.724 128.003 128.5 127.727 128.5H126.721ZM132.756 128.5C132.48 128.5 132.256 128.724 132.256 129C132.256 129.276 132.48 129.5 132.756 129.5H133.761C134.038 129.5 134.261 129.276 134.261 129C134.261 128.724 134.038 128.5 133.761 128.5H132.756ZM138.79 128.5C138.514 128.5 138.29 128.724 138.29 129C138.29 129.276 138.514 129.5 138.79 129.5H139.796C140.072 129.5 140.296 129.276 140.296 129C140.296 128.724 140.072 128.5 139.796 128.5H138.79ZM144.825 128.5C144.549 128.5 144.325 128.724 144.325 129C144.325 129.276 144.549 129.5 144.825 129.5H145.83C146.107 129.5 146.33 129.276 146.33 129C146.33 128.724 146.107 128.5 145.83 128.5H144.825ZM150.859 128.5C150.583 128.5 150.359 128.724 150.359 129C150.359 129.276 150.583 129.5 150.859 129.5H151.865C152.141 129.5 152.365 129.276 152.365 129C152.365 128.724 152.141 128.5 151.865 128.5H150.859ZM156.894 128.5C156.617 128.5 156.394 128.724 156.394 129C156.394 129.276 156.617 129.5 156.894 129.5H157.899C158.176 129.5 158.399 129.276 158.399 129C158.399 128.724 158.176 128.5 157.899 128.5H156.894ZM162.928 128.5C162.652 128.5 162.428 128.724 162.428 129C162.428 129.276 162.652 129.5 162.928 129.5H163.934C164.21 129.5 164.434 129.276 164.434 129C164.434 128.724 164.21 128.5 163.934 128.5H162.928ZM168.963 128.5C168.686 128.5 168.463 128.724 168.463 129C168.463 129.276 168.686 129.5 168.963 129.5H169.968C170.244 129.5 170.468 129.276 170.468 129C170.468 128.724 170.244 128.5 169.968 128.5H168.963Z" fill="white"/>
</svg>
